<?xml version="1.0" encoding="utf-8" ?>
<svg xmlns="http://www.w3.org/2000/svg" xmlns:xlink="http://www.w3.org/1999/xlink" width="508" height="756">
	<path fill="#FEFEFE" d="M0 0L508 0L508 755.354C507.591 755.612 507.19 755.79 506.715 755.897C504.207 756.464 500.632 755.996 497.989 755.997L475.899 756.002L383.781 756L7.45484 755.998C5.3446 755.998 1.74521 756.465 0 755.354L0 0Z"/>
	<path fill="#95BA05" d="M249.132 17.5115C274.428 16.6547 297.357 22.2542 319.012 35.394C347.743 52.8282 367.445 83.3498 375.38 115.663C368.529 116.323 357.866 116.4 350.975 115.959C350.006 115.897 347.953 115.784 347.333 114.969C345.153 112.105 344.122 105.924 342.628 102.351C338.636 92.8085 331.953 83.0076 325.147 75.251C320.381 69.8182 315.226 65.7602 309.251 61.7317C294.236 51.6078 278.462 46.1806 260.368 45.0358C243.269 43.9536 226.52 46.9682 211.277 54.8912C202.487 59.4602 193.277 65.4476 186.224 72.4456C175.122 83.4597 166.407 100.69 161.742 115.524C152.342 115.904 142.55 116.57 133.223 115.164C137.276 97.7023 149.663 73.2255 161.614 59.8769C185.357 33.3574 213.559 19.4369 249.132 17.5115Z"/>
	<path fill="#95BA05" d="M106.867 586.281C106.982 586.337 107.095 586.396 107.212 586.448C108.648 587.084 153.56 586.655 159.043 586.681L359.521 586.559C364.716 586.558 404.022 587.113 405.21 586.671C405.391 592.492 405.099 598.361 405.041 604.185L405.002 631.961C405.007 646.436 405.741 661.17 404.993 675.602L404.452 675.985C403.428 675.986 402.786 675.729 401.859 675.31C401.449 675.57 401.047 675.748 400.571 675.859C397.388 676.604 380.464 675.966 375.954 675.948L311.778 675.826L166.664 675.84L121.526 675.948C117.623 675.958 107.628 676.607 104.285 675.815C103.804 675.701 103.408 675.512 103.001 675.24C102.87 657.398 103.139 639.54 103.221 621.697C103.272 610.411 102.852 598.951 103.527 587.699C104.2 586.879 105.838 586.659 106.867 586.281Z"/>
	<path fill="#95BA05" d="M116.05 129.385C142.28 129.001 168.565 129.339 194.799 129.445L311.676 129.551L402.733 129.357C421.546 129.292 440.612 128.64 459.402 129.588C467.88 130.016 476.942 134.547 482.576 140.896C486.312 145.106 488.949 150.48 490.274 155.936C492.345 164.461 491.884 184.904 491.38 194.203C480.982 195.301 469.255 194.538 458.73 194.583Q426.054 194.857 393.377 194.706L16.6105 194.756L16.6834 176.567C16.8145 162.505 17.8077 150.08 28.3305 139.413C32.3349 135.354 37.5816 131.761 43.1803 130.384C50.9198 128.48 64.1514 129.512 72.4085 129.519L116.05 129.385Z"/>
	<path fill="#95BA05" d="M425.132 218.374C432.908 217.894 440.84 218.131 448.64 218.091C455.988 218.054 463.867 217.476 471.119 218.566L470.851 266.796L470.837 503.86L471.056 608.223C471.11 628.008 471.371 647.81 471.159 667.593C471.103 672.856 471.149 678.146 470.446 683.373C468.367 698.812 461.205 714.708 450.002 725.623C442.438 732.994 431.682 739.432 421.187 741.217C408.572 743.361 392.82 742.51 379.867 742.518L311.132 742.412L180.628 742.444Q140.167 742.666 99.7057 742.387C82.852 742.153 68.8496 736.671 57.01 724.472C46.7724 713.923 40.4793 699.332 38.4201 684.843C37.4182 677.793 37.6491 670.491 37.6262 663.383L37.5818 633.838L37.7029 533.855L37.804 328.599C37.7899 291.859 37.1739 255.027 37.7667 218.299C45.4215 217.954 53.147 218.104 60.8092 218.1C68.3629 218.096 76.0089 217.863 83.5301 218.63L83.5982 512.753L83.5741 629.27L83.6287 664.367C83.678 669.241 83.5143 674.257 83.8922 679.113C84.2073 683.164 84.9782 685.013 87.8038 687.974C91.7984 692.161 94.6251 693.047 100.326 693.189C122.324 693.74 144.469 693.246 166.483 693.234L294.801 693.18L371.058 693.204C383.198 693.204 398.689 693.991 410.479 692.888C414.596 692.503 418.172 690.944 421.146 688.044C423.904 685.355 424.33 682.975 424.6 679.216C425.007 673.554 424.8 667.735 424.817 662.052L424.881 631.771L424.911 535.951L425.132 218.374Z"/>
</svg>
