<?xml version="1.0" encoding="UTF-8"?>
<svg xmlns="http://www.w3.org/2000/svg" xmlns:xlink="http://www.w3.org/1999/xlink" width="px" height="px" viewBox="0 0 381 567" version="1.1" fill="none">
<g id="surface1">
<path style=" stroke:none;fill-rule:nonzero;fill:rgb(99.607843%,99.607843%,99.607843%);fill-opacity:1;" d="M 0 0 L 381 0 L 381 566.515625 C 380.691406 566.710938 380.390625 566.84375 380.035156 566.921875 C 378.15625 567.347656 375.472656 566.996094 373.492188 566.996094 L 356.925781 567 L 5.589844 567 C 4.007812 567 1.308594 567.347656 0 566.515625 Z M 0 0 "/>
<path style=" stroke:none;fill-rule:nonzero;fill:rgb(58.431375%,72.941178%,1.960784%);fill-opacity:1;" d="M 186.847656 13.132812 C 205.820312 12.492188 223.019531 16.691406 239.257812 26.546875 C 260.808594 39.621094 275.582031 62.511719 281.535156 86.746094 C 276.398438 87.242188 268.398438 87.300781 263.230469 86.96875 C 262.503906 86.921875 260.964844 86.839844 260.5 86.226562 C 258.863281 84.078125 258.089844 79.441406 256.972656 76.761719 C 253.976562 69.605469 248.964844 62.253906 243.859375 56.4375 C 240.285156 52.363281 236.417969 49.320312 231.9375 46.296875 C 220.675781 38.707031 208.847656 34.636719 195.277344 33.777344 C 182.453125 32.964844 169.890625 35.226562 158.457031 41.167969 C 151.867188 44.59375 144.957031 49.085938 139.667969 54.335938 C 131.339844 62.59375 124.804688 75.515625 121.304688 86.644531 C 114.257812 86.929688 106.914062 87.425781 99.917969 86.371094 C 102.957031 73.277344 112.246094 54.917969 121.210938 44.90625 C 139.019531 25.019531 160.167969 14.578125 186.847656 13.132812 Z M 186.847656 13.132812 "/>
<path style=" stroke:none;fill-rule:nonzero;fill:rgb(58.431375%,72.941178%,1.960784%);fill-opacity:1;" d="M 80.148438 439.710938 C 80.238281 439.753906 80.320312 439.796875 80.410156 439.835938 C 81.484375 440.3125 115.171875 439.992188 119.28125 440.011719 L 269.640625 439.917969 C 273.535156 439.917969 303.015625 440.335938 303.90625 440.003906 C 304.042969 444.367188 303.824219 448.769531 303.78125 453.140625 L 303.75 473.972656 C 303.753906 484.828125 304.304688 495.878906 303.746094 506.703125 L 303.339844 506.988281 C 302.570312 506.988281 302.089844 506.796875 301.394531 506.484375 C 301.085938 506.675781 300.785156 506.8125 300.429688 506.894531 C 298.039062 507.453125 285.347656 506.972656 281.964844 506.960938 L 233.832031 506.871094 L 124.996094 506.878906 L 91.144531 506.960938 C 88.21875 506.96875 80.722656 507.457031 78.214844 506.859375 C 77.851562 506.777344 77.554688 506.632812 77.25 506.429688 C 77.152344 493.046875 77.355469 479.65625 77.414062 466.273438 C 77.453125 457.808594 77.140625 449.214844 77.644531 440.773438 C 78.148438 440.160156 79.378906 439.996094 80.148438 439.710938 Z M 80.148438 439.710938 "/>
<path style=" stroke:none;fill-rule:nonzero;fill:rgb(58.431375%,72.941178%,1.960784%);fill-opacity:1;" d="M 87.039062 97.039062 C 106.710938 96.75 126.421875 97.003906 146.097656 97.082031 L 233.757812 97.164062 L 302.050781 97.019531 C 316.160156 96.96875 330.460938 96.480469 344.550781 97.191406 C 350.910156 97.511719 357.707031 100.910156 361.933594 105.671875 C 364.734375 108.828125 366.710938 112.859375 367.707031 116.953125 C 369.257812 123.347656 368.914062 138.679688 368.535156 145.652344 C 360.738281 146.476562 351.941406 145.902344 344.046875 145.9375 C 327.710938 146.074219 311.371094 146.105469 295.03125 146.03125 L 12.457031 146.066406 L 12.511719 132.425781 C 12.609375 121.878906 13.355469 112.558594 21.246094 104.558594 C 24.25 101.515625 28.1875 98.820312 32.386719 97.789062 C 38.191406 96.359375 48.113281 97.132812 54.304688 97.140625 Z M 87.039062 97.039062 "/>
<path style=" stroke:none;fill-rule:nonzero;fill:rgb(58.431375%,72.941178%,1.960784%);fill-opacity:1;" d="M 318.847656 163.78125 C 324.679688 163.421875 330.628906 163.597656 336.480469 163.566406 C 341.992188 163.539062 347.898438 163.105469 353.339844 163.925781 L 353.136719 200.097656 L 353.128906 377.894531 L 353.292969 456.167969 C 353.332031 471.007812 353.527344 485.859375 353.371094 500.695312 C 353.328125 504.640625 353.363281 508.609375 352.835938 512.53125 C 351.273438 524.109375 345.902344 536.03125 337.5 544.21875 C 331.828125 549.746094 323.761719 554.574219 315.890625 555.914062 C 306.429688 557.519531 294.613281 556.882812 284.898438 556.886719 L 233.347656 556.808594 L 135.472656 556.832031 C 115.242188 556.945312 95.011719 556.929688 74.777344 556.789062 C 62.140625 556.613281 51.636719 552.503906 42.757812 543.355469 C 35.078125 535.441406 30.359375 524.5 28.816406 513.632812 C 28.0625 508.34375 28.238281 502.867188 28.21875 497.539062 L 28.1875 475.378906 L 28.277344 400.390625 L 28.351562 246.449219 C 28.34375 218.894531 27.878906 191.269531 28.324219 163.722656 C 34.066406 163.464844 39.859375 163.578125 45.605469 163.574219 C 51.273438 163.570312 57.007812 163.398438 62.648438 163.972656 L 62.699219 384.566406 L 62.679688 471.953125 L 62.722656 498.273438 C 62.757812 501.929688 62.636719 505.691406 62.917969 509.335938 C 63.15625 512.371094 63.734375 513.757812 65.851562 515.980469 C 68.847656 519.121094 70.96875 519.785156 75.246094 519.890625 C 91.742188 520.304688 108.351562 519.933594 124.863281 519.925781 L 221.101562 519.886719 L 278.292969 519.902344 C 287.398438 519.902344 299.015625 520.492188 307.859375 519.664062 C 310.945312 519.378906 313.628906 518.207031 315.859375 516.03125 C 317.929688 514.015625 318.246094 512.230469 318.449219 509.410156 C 318.753906 505.164062 318.601562 500.800781 318.613281 496.539062 L 318.660156 473.828125 L 318.683594 401.964844 Z M 318.847656 163.78125 "/>
</g>
</svg>
