<?xml version="1.0" encoding="UTF-8"?>
<svg version="1.1" xmlns="http://www.w3.org/2000/svg" width="508" height="756">
<path d="M0 0 C167.64 0 335.28 0 508 0 C508 249.48 508 498.96 508 756 C340.36 756 172.72 756 0 756 C0 506.52 0 257.04 0 0 Z " fill="#FEFEFE" transform="translate(0,0)"/>
<path d="M0 0 C15.51 0 31.02 0 47 0 C47.00586624 5.81445236 47.01173248 11.62890472 47.01777649 17.61955261 C47.07291455 70.89953609 47.14284298 124.17948691 47.22898628 177.45942904 C47.24026503 184.43787762 47.25139673 191.41632644 47.26245117 198.39477539 C47.26410502 199.43644748 47.26410502 199.43644748 47.26579228 200.49916344 C47.30147547 223.01755039 47.32744505 245.53593583 47.34838969 268.05434091 C47.37057126 291.84599584 47.40379489 315.6376097 47.44870156 339.42923337 C47.47525329 353.68609535 47.49292271 367.94291217 47.49934604 382.19979767 C47.50458916 391.96704291 47.52076981 401.73423125 47.54566566 411.50144603 C47.55971759 417.14246048 47.56883772 422.78337299 47.56500816 428.42440605 C47.56161129 433.58435117 47.57188535 438.74407811 47.59323552 443.9039785 C47.59852708 445.77484169 47.5987137 447.64572739 47.59339563 449.5165905 C47.58691977 452.05221787 47.59872815 454.58711702 47.61523914 457.12268353 C47.6058241 458.22201187 47.6058241 458.22201187 47.59621885 459.34354886 C47.64917028 463.73350305 48.28576957 466.52015804 51 470 C51.99 470.66 52.98 471.32 54 472 C54 472.66 54 473.32 54 474 C95.17353182 474.09152362 136.3470504 474.1620225 177.5206636 474.20426132 C182.37982407 474.20926424 187.23898435 474.21444152 192.09814453 474.21972656 C193.06552985 474.2207758 194.03291518 474.22182505 195.02961521 474.22290608 C210.70045307 474.24031888 226.37123233 474.27186139 242.04203542 474.30861118 C258.11761714 474.34599626 274.19316814 474.3682307 290.26879156 474.37635398 C300.19107458 474.3818468 310.11319199 474.39920531 320.03542404 474.43166587 C326.83630252 474.45278372 333.63709519 474.45920624 340.43800409 474.45400551 C344.36382763 474.45143946 348.28936143 474.45541693 352.21513367 474.4768219 C355.80912311 474.49627497 359.40262774 474.49727852 362.99663942 474.48359558 C364.91293003 474.48110294 366.82921488 474.49836624 368.74542296 474.51632524 C375.09032844 474.47202088 379.2582216 474.42643103 384 470 C384.66 469.01 385.32 468.02 386 467 C386.66 467 387.32 467 388 467 C388 312.89 388 158.78 388 0 C402.85 0 417.7 0 433 0 C434.70722229 1.70722229 434.12653098 3.86085512 434.1367898 6.13851181 C434.13413559 7.2549851 434.13413559 7.2549851 434.13142776 8.3940134 C434.1334804 9.18124099 434.13553303 9.96846857 434.13764787 10.77955154 C434.14336035 13.45156544 434.14185542 16.12352849 434.14044189 18.79554749 C434.14302312 20.71699138 434.14603559 22.63843473 434.1494453 24.55987734 C434.15754741 29.86671072 434.15930665 35.17353061 434.16004276 40.48036945 C434.16188782 46.19358173 434.16943245 51.90678691 434.17617798 57.61999512 C434.18978562 70.12627161 434.19579008 82.6325449 434.20018864 95.13882756 C434.20294753 102.94334116 434.20718428 110.7478535 434.21169281 118.55236626 C434.22388972 140.14669391 434.2342229 161.74102005 434.2375679 183.33535099 C434.23778954 184.73265083 434.23801132 186.12995066 434.23823325 187.52725049 C434.2384539 188.92796659 434.23867438 190.32868269 434.2388947 191.72939879 C434.23933726 194.5395699 434.23978437 197.349741 434.24023438 200.15991211 C434.24039846 201.20505598 434.24039846 201.20505598 434.24056586 202.27131386 C434.24419573 224.85907238 434.26011142 247.44679879 434.28342474 270.03454502 C434.30801823 293.90622315 434.32173383 317.77788087 434.32293582 341.64957231 C434.32385346 354.66580901 434.32962785 367.68200369 434.34775543 380.69822884 C434.36313833 391.78309957 434.36828767 402.86791531 434.36001733 413.95279468 C434.35610412 419.61040359 434.35707308 425.2679017 434.37107468 430.92549706 C434.38377361 436.10404084 434.38265132 441.28239013 434.37048396 446.4609335 C434.36851998 448.3351942 434.37163762 450.2094685 434.38032833 452.08371008 C434.39139308 454.63107591 434.38395195 457.17775196 434.3719368 459.72509861 C434.38332959 460.81698966 434.38332959 460.81698966 434.39495254 461.93093911 C434.3487543 466.46703816 433.48912719 470.02203991 431.71031277 474.19911763 C430.70856456 476.73888711 430.33724496 479.30204034 430 482 C429.34 482 428.68 482 428 482 C427.88527344 482.88300781 427.77054687 483.76601563 427.65234375 484.67578125 C425.24461677 496.9450966 414.98519537 507.78989941 404.984375 514.73046875 C404.32953125 515.14941406 403.6746875 515.56835938 403 516 C402.30390625 516.44988281 401.6078125 516.89976562 400.890625 517.36328125 C389.10694364 524.4460259 376.37915228 525.14918295 362.98336792 525.14717102 C361.66757189 525.15084771 360.35177586 525.1545244 358.99610722 525.1583125 C355.35431075 525.16828838 351.71253077 525.17204213 348.07072258 525.17470181 C344.1387195 525.1786179 340.20672931 525.18819513 336.2747345 525.19691467 C326.78548315 525.21663999 317.29623081 525.22673926 307.8069641 525.23564246 C303.33373266 525.2400309 298.86050239 525.24539618 294.38727188 525.25063133 C279.51042616 525.26763796 264.63358116 525.28213182 249.75672722 525.28938007 C245.89966709 525.29128982 242.04260698 525.29321018 238.18554688 525.29516602 C236.74764684 525.29589163 236.74764684 525.29589163 235.28069831 525.2966319 C219.75405898 525.30493123 204.2274967 525.33026905 188.700891 525.36274669 C172.74595999 525.39584725 156.79106812 525.41383145 140.8361026 525.41702431 C131.8836254 525.41918639 122.93126065 525.42789092 113.97881699 525.45348549 C106.35453488 525.47523327 98.73039257 525.48322281 91.10608296 525.47351871 C87.2198531 525.46898609 83.33391147 525.47079929 79.44772148 525.49028015 C75.88200879 525.50799934 72.3167927 525.50684428 68.75107409 525.49138286 C66.86713955 525.4879105 64.98319927 525.50396736 63.09933841 525.52098733 C47.79576004 525.40646918 32.73882673 519.78350465 21.5625 509.125 C11.22337902 497.79596318 2 483.71717431 2 468 C1.34 468 0.68 468 0 468 C0 313.56 0 159.12 0 0 Z " fill="#94B807" transform="translate(37,218)"/>
<path d="M0 0 C1.92233417 0.00056958 1.92233417 0.00056958 3.88350338 0.00115067 C4.59715092 -0.00000318 5.31079846 -0.00115702 6.04607168 -0.00234583 C8.46771436 -0.00501933 10.88929223 -0.00048436 13.31093162 0.00394398 C15.05246059 0.00350843 16.7939895 0.00263382 18.53551805 0.00135481 C23.34473113 -0.00089329 28.15392217 0.00313541 32.96313244 0.00813287 C38.14039568 0.0124327 43.31765758 0.01099129 48.4949221 0.0102306 C57.47272931 0.00970507 66.45052927 0.01285492 75.42833465 0.01846844 C88.408895 0.02657948 101.38945182 0.02919825 114.37001442 0.03045643 C135.42775032 0.03264758 156.48548236 0.03930935 177.54321617 0.04875904 C198.00447899 0.05793155 218.46574077 0.06501317 238.92700523 0.06926686 C240.81737935 0.06966094 240.81737935 0.06966094 242.74594284 0.07006299 C249.06795027 0.07136798 255.3899577 0.0726317 261.71196514 0.07387489 C314.19795448 0.08424945 366.68393963 0.10186946 419.16992515 0.1241985 C419.16992515 0.7841985 419.16992515 1.4441985 419.16992515 2.1241985 C419.89566734 2.237636 420.62140953 2.3510735 421.3691439 2.4679485 C430.13293283 4.52138858 437.1043158 10.92762367 442.16992515 18.1241985 C443.53277287 20.80730494 444.32851428 23.20400783 445.16992515 26.1241985 C445.35409996 26.69501148 445.53827476 27.26582447 445.72803062 27.85393482 C446.39224815 31.26639824 446.31218664 34.67324074 446.30273765 38.13591725 C446.30417274 39.28916241 446.30417274 39.28916241 446.30563682 40.46570545 C446.30631571 42.08535046 446.30448178 43.70499821 446.30029625 45.32463795 C446.29492186 47.81322471 446.3002623 50.30163279 446.3066439 52.79021412 C446.3059835 54.36378223 446.30470312 55.93735023 446.30273765 57.51091725 C446.30476188 58.25879002 446.30678612 59.00666279 446.30887169 59.77719837 C446.28489139 65.00923226 446.28489139 65.00923226 445.16992515 66.1241985 C442.64720354 66.22303979 440.15185597 66.25597458 437.62862629 66.24724633 C436.82549494 66.24840017 436.0223636 66.24955401 435.19489494 66.25074282 C432.46885438 66.2534169 429.74287136 66.24888087 427.01683372 66.24445301 C425.05669035 66.24488855 423.09654704 66.24576314 421.13640404 66.24704218 C415.72290847 66.24929051 410.30943248 66.24526126 404.89593941 66.24026412 C399.06836335 66.23596463 393.24078849 66.23740568 387.41321129 66.23816639 C377.30751542 66.23869195 367.20182599 66.23554187 357.09613174 66.22992855 C342.48480987 66.2218178 327.87349048 66.21919543 313.26216669 66.21794056 C289.5589731 66.21583837 265.85578287 66.20909603 242.15259117 66.19963795 C219.12069031 66.19045831 196.08879037 66.18337235 173.05688804 66.17913014 C172.34734301 66.17899861 171.63779798 66.17886708 170.90675158 66.17873157 C163.78141625 66.17741309 156.6560809 66.17613727 149.53074555 66.17489271 C135.01472517 66.17235628 120.49870485 66.16953503 105.98268455 66.16654164 C105.3152146 66.16640435 104.64774466 66.16626706 103.96004834 66.16612561 C59.36333922 66.15691998 14.76663197 66.14105346 -29.83007485 66.1241985 C-29.85509311 61.76832653 -29.87308291 57.41249442 -29.88500649 53.05657154 C-29.88998569 51.5796761 -29.89677147 50.10278544 -29.9055143 48.62590748 C-29.95479912 40.07644038 -29.84222016 31.62872953 -28.83007485 23.1241985 C-27.84007485 23.1241985 -26.85007485 23.1241985 -25.83007485 23.1241985 C-25.55163735 21.8866985 -25.55163735 21.8866985 -25.26757485 20.6241985 C-23.32599987 15.8968855 -20.30939449 12.8010341 -16.83007485 9.1241985 C-16.02569985 8.1960735 -15.22132485 7.2679485 -14.39257485 6.3116985 C-11.0541446 3.46181902 -7.98392558 2.50881541 -3.83007485 1.1241985 C-2.83007485 0.1241985 -2.83007485 0.1241985 0 0 Z " fill="#95B805" transform="translate(45.83007484674454,128.8758015036583)"/>
<path d="M0 0 C1.04639302 -0.00260775 2.09278605 -0.00521549 3.17088795 -0.00790226 C4.33457747 -0.00567154 5.498267 -0.00344082 6.69721985 -0.0011425 C7.92243442 -0.00270249 9.14764898 -0.00426248 10.40999126 -0.00586975 C13.82629268 -0.00918314 17.24253962 -0.00797048 20.6588378 -0.00488353 C24.33713061 -0.00263136 28.01541848 -0.00610812 31.69371033 -0.00886345 C38.90559982 -0.01332212 46.11747893 -0.01234425 53.32936883 -0.00945081 C59.18793845 -0.00719715 65.04650515 -0.00688409 70.90507507 -0.00797462 C71.73725923 -0.00812786 72.56944339 -0.00828109 73.42684525 -0.00843897 C75.11713799 -0.00875868 76.80743073 -0.00908289 78.49772346 -0.00941156 C94.36685202 -0.01226663 110.23597481 -0.0089789 126.10510242 -0.00361119 C139.73680396 0.00085687 153.36849698 0.00008095 167.00019836 -0.00452995 C182.81054353 -0.00987523 198.62088364 -0.01199194 214.43122959 -0.00891769 C216.11548424 -0.00859912 217.79973888 -0.00828475 219.48399353 -0.00797462 C220.31279091 -0.00782035 221.14158829 -0.00766607 221.99550074 -0.00750712 C227.85053261 -0.00664183 233.70556128 -0.00810511 239.56059265 -0.01045418 C246.69089369 -0.01325186 253.82118372 -0.01251459 260.95148349 -0.00717343 C264.59304966 -0.00453599 268.23459743 -0.00353208 271.87616348 -0.00682259 C275.81473576 -0.01032778 279.75327757 -0.00615724 283.69184875 -0.0011425 C284.85553828 -0.00337322 286.01922781 -0.00560395 287.21818066 -0.00790226 C288.78777019 -0.00399064 288.78777019 -0.00399064 290.3890686 0 C291.7546791 0.00024353 291.7546791 0.00024353 293.14787769 0.00049198 C295.1945343 0.12584114 295.1945343 0.12584114 296.1945343 1.12584114 C296.28971233 3.89523081 296.32007695 6.63961273 296.30805969 9.40928841 C296.30820572 10.27750221 296.30835175 11.14571602 296.3085022 12.04023933 C296.30780276 14.924267 296.30000893 17.80823094 296.29219055 20.69224739 C296.29032648 22.68621981 296.28890253 24.68019269 296.28790283 26.67416573 C296.28407678 31.93329816 296.27424575 37.19240317 296.26319885 42.45152473 C296.2529866 47.81366289 296.24840561 53.17580545 296.24336243 58.53795052 C296.23262356 69.06725947 296.2155461 79.59654803 296.1945343 90.12584114 C257.86593643 90.14870607 219.53733958 90.16633863 181.20873627 90.17690647 C176.68862141 90.17815725 172.16850656 90.17945156 167.64839172 90.18077278 C166.29852262 90.18116625 166.29852262 90.18116625 164.92138343 90.18156766 C150.33033997 90.18592466 135.73930042 90.19381237 121.14825929 90.20299394 C106.18802054 90.21232964 91.22778385 90.21789657 76.2675423 90.21992964 C67.02859773 90.22130504 57.78966423 90.22565654 48.55072307 90.23375761 C42.22412364 90.23902404 35.89752998 90.24064567 29.57092852 90.23934252 C25.915191 90.23869898 22.2594729 90.23971845 18.60373878 90.24504662 C14.64978946 90.25076768 10.69586587 90.24884228 6.74191284 90.24609566 C5.57365025 90.2490085 4.40538765 90.25192134 3.20172316 90.25492245 C2.15123004 90.2529314 1.10073692 90.25094035 0.01841068 90.24888897 C-0.89557615 90.24926869 -1.80956299 90.24964841 -2.75124639 90.25003964 C-4.8054657 90.12584114 -4.8054657 90.12584114 -5.8054657 89.12584114 C-5.90595093 86.39233366 -5.94162831 83.68406222 -5.93486023 80.95005989 C-5.93661255 80.09320595 -5.93836487 79.23635201 -5.94017029 78.35353279 C-5.94458987 75.50678194 -5.94165044 72.66009267 -5.9382782 69.81334114 C-5.93895121 67.84418412 -5.93992121 65.87502718 -5.94117737 63.90587044 C-5.94265449 59.77313129 -5.94049934 55.64041372 -5.93583679 51.50767708 C-5.9301395 46.19759593 -5.93341843 40.88756533 -5.93940926 35.57748604 C-5.9430145 31.50958561 -5.94187645 27.44169725 -5.93928146 23.37379646 C-5.93861209 21.41527996 -5.93944097 19.45676239 -5.94176102 17.49824715 C-5.94428694 14.76600914 -5.94044781 12.03385417 -5.93486023 9.30162239 C-5.93688446 8.48392372 -5.93890869 7.66622505 -5.94099426 6.82374763 C-5.91500906 0.00105482 -5.91500906 0.00105482 0 0 Z " fill="#94B905" transform="translate(108.80546569824219,585.8741588592529)"/>
<path d="M0 0 C2.76492461 1.284183 5.56902226 2.22705146 8.47265625 3.1484375 C8.47265625 3.8084375 8.47265625 4.4684375 8.47265625 5.1484375 C9.02880615 5.29829102 9.58495605 5.44814453 10.15795898 5.60253906 C16.20683694 7.39962779 20.61446652 9.99959308 25.53515625 13.8984375 C26.57820923 14.70522949 26.57820923 14.70522949 27.64233398 15.52832031 C46.37143068 30.11420057 60.31181902 47.72674328 68.47265625 70.1484375 C69.19378569 71.98494709 69.9222349 73.8186104 70.66015625 75.6484375 C70.96308594 76.40125 71.26601563 77.1540625 71.578125 77.9296875 C72.21372043 79.5061862 72.88717532 81.06765172 73.5859375 82.6171875 C74.5292945 85.3101185 74.53957434 87.32077967 74.47265625 90.1484375 C70.01437699 90.2062679 65.55619345 90.24197605 61.09765625 90.2734375 C59.82664062 90.29019531 58.555625 90.30695313 57.24609375 90.32421875 C56.034375 90.33066406 54.82265625 90.33710937 53.57421875 90.34375 C52.45354004 90.35422363 51.33286133 90.36469727 50.17822266 90.37548828 C47.47265625 90.1484375 47.47265625 90.1484375 45.47265625 88.1484375 C44.50442879 85.67829094 43.59881999 83.21323819 42.72265625 80.7109375 C39.33334964 71.38851312 35.7635699 63.08369683 28.47265625 56.1484375 C27.28081571 54.49967887 26.11649919 52.83085012 24.97265625 51.1484375 C20.66938885 44.9151639 16.61945023 41.00854819 9.94921875 37.47265625 C7.3066454 36.05967145 4.73265214 34.5601054 2.16015625 33.0234375 C0.95939453 32.30800781 0.95939453 32.30800781 -0.265625 31.578125 C-2.52734375 30.1484375 -2.52734375 30.1484375 -4.46875 28.59375 C-19.38191882 18.12340377 -47.595441 18.16767237 -64.78515625 20.6875 C-70.64681893 21.83957625 -76.03740996 23.49282089 -81.3984375 26.12890625 C-83.6702094 27.21685573 -85.97042136 28.04604624 -88.33984375 28.8984375 C-107.77369483 36.64184793 -123.28971961 53.76284465 -131.65234375 72.6484375 C-132.08160156 73.68291016 -132.08160156 73.68291016 -132.51953125 74.73828125 C-133.85628674 77.93509574 -135.3193298 81.06773067 -136.77734375 84.2109375 C-137.68484375 86.1703125 -138.59234375 88.1296875 -139.52734375 90.1484375 C-148.43734375 90.1484375 -157.34734375 90.1484375 -166.52734375 90.1484375 C-166.19734375 87.1784375 -165.86734375 84.2084375 -165.52734375 81.1484375 C-164.86734375 81.1484375 -164.20734375 81.1484375 -163.52734375 81.1484375 C-163.27984375 79.8696875 -163.03234375 78.5909375 -162.77734375 77.2734375 C-161.59659126 71.96836645 -159.67968278 67.12621067 -157.52734375 62.1484375 C-157.18316406 61.34921875 -156.83898437 60.55 -156.484375 59.7265625 C-155.51930306 57.52279668 -154.54410147 55.3288609 -153.52734375 53.1484375 C-153.11484375 52.22804687 -152.70234375 51.30765625 -152.27734375 50.359375 C-150.10422848 46.37209653 -147.47049074 43.02030864 -144.58984375 39.5234375 C-144.01210205 38.8212207 -143.43436035 38.11900391 -142.83911133 37.39550781 C-135.09910518 28.10961374 -126.89679316 19.94383856 -117.33984375 12.5234375 C-116.69877686 12.01393555 -116.05770996 11.50443359 -115.3972168 10.97949219 C-111.20592143 7.84043396 -107.63397867 6.38976068 -102.45336914 5.57397461 C-99.52897701 4.9278578 -97.80737847 3.04846644 -95.52734375 1.1484375 C-70.76194105 -14.02880345 -25.5593274 -12.10502082 0 0 Z " fill="#96B609" transform="translate(300.52734375,25.8515625)"/>
<path d="M0 0 C15.51 0 31.02 0 47 0 C47.00586624 5.81445236 47.01173248 11.62890472 47.01777649 17.61955261 C47.07291455 70.89953609 47.14284298 124.17948691 47.22898628 177.45942904 C47.24026503 184.43787762 47.25139673 191.41632644 47.26245117 198.39477539 C47.26410502 199.43644748 47.26410502 199.43644748 47.26579228 200.49916344 C47.30147547 223.01755039 47.32744505 245.53593583 47.34838969 268.05434091 C47.37057126 291.84599584 47.40379489 315.6376097 47.44870156 339.42923337 C47.47525329 353.68609535 47.49292271 367.94291217 47.49934604 382.19979767 C47.50458916 391.96704291 47.52076981 401.73423125 47.54566566 411.50144603 C47.55971759 417.14246048 47.56883772 422.78337299 47.56500816 428.42440605 C47.56161129 433.58435117 47.57188535 438.74407811 47.59323552 443.9039785 C47.59852708 445.77484169 47.5987137 447.64572739 47.59339563 449.5165905 C47.58691977 452.05221787 47.59872815 454.58711702 47.61523914 457.12268353 C47.6058241 458.22201187 47.6058241 458.22201187 47.59621885 459.34354886 C47.64917028 463.73350305 48.28576957 466.52015804 51 470 C51.99 470.66 52.98 471.32 54 472 C54 472.66 54 473.32 54 474 C95.17353182 474.09152362 136.3470504 474.1620225 177.5206636 474.20426132 C182.37982407 474.20926424 187.23898435 474.21444152 192.09814453 474.21972656 C193.06552985 474.2207758 194.03291518 474.22182505 195.02961521 474.22290608 C210.70045307 474.24031888 226.37123233 474.27186139 242.04203542 474.30861118 C258.11761714 474.34599626 274.19316814 474.3682307 290.26879156 474.37635398 C300.19107458 474.3818468 310.11319199 474.39920531 320.03542404 474.43166587 C326.83630252 474.45278372 333.63709519 474.45920624 340.43800409 474.45400551 C344.36382763 474.45143946 348.28936143 474.45541693 352.21513367 474.4768219 C355.80912311 474.49627497 359.40262774 474.49727852 362.99663942 474.48359558 C364.91293003 474.48110294 366.82921488 474.49836624 368.74542296 474.51632524 C375.09914931 474.47195929 379.18425088 474.33949136 384 470 C384.33 470.66 384.66 471.32 385 472 C384.34 472 383.68 472 383 472 C383 472.66 383 473.32 383 474 C382.01 474 381.02 474 380 474 C380 474.66 380 475.32 380 476 C377.42055864 477.28972068 375.58357669 477.12416354 372.69387627 477.12304783 C371.561274 477.12503888 370.42867174 477.12702993 369.26174819 477.12908131 C368.00690663 477.12616847 366.75206506 477.12325563 365.459198 477.12025452 C364.12103636 477.12069024 362.78287481 477.12156517 361.44471371 477.12284368 C357.75511167 477.12508841 354.06553845 477.12106766 350.37594008 477.11606562 C346.40184131 477.11176099 342.42774425 477.11320755 338.4536438 477.1139679 C331.56411222 477.11449312 324.67459009 477.11134645 317.78506088 477.10573006 C307.82386722 477.09761489 297.86267814 477.09499982 287.90148152 477.09374207 C271.74144733 477.09155157 255.58141818 477.08489156 239.42138672 477.07543945 C223.7202151 477.06626527 208.01904485 477.05918446 192.31787109 477.05493164 C191.35060997 477.05466892 190.38334885 477.05440619 189.38677679 477.05413551 C184.53447898 477.0528305 179.68218116 477.05156679 174.82988334 477.05032361 C134.55325205 477.03995108 94.27662631 477.02233283 54 477 C53.67 475.68 53.34 474.36 53 473 C52.360625 472.896875 51.72125 472.79375 51.0625 472.6875 C50.0415625 472.3471875 50.0415625 472.3471875 49 472 C48.505 470.515 48.505 470.515 48 469 C47.01 468.34 46.02 467.68 45 467 C42.03316328 458.20581284 42.72802396 448.77865829 42.75949097 439.60618591 C42.7586183 437.71750886 42.75686618 435.82883205 42.75431263 433.94015652 C42.7498472 428.76134187 42.75783178 423.58261017 42.76786876 418.40380609 C42.77651251 412.81495506 42.77358244 407.22610864 42.77206421 401.63725281 C42.77101595 391.95785351 42.77728645 382.27848118 42.78853989 372.59908867 C42.80479983 358.60434613 42.8100034 344.60961663 42.81251587 330.61486567 C42.81689219 307.90884401 42.83018241 285.20283917 42.84912109 262.49682617 C42.86749607 240.44116287 42.88166031 218.38550341 42.89013672 196.32983398 C42.89039977 195.64972822 42.89066282 194.96962246 42.89093385 194.26890744 C42.89357094 187.43887368 42.89612256 180.60883989 42.89861157 173.77880608 C42.91948619 116.51919351 42.95532921 59.25959859 43 2 C29.47 2 15.94 2 2 2 C2.33 157.1 2.66 312.2 3 472 C2.67 470.68 2.34 469.36 2 468 C1.34 468 0.68 468 0 468 C0 313.56 0 159.12 0 0 Z " fill="#93AF29" transform="translate(37,218)"/>
<path d="M0 0 C14.85 0 29.7 0 45 0 C46.70722229 1.70722229 46.12653098 3.86085512 46.1367898 6.13851181 C46.13502033 6.88282733 46.13325086 7.62714286 46.13142776 8.3940134 C46.1334804 9.18124099 46.13553303 9.96846857 46.13764787 10.77955154 C46.14336035 13.45156544 46.14185542 16.12352849 46.14044189 18.79554749 C46.14302312 20.71699138 46.14603559 22.63843473 46.1494453 24.55987734 C46.15754741 29.86671072 46.15930665 35.17353061 46.16004276 40.48036945 C46.16188782 46.19358173 46.16943245 51.90678691 46.17617798 57.61999512 C46.18978562 70.12627161 46.19579008 82.6325449 46.20018864 95.13882756 C46.20294753 102.94334116 46.20718428 110.7478535 46.21169281 118.55236626 C46.22388972 140.14669391 46.2342229 161.74102005 46.2375679 183.33535099 C46.23778954 184.73265083 46.23801132 186.12995066 46.23823325 187.52725049 C46.2384539 188.92796659 46.23867438 190.32868269 46.2388947 191.72939879 C46.23933726 194.5395699 46.23978437 197.349741 46.24023438 200.15991211 C46.24034377 200.85667469 46.24045316 201.55343727 46.24056586 202.27131386 C46.24419573 224.85907238 46.26011142 247.44679879 46.28342474 270.03454502 C46.30801823 293.90622315 46.32173383 317.77788087 46.32293582 341.64957231 C46.32385346 354.66580901 46.32962785 367.68200369 46.34775543 380.69822884 C46.36313833 391.78309957 46.36828767 402.86791531 46.36001733 413.95279468 C46.35610412 419.61040359 46.35707308 425.2679017 46.37107468 430.92549706 C46.38377361 436.10404084 46.38265132 441.28239013 46.37048396 446.4609335 C46.36851998 448.3351942 46.37163762 450.2094685 46.38032833 452.08371008 C46.39139308 454.63107591 46.38395195 457.17775196 46.3719368 459.72509861 C46.37953199 460.45302597 46.38712718 461.18095334 46.39495254 461.93093911 C46.3487543 466.46703816 45.48912719 470.02203991 43.71031277 474.19911763 C42.70856456 476.73888711 42.33724496 479.30204034 42 482 C41.34 482 40.68 482 40 482 C39.8046875 475.9453125 39.8046875 475.9453125 40 474 C40.66 473.34 41.32 472.68 42 472 C43.13338708 467.98890923 43.1253026 464.09386147 43.12584114 459.94494343 C43.12729458 459.24291189 43.12874802 458.54088035 43.13024551 457.81757513 C43.13390209 455.45927904 43.13042056 453.10104772 43.12698364 450.74275208 C43.12813563 449.03692472 43.12972368 447.33109761 43.13171089 445.62527102 C43.13589435 440.93230075 43.13381783 436.23935076 43.13072467 431.5463804 C43.12846645 426.48593594 43.13195254 421.42549503 43.13470459 416.36505127 C43.13915875 406.44352897 43.13818679 396.52201422 43.13529195 386.60049162 C43.13303387 378.52636662 43.13272717 370.45224374 43.13381577 362.37811852 C43.13404561 360.65440643 43.13404561 360.65440643 43.13428011 358.89587187 C43.13459984 356.56115956 43.13492406 354.22644724 43.1352527 351.89173492 C43.13810714 329.9743516 43.13482242 308.05697245 43.12945233 286.13958981 C43.12499682 267.37585399 43.12574992 248.61212437 43.13037109 229.84838867 C43.1357391 208.04215524 43.1378193 186.23592549 43.13475883 164.42969149 C43.1344403 162.09713185 43.13412593 159.7645722 43.13381577 157.43201256 C43.13366149 156.28451203 43.13350721 155.1370115 43.13334826 153.95473823 C43.13248884 145.91077625 43.13393383 137.86681662 43.13629532 129.822855 C43.13911883 119.98878934 43.1383023 110.15473165 43.13301457 100.32066689 C43.13040975 95.31297277 43.12931681 90.30529187 43.13266373 85.29759789 C43.136052 79.83969006 43.1345105 74.38180831 43.12698364 68.92390442 C43.12588114 68.082665 43.12477863 67.24142558 43.12364271 66.37469406 C43.10017069 54.64534019 42.86620605 42.94946023 42.26125062 31.23389512 C42.21349767 30.2783883 42.16574473 29.32288149 42.11654472 28.33841991 C42.07023694 27.51631848 42.02392915 26.69421704 41.9762181 25.84720343 C42 24 42 24 43 23 C43.15686249 21.44051458 43.25076639 19.87457332 43.31640625 18.30859375 C43.35451416 17.45837646 43.39262207 16.60815918 43.43188477 15.73217773 C43.47498779 14.64493408 43.51809082 13.55769043 43.5625 12.4375 C43.706875 8.993125 43.85125 5.54875 44 2 C30.14 2 16.28 2 2 2 C2 155.12 2 308.24 2 466 C1.34 466.33 0.68 466.66 0 467 C0 312.89 0 158.78 0 0 Z " fill="#9CB13A" transform="translate(425,218)"/>
<path d="M0 0 C1.04639302 -0.00260775 2.09278605 -0.00521549 3.17088795 -0.00790226 C4.33457747 -0.00567154 5.498267 -0.00344082 6.69721985 -0.0011425 C7.92243442 -0.00270249 9.14764898 -0.00426248 10.40999126 -0.00586975 C13.82629268 -0.00918314 17.24253962 -0.00797048 20.6588378 -0.00488353 C24.33713061 -0.00263136 28.01541848 -0.00610812 31.69371033 -0.00886345 C38.90559982 -0.01332212 46.11747893 -0.01234425 53.32936883 -0.00945081 C59.18793845 -0.00719715 65.04650515 -0.00688409 70.90507507 -0.00797462 C71.73725923 -0.00812786 72.56944339 -0.00828109 73.42684525 -0.00843897 C75.11713799 -0.00875868 76.80743073 -0.00908289 78.49772346 -0.00941156 C94.36685202 -0.01226663 110.23597481 -0.0089789 126.10510242 -0.00361119 C139.73680396 0.00085687 153.36849698 0.00008095 167.00019836 -0.00452995 C182.81054353 -0.00987523 198.62088364 -0.01199194 214.43122959 -0.00891769 C216.11548424 -0.00859912 217.79973888 -0.00828475 219.48399353 -0.00797462 C220.31279091 -0.00782035 221.14158829 -0.00766607 221.99550074 -0.00750712 C227.85053261 -0.00664183 233.70556128 -0.00810511 239.56059265 -0.01045418 C246.69089369 -0.01325186 253.82118372 -0.01251459 260.95148349 -0.00717343 C264.59304966 -0.00453599 268.23459743 -0.00353208 271.87616348 -0.00682259 C275.81473576 -0.01032778 279.75327757 -0.00615724 283.69184875 -0.0011425 C284.85553828 -0.00337322 286.01922781 -0.00560395 287.21818066 -0.00790226 C288.78777019 -0.00399064 288.78777019 -0.00399064 290.3890686 0 C291.7546791 0.00024353 291.7546791 0.00024353 293.14787769 0.00049198 C295.1945343 0.12584114 295.1945343 0.12584114 296.1945343 1.12584114 C296.28971233 3.89523081 296.32007695 6.63961273 296.30805969 9.40928841 C296.30820572 10.27750221 296.30835175 11.14571602 296.3085022 12.04023933 C296.30780276 14.924267 296.30000893 17.80823094 296.29219055 20.69224739 C296.29032648 22.68621981 296.28890253 24.68019269 296.28790283 26.67416573 C296.28407678 31.93329816 296.27424575 37.19240317 296.26319885 42.45152473 C296.2529866 47.81366289 296.24840561 53.17580545 296.24336243 58.53795052 C296.23262356 69.06725947 296.2155461 79.59654803 296.1945343 90.12584114 C257.86593643 90.14870607 219.53733958 90.16633863 181.20873627 90.17690647 C176.68862141 90.17815725 172.16850656 90.17945156 167.64839172 90.18077278 C166.29852262 90.18116625 166.29852262 90.18116625 164.92138343 90.18156766 C150.33033997 90.18592466 135.73930042 90.19381237 121.14825929 90.20299394 C106.18802054 90.21232964 91.22778385 90.21789657 76.2675423 90.21992964 C67.02859773 90.22130504 57.78966423 90.22565654 48.55072307 90.23375761 C42.22412364 90.23902404 35.89752998 90.24064567 29.57092852 90.23934252 C25.915191 90.23869898 22.2594729 90.23971845 18.60373878 90.24504662 C14.64978946 90.25076768 10.69586587 90.24884228 6.74191284 90.24609566 C5.57365025 90.2490085 4.40538765 90.25192134 3.20172316 90.25492245 C2.15123004 90.2529314 1.10073692 90.25094035 0.01841068 90.24888897 C-0.89557615 90.24926869 -1.80956299 90.24964841 -2.75124639 90.25003964 C-4.8054657 90.12584114 -4.8054657 90.12584114 -5.8054657 89.12584114 C-5.90595093 86.39233366 -5.94162831 83.68406222 -5.93486023 80.95005989 C-5.93661255 80.09320595 -5.93836487 79.23635201 -5.94017029 78.35353279 C-5.94458987 75.50678194 -5.94165044 72.66009267 -5.9382782 69.81334114 C-5.93895121 67.84418412 -5.93992121 65.87502718 -5.94117737 63.90587044 C-5.94265449 59.77313129 -5.94049934 55.64041372 -5.93583679 51.50767708 C-5.9301395 46.19759593 -5.93341843 40.88756533 -5.93940926 35.57748604 C-5.9430145 31.50958561 -5.94187645 27.44169725 -5.93928146 23.37379646 C-5.93861209 21.41527996 -5.93944097 19.45676239 -5.94176102 17.49824715 C-5.94428694 14.76600914 -5.94044781 12.03385417 -5.93486023 9.30162239 C-5.93688446 8.48392372 -5.93890869 7.66622505 -5.94099426 6.82374763 C-5.91500906 0.00105482 -5.91500906 0.00105482 0 0 Z M-1.8054657 4.12584114 C-8.59838781 31.2975296 -3.45539385 60.12009362 -3.8054657 88.12584114 C94.5345343 88.12584114 192.8745343 88.12584114 294.1945343 88.12584114 C294.1945343 60.07584114 294.1945343 32.02584114 294.1945343 3.12584114 C257.64121006 3.10379409 221.08789209 3.08533053 184.53456309 3.07477581 C180.21874619 3.07352511 175.90292931 3.07223079 171.58711243 3.0709095 C170.72791386 3.07064719 169.86871529 3.07038488 168.98348039 3.07011462 C155.07291779 3.06576375 141.16235932 3.0578794 127.25179917 3.04868834 C112.97744415 3.03933561 98.7030913 3.03378209 84.42873335 3.03175265 C75.62127683 3.03038079 66.81383199 3.02604842 58.00637907 3.01792467 C51.96613323 3.01263725 45.92589343 3.0110414 39.88564545 3.01233976 C36.40118787 3.01298001 32.9167507 3.01200099 29.43229675 3.00663567 C25.65156958 3.00166401 21.8708925 3.00285575 18.09016418 3.00558662 C16.99287381 3.00267378 15.89558343 2.99976094 14.76504183 2.99675983 C9.14479469 3.00773979 3.75345122 3.28516597 -1.8054657 4.12584114 Z " fill="#A4BB45" transform="translate(108.80546569824219,585.8741588592529)"/>
<path d="M0 0 C15.51 0 31.02 0 47 0 C47 153.12 47 306.24 47 464 C46.67 464 46.34 464 46 464 C46 311.21 46 158.42 46 1 C31.81 1.33 17.62 1.66 3 2 C3 157.1 3 312.2 3 472 C2.67 470.68 2.34 469.36 2 468 C1.34 468 0.68 468 0 468 C0 313.56 0 159.12 0 0 Z " fill="#BBC975" transform="translate(37,218)"/>
<path d="M0 0 C38.58338606 -0.02286491 77.16677111 -0.04049748 115.75016257 -0.05106533 C120.30031998 -0.05231611 124.85047738 -0.05361042 129.40063477 -0.05493164 C130.75947571 -0.05532511 130.75947571 -0.05532511 132.14576799 -0.05572652 C146.83380934 -0.06008353 161.52184679 -0.06797124 176.20988583 -0.0771528 C191.26956567 -0.08648849 206.32924347 -0.09205543 221.38892609 -0.09408849 C230.68928956 -0.0954639 239.98964203 -0.09981542 249.29000212 -0.10791647 C255.6586511 -0.11318288 262.02729436 -0.11480453 268.39594536 -0.11350138 C272.07598603 -0.11285783 275.75600741 -0.11387734 279.43604469 -0.11920547 C283.41626833 -0.12492649 287.3964664 -0.12300115 291.37669373 -0.12025452 C292.55273822 -0.12316736 293.72878271 -0.1260802 294.94046491 -0.12908131 C296.52665478 -0.12609474 296.52665478 -0.12609474 298.14488888 -0.12304783 C299.06495124 -0.12342755 299.9850136 -0.12380727 300.93295664 -0.1241985 C303 0 303 0 304 1 C304.09519368 3.7998972 304.12553944 6.57506174 304.11352539 9.37524414 C304.11367142 10.25321152 304.11381744 11.13117889 304.1139679 12.03575134 C304.11326844 14.95224435 304.10547455 17.86867433 304.09765625 20.78515625 C304.09579218 22.80154892 304.09436823 24.81794204 304.09336853 26.83433533 C304.08954244 32.15265138 304.07971139 37.4709403 304.06866455 42.78924561 C304.05845238 48.21170688 304.05387133 53.63417252 304.04882812 59.05664062 C304.0380892 69.70443903 304.02101169 80.35221726 304 91 C300.82524249 92.86251898 298.5058123 93.25036939 294.8438015 93.25168228 C293.79553542 93.25689778 292.74726935 93.26211327 291.66723764 93.26748681 C290.5168597 93.26302537 289.36648177 93.25856392 288.1812439 93.25396729 C286.34676081 93.25864726 286.34676081 93.25864726 284.47521746 93.26342177 C281.07896756 93.27002752 277.68293827 93.2676383 274.28670168 93.26144934 C270.6247967 93.25693163 266.96291125 93.26390515 263.30101013 93.26940918 C256.12728671 93.27831158 248.9536051 93.27637756 241.77988003 93.2705839 C235.9518992 93.26607145 230.1239301 93.26545269 224.29594803 93.26763153 C223.05287762 93.26809123 223.05287762 93.26809123 221.78469468 93.26856022 C220.10132927 93.26919965 218.41796387 93.26984807 216.73459847 93.2705054 C200.94315315 93.27621099 185.15173104 93.26964684 169.36028953 93.25890467 C155.7994262 93.24996564 142.23859709 93.25152364 128.67773438 93.26074219 C112.94060026 93.27143508 97.20348648 93.27566513 81.46634924 93.26951766 C79.78970631 93.26888054 78.11306338 93.2682518 76.43642044 93.26763153 C75.19890905 93.2671687 75.19890905 93.2671687 73.93639743 93.26669653 C68.11185333 93.26496689 62.2873221 93.2678904 56.46278 93.27259064 C49.36989767 93.27818845 42.27705962 93.27670616 35.18418239 93.26602915 C31.56270549 93.26075805 27.94130255 93.25874004 24.31982613 93.26532745 C20.40143815 93.2723474 16.48317239 93.26398909 12.56478882 93.25396729 C11.40994944 93.25842873 10.25511006 93.26289017 9.06527555 93.26748681 C8.02222497 93.26227132 6.97917439 93.25705582 5.90451622 93.25168228 C4.99915292 93.25135758 4.09378962 93.25103287 3.16099107 93.25069833 C1 93 1 93 -1 91 C-1.193426 88.17898625 -1.26221324 85.45651682 -1.24291992 82.63476562 C-1.24481827 81.76961838 -1.24671661 80.90447113 -1.24867249 80.0131073 C-1.25238699 77.14406363 -1.24166645 74.2752713 -1.23046875 71.40625 C-1.22927721 69.41849802 -1.22882373 67.43074548 -1.2290802 65.44299316 C-1.22751416 61.27332036 -1.21921537 57.10373327 -1.20581055 52.93408203 C-1.18882055 47.58040304 -1.18499615 42.22681833 -1.18575573 36.87311554 C-1.18548422 32.7674265 -1.18000612 28.6617582 -1.17275429 24.55607605 C-1.16956465 22.58164121 -1.16759953 20.607204 -1.16686058 18.63276672 C-1.16470014 15.87688159 -1.15596229 13.12109784 -1.14526367 10.36523438 C-1.14571686 9.54335129 -1.14617004 8.7214682 -1.14663696 7.87467957 C-1.11447678 2.22895356 -1.11447678 2.22895356 0 0 Z M1 2 C0.89951477 4.73350748 0.86383739 7.44177892 0.87060547 10.17578125 C0.86885315 11.03263519 0.86710083 11.88948914 0.86529541 12.77230835 C0.86087583 15.6190592 0.86381525 18.46574847 0.8671875 21.3125 C0.86651449 23.28165702 0.86554449 25.25081397 0.86428833 27.2199707 C0.86281121 31.35270985 0.86496636 35.48542742 0.86962891 39.61816406 C0.8753262 44.92824521 0.87204727 50.23827581 0.86605644 55.5483551 C0.8624512 59.61625553 0.86358924 63.68414389 0.86618423 67.75204468 C0.86685361 69.71056118 0.86602473 71.66907876 0.86370468 73.62759399 C0.86117876 76.359832 0.86501789 79.09198697 0.87060547 81.82421875 C0.86858124 82.64191742 0.86655701 83.45961609 0.86447144 84.30209351 C0.53246359 87.95057616 0.53246359 87.95057616 2 91 C3.60555001 91.09707186 5.21539469 91.12371608 6.82387638 91.12304783 C7.8743695 91.12503888 8.92486261 91.12702993 10.00718886 91.12908131 C11.17545145 91.12616847 12.34371405 91.12325563 13.54737854 91.12025452 C14.77738223 91.12110894 16.00738591 91.12196337 17.27466244 91.12284368 C20.70429785 91.12421193 24.1338769 91.12106424 27.56350553 91.11606562 C31.25609234 91.11176459 34.94867726 91.1132073 38.64126587 91.1139679 C45.04408243 91.11449335 51.44688883 91.11134429 57.84970284 91.10573006 C67.10720347 91.09761798 76.36469918 91.09500014 85.62220298 91.09374207 C100.64030933 91.09155108 115.65841027 91.08488975 130.67651367 91.07543945 C145.26896131 91.06626653 159.86140748 91.05918511 174.45385742 91.05493164 C175.80209184 91.05453756 175.80209184 91.05453756 177.17756332 91.05413551 C181.68649812 91.05283051 186.19543294 91.05156679 190.70436776 91.05032361 C228.136249 91.03994956 265.56812408 91.02232999 303 91 C303.02312228 79.41311598 303.0409145 67.82623741 303.05181217 56.23933506 C303.05704125 50.85966238 303.06413935 45.48000542 303.07543945 40.1003418 C303.08626745 34.91325157 303.09227665 29.72617651 303.09487724 24.53907585 C303.09673165 22.5554372 303.10035256 20.57179942 303.10573006 18.58816719 C303.11293932 15.81990864 303.11399099 13.05171362 303.11352539 10.28344727 C303.11712067 9.45482681 303.12071594 8.62620636 303.12442017 7.7724762 C303.47118179 4.08497372 303.47118179 4.08497372 302 1 C300.40062582 0.90204502 298.79690532 0.87444461 297.1945343 0.87415886 C295.62494477 0.87024724 295.62494477 0.87024724 294.02364635 0.86625659 C292.27811206 0.86960268 292.27811206 0.86960268 290.49731445 0.87301636 C289.27209989 0.87145637 288.04688532 0.86989638 286.78454304 0.86828911 C283.36824162 0.86497572 279.95199469 0.86618837 276.53569651 0.86927533 C272.85740369 0.87152749 269.17911582 0.86805074 265.50082397 0.86529541 C258.28893449 0.86083674 251.07705538 0.86181461 243.86516547 0.86470805 C238.00659585 0.86696171 232.14802915 0.86727477 226.28945923 0.86618423 C225.04118299 0.86595439 225.04118299 0.86595439 223.76768905 0.86571989 C222.07739631 0.86540018 220.38710358 0.86507597 218.69681084 0.8647473 C202.82768228 0.86189223 186.95855949 0.86517996 171.08943188 0.87054767 C157.45773034 0.87501573 143.82603732 0.87423981 130.19433594 0.86962891 C114.38399077 0.86428363 98.57365066 0.86216692 82.76330471 0.86524117 C81.07905006 0.86555974 79.39479542 0.86587411 77.71054077 0.86618423 C76.88174339 0.86633851 76.05294601 0.86649279 75.19903356 0.86665174 C69.34400169 0.86751703 63.48897302 0.86605375 57.63394165 0.86370468 C50.50364061 0.860907 43.37335058 0.86164427 36.24305081 0.86698543 C32.60148464 0.86962287 28.95993687 0.87062678 25.31837082 0.86733627 C21.37979854 0.86383108 17.44125673 0.86800162 13.50268555 0.87301636 C12.33899602 0.87078564 11.17530649 0.86855491 9.97635365 0.86625659 C8.92996062 0.86886434 7.8835676 0.87147209 6.8054657 0.87415886 C5.8950587 0.87432121 4.9846517 0.87448356 4.04665661 0.87465084 C2.00639131 0.77275603 2.00639131 0.77275603 1 2 Z " fill="#EFF5D2" transform="translate(102,585)"/>
<path d="M0 0 C2.55636103 1.27818051 2.62626316 2.17044944 3.5625 4.8125 C3.81128906 5.49957031 4.06007813 6.18664062 4.31640625 6.89453125 C4.54199219 7.58933594 4.76757812 8.28414062 5 9 C5.17635986 9.53818359 5.35271973 10.07636719 5.53442383 10.63085938 C6.21227088 14.08016605 6.14236564 17.51087248 6.1328125 21.01171875 C6.13424759 22.16496391 6.13424759 22.16496391 6.13571167 23.34150696 C6.13639056 24.96115196 6.13455663 26.58079972 6.13037109 28.20043945 C6.1249967 30.68902622 6.13033714 33.1774343 6.13671875 35.66601562 C6.13605835 37.23958373 6.13477797 38.81315173 6.1328125 40.38671875 C6.13483673 41.13459152 6.13686096 41.88246429 6.13894653 42.65299988 C6.11496623 47.88503377 6.11496623 47.88503377 5 49 C2.47727839 49.09884129 -0.01806919 49.13177608 -2.54129887 49.12304783 C-3.34443021 49.12420167 -4.14756156 49.12535552 -4.97503021 49.12654433 C-7.70107077 49.1292184 -10.42705379 49.12468237 -13.15309143 49.12025452 C-15.1132348 49.12069006 -17.07337811 49.12156465 -19.03352112 49.12284368 C-24.44701669 49.12509202 -29.86049267 49.12106276 -35.27398574 49.11606562 C-41.1015618 49.11176613 -46.92913667 49.11320719 -52.75671387 49.1139679 C-62.86240973 49.11449345 -72.96809916 49.11134337 -83.07379341 49.10573006 C-97.68511529 49.09761931 -112.29643467 49.09499693 -126.90775847 49.09374207 C-150.61095205 49.09163987 -174.31414229 49.08489754 -198.01733398 49.07543945 C-221.04923484 49.06625981 -244.08113479 49.05917385 -267.11303711 49.05493164 C-267.82258214 49.05480011 -268.53212717 49.05466859 -269.26317357 49.05453308 C-276.38850891 49.05321459 -283.51384425 49.05193877 -290.6391796 49.05069422 C-305.15519998 49.04815779 -319.67122031 49.04533653 -334.1872406 49.04234314 C-334.85471055 49.04220585 -335.5221805 49.04206856 -336.20987681 49.04192711 C-380.80658594 49.03272148 -425.40329319 49.01685496 -470 49 C-470.02501826 44.64412803 -470.04300806 40.28829593 -470.05493164 35.93237305 C-470.05991084 34.4554776 -470.06669663 32.97858695 -470.07543945 31.50170898 C-470.12472428 22.95224188 -470.01214531 14.50453103 -469 6 C-468.01 6 -467.02 6 -466 6 C-465.34 4.68 -464.68 3.36 -464 2 C-464.52305433 6.40860079 -465.12748816 10.63744078 -466 15 C-466 25.23 -466 35.46 -466 46 C-310.9 46.33 -155.8 46.66 4 47 C4.85419488 15.11376622 4.85419488 15.11376622 0 2 C0 1.34 0 0.68 0 0 Z " fill="#99AE2D" transform="translate(486,146)"/>
<path d="M0 0 C0.92133224 -0.0033284 1.84266449 -0.0066568 2.79191589 -0.01008606 C4.74644469 -0.01516034 6.7009822 -0.01749423 8.65551758 -0.01733398 C11.64484007 -0.01951438 14.63379006 -0.0376479 17.62304688 -0.05664062 C19.51952998 -0.05957566 21.41601485 -0.06155972 23.3125 -0.0625 C24.20741653 -0.06968552 25.10233307 -0.07687103 26.02436829 -0.08427429 C26.86171005 -0.08119766 27.69905182 -0.07812103 28.56176758 -0.07495117 C29.29599442 -0.07637619 30.03022125 -0.07780121 30.78669739 -0.07926941 C32.85546875 0.16796875 32.85546875 0.16796875 36.85546875 2.16796875 C22.00546875 2.16796875 7.15546875 2.16796875 -8.14453125 2.16796875 C-8.14453125 156.27796875 -8.14453125 310.38796875 -8.14453125 469.16796875 C-8.80453125 469.16796875 -9.46453125 469.16796875 -10.14453125 469.16796875 C-10.16164104 424.56440826 -10.1775462 379.96084742 -10.18687439 335.35728455 C-10.18701245 334.69766543 -10.1871505 334.03804632 -10.18729274 333.35843875 C-10.1902853 319.02486974 -10.19305553 304.69130069 -10.19559658 290.35773158 C-10.19684397 283.32906389 -10.19814052 276.3003962 -10.19946289 269.27172852 C-10.19959365 268.57227289 -10.19972441 267.87281727 -10.19985913 267.15216603 C-10.20412429 244.46030766 -10.21163844 221.76845178 -10.22082847 199.07659492 C-10.23051817 175.10755679 -10.23652485 151.13852029 -10.23861974 127.16948026 C-10.23999532 112.8020567 -10.24434775 98.43464026 -10.25244772 84.06721889 C-10.25771314 74.22948107 -10.25933601 64.39174696 -10.25803263 54.55400784 C-10.25738893 48.86895601 -10.25841035 43.18391667 -10.26373672 37.49886703 C-10.26856914 32.30343735 -10.26887095 27.10802867 -10.26543014 21.91259807 C-10.26500429 20.02430162 -10.26630136 18.13600392 -10.26941443 16.24771 C-10.2733758 13.69842895 -10.27129628 11.14922565 -10.26757908 8.59994602 C-10.27020609 7.85173937 -10.27283311 7.10353272 -10.27553973 6.33265314 C-10.24921616 -1.55151563 -6.93330618 0.00856342 0 0 Z " fill="#EBF1C6" transform="translate(433.14453125,215.83203125)"/>
<path d="M0 0 C0.99 0.33 1.98 0.66 3 1 C3.04575 60.13611672 3.08100929 119.27223302 3.10213066 178.40836371 C3.10462537 185.38552375 3.10721847 192.36268376 3.10986328 199.33984375 C3.1101248 200.03416105 3.11038632 200.72847835 3.11065576 201.44383556 C3.11918093 223.95524364 3.13420539 246.46664169 3.15259444 268.97804368 C3.17198918 292.76374404 3.18399058 316.54943663 3.18817699 340.33514488 C3.19092501 354.58740287 3.1996131 368.83963207 3.21583293 383.0918812 C3.22638219 392.8572389 3.2296053 402.62258166 3.22700275 412.38794465 C3.22571825 418.02704973 3.22772568 423.6661044 3.23841095 429.30520058 C3.248116 434.46452048 3.24865279 439.62375589 3.24179779 444.78307961 C3.24095007 446.65262387 3.24351033 448.52217333 3.24976636 450.39170732 C3.25776153 452.92778753 3.25348499 455.46356045 3.24609566 457.9996357 C3.25134968 458.72989424 3.25660371 459.46015279 3.26201695 460.21254039 C3.22719268 465.48138983 2.84314433 470.15685567 -1 474 C-0.83753786 473.17597384 -0.67507572 472.35194768 -0.50769049 471.50295103 C0.05359937 467.63017629 0.13699307 463.85483752 0.12304783 459.95278358 C0.1247786 458.75716066 0.1247786 458.75716066 0.12654433 457.53738374 C0.12919471 454.86202916 0.12470181 452.18673456 0.12025452 449.51138306 C0.12069054 447.57579801 0.12156602 445.64021302 0.12284368 443.70462835 C0.12508251 438.38224038 0.12107569 433.05987249 0.11606562 427.73748708 C0.11175256 421.99929762 0.11320816 416.26110932 0.1139679 410.5229187 C0.11449259 400.57991899 0.1113515 390.63692583 0.10573006 380.69392776 C0.09760765 366.31796932 0.09499907 351.94201405 0.09374207 337.56605355 C0.09155272 314.24276437 0.08490437 290.91947869 0.07543945 267.59619141 C0.06625505 244.93798847 0.05917142 222.27978646 0.05493164 199.62158203 C0.05480011 198.92315302 0.05466859 198.22472401 0.05453308 197.50513049 C0.05321456 190.49121705 0.05193874 183.4773036 0.05069422 176.46339015 C0.04025319 117.6422578 0.02260696 58.82112892 0 0 Z " fill="#F2F6D4" transform="translate(470,218)"/>
<path d="M0 0 C1.07739437 -0.00692307 1.07739437 -0.00692307 2.17655429 -0.01398599 C4.59015977 -0.02459762 7.00270388 -0.00661104 9.416255 0.01117325 C11.16123857 0.00942933 12.90622113 0.00592771 14.65119809 0.00081658 C19.45149922 -0.0081424 24.25144446 0.00789293 29.05170023 0.02792883 C34.22616648 0.04517614 39.40061209 0.03935905 44.57509899 0.03631973 C53.5419679 0.03422065 62.50872053 0.04678822 71.47556019 0.06927109 C84.4401428 0.1017565 97.40466909 0.11219457 110.36928799 0.11722305 C131.40265031 0.12598113 152.43595064 0.15261065 173.46927929 0.1904335 C193.9031954 0.2271403 214.33709468 0.25545859 234.7710371 0.27246475 C236.03023562 0.27351565 237.28943413 0.27456654 238.58679018 0.27564928 C244.90371497 0.28086937 251.22063988 0.28592421 257.53756487 0.29089689 C309.95649625 0.3323749 362.37536034 0.40283731 414.79423046 0.49219131 C414.79423046 1.15219131 414.79423046 1.81219131 414.79423046 2.49219131 C415.50966015 2.59402725 416.22508984 2.69586319 416.96219921 2.80078506 C420.13964085 3.57651909 422.34184881 4.82203215 425.10673046 6.55469131 C425.98973827 7.10254288 426.87274609 7.65039444 427.78251171 8.21484756 C428.77831249 8.84713272 428.77831249 8.84713272 429.79423046 9.49219131 C429.13423046 9.82219131 428.47423046 10.15219131 427.79423046 10.49219131 C425.16923046 9.55469131 425.16923046 9.55469131 422.79423046 8.49219131 C422.79423046 7.83219131 422.79423046 7.17219131 422.79423046 6.49219131 C421.90735546 6.36844131 421.02048046 6.24469131 420.10673046 6.11719131 C416.79423046 5.49219131 416.79423046 5.49219131 414.53260797 4.46868438 C411.11580235 3.25026691 408.29596983 3.24267871 404.66769028 3.24330235 C403.95797843 3.24069506 403.24826659 3.23808778 402.51704833 3.23540148 C400.1327542 3.22909225 397.74872252 3.23707033 395.36443615 3.24495316 C393.64022948 3.24336522 391.91602344 3.24090178 390.19181913 3.23763674 C385.44881148 3.23121381 380.70588899 3.23729873 375.96288693 3.24540102 C370.84965338 3.25197109 365.73642945 3.24703104 360.62319469 3.24351883 C350.60409886 3.23847297 340.585036 3.24412342 330.56594426 3.25336913 C318.90337821 3.26374516 307.24081931 3.26368315 295.57824951 3.26319655 C274.77141132 3.2626957 253.96458849 3.27186331 233.15775585 3.28638077 C212.95885978 3.3004668 192.75997722 3.30755163 172.56107616 3.30688858 C171.31721805 3.30684862 170.07335993 3.30680867 168.79180915 3.3067675 C167.55012158 3.30672715 166.30843401 3.30668679 165.02911955 3.30664521 C142.04831107 3.30595555 119.06750835 3.31184464 96.08670174 3.32079843 C87.95369439 3.32381655 79.82068809 3.3248782 71.68768024 3.32533073 C61.77801556 3.32601253 51.86836058 3.33047238 41.95870001 3.33966354 C36.90082804 3.34428411 31.84296848 3.34732608 26.78509426 3.34606934 C22.15706106 3.34497515 17.52905532 3.34848755 12.90102785 3.35571786 C11.22477037 3.3575326 9.54851006 3.35766011 7.87225247 3.35595057 C5.59700626 3.35388671 3.32185015 3.35794835 1.04661179 3.36355686 C-0.85058236 3.3646135 -0.85058236 3.3646135 -2.78610367 3.36569148 C-6.01559473 3.48515639 -9.03634868 3.87994277 -12.20576954 4.49219131 C-8.14933218 0.59487613 -5.57006627 -0.00660939 0 0 Z " fill="#ABBE51" transform="translate(50.205769538879395,128.50780868530273)"/>
<path d="M0 0 C1.98 0.495 1.98 0.495 4 1 C-6.9152783 6.45763915 -18.84487466 7.44755176 -30.87187195 7.38095093 C-32.20842948 7.38441805 -33.54498415 7.38918962 -34.88153297 7.39513266 C-38.51145351 7.40752732 -42.14113405 7.40152575 -45.77105486 7.39217401 C-49.70222358 7.38533613 -53.63335339 7.39588789 -57.56451416 7.40411377 C-65.24790848 7.41740203 -72.93121451 7.41459569 -80.61461218 7.40587585 C-86.86133074 7.39908177 -93.10802467 7.39819 -99.35474586 7.4014473 C-100.24611473 7.401907 -101.1374836 7.40236669 -102.05586365 7.40284032 C-103.86701014 7.40379956 -105.67815662 7.4047722 -107.48930309 7.4057581 C-124.4418328 7.41429722 -141.39431371 7.40450033 -158.34683541 7.388357 C-172.87748824 7.37494823 -187.40806917 7.37728938 -201.9387207 7.39111328 C-218.83808141 7.40718329 -235.73739946 7.41348067 -252.63676673 7.40427649 C-254.44007829 7.4033209 -256.24338986 7.40237778 -258.04670143 7.4014473 C-259.37739636 7.40075306 -259.37739636 7.40075306 -260.73497402 7.40004479 C-266.97219313 7.39745968 -273.20938506 7.4018154 -279.44659996 7.40888596 C-287.05027185 7.41731665 -294.65385087 7.4149876 -302.25751217 7.39904372 C-306.13335916 7.39118315 -310.00905154 7.38803152 -313.88489723 7.39799118 C-318.09309124 7.40864107 -322.30089803 7.39588763 -326.50907898 7.38095093 C-327.72426435 7.38764309 -328.93944971 7.39433526 -330.19145888 7.40123022 C-337.57098914 7.35051727 -343.99237112 6.33177969 -351 4 C-351 3.67 -351 3.34 -351 3 C-348.36 3 -345.72 3 -343 3 C-343 3.66 -343 4.32 -343 5 C-302.66764679 4.91811533 -262.3353292 4.82589809 -222.00303171 4.71994839 C-217.23444321 4.70743049 -212.46585449 4.69499756 -207.69726562 4.68261719 C-206.7479811 4.68015119 -205.79869658 4.6776852 -204.82064585 4.67514448 C-189.47804845 4.63549075 -174.13544375 4.60271083 -158.79282518 4.57250018 C-143.0335635 4.54131504 -127.27433261 4.50267579 -111.51510561 4.45720994 C-101.80175618 4.42941877 -92.08842911 4.40734543 -82.37505077 4.39273749 C-75.70162888 4.38214266 -69.02825044 4.36426526 -62.35486139 4.34083296 C-58.5127138 4.32755172 -54.67062673 4.31731616 -50.82845497 4.31578636 C-30.07183623 4.33747582 -30.07183623 4.33747582 -9.4221096 2.42629051 C-6.23701757 2.02952516 -3.2050108 1.92259942 0 2 C0 1.34 0 0.68 0 0 Z " fill="#B6BD5F" transform="translate(430,736)"/>
<path d="M0 0 C-0.33 0.66 -0.66 1.32 -1 2 C-41.98684776 2.04573592 -82.97369221 2.08099807 -123.96056037 2.10213066 C-128.79483326 2.1046322 -133.6291061 2.10722083 -138.46337891 2.10986328 C-139.90705891 2.11065021 -139.90705891 2.11065021 -141.37990417 2.11145304 C-156.98228917 2.1201656 -172.5846595 2.13594023 -188.18703578 2.15430559 C-204.18576009 2.17298101 -220.18447669 2.18411172 -236.18321145 2.18817699 C-246.06245872 2.19092696 -255.94166451 2.19962547 -265.82089902 2.21583293 C-272.58716067 2.22637074 -279.35340075 2.22960793 -286.11967002 2.22700275 C-290.02871063 2.22571644 -293.93767856 2.22774589 -297.84670639 2.23841095 C-302.07622774 2.24986673 -306.30559253 2.2459986 -310.53512573 2.24050903 C-311.7821854 2.24633472 -313.02924507 2.2521604 -314.31409442 2.25816262 C-315.4397299 2.25418052 -316.56536537 2.25019842 -317.72511101 2.24609566 C-318.70251114 2.2468551 -319.67991127 2.24761454 -320.68692958 2.24839699 C-323 2 -323 2 -325 0 C-236.82228596 -1.49333709 -148.66639081 -0.98719606 0 0 Z " fill="#ECF4D6" transform="translate(416,691)"/>
<path d="M0 0 C1.33333333 1.33333333 2.66666667 2.66666667 4 4 C5.11375 5.051875 5.11375 5.051875 6.25 6.125 C8 8 8 8 8 10 C49.17353182 10.09152362 90.3470504 10.1620225 131.5206636 10.20426132 C136.37982407 10.20926424 141.23898435 10.21444152 146.09814453 10.21972656 C147.54922252 10.22130043 147.54922252 10.22130043 149.02961521 10.22290608 C164.70045307 10.24031888 180.37123233 10.27186139 196.04203542 10.30861118 C212.11761714 10.34599626 228.19316814 10.3682307 244.26879156 10.37635398 C254.19107458 10.3818468 264.11319199 10.39920531 274.03542404 10.43166587 C280.83630252 10.45278372 287.63709519 10.45920624 294.43800409 10.45400551 C298.36382763 10.45143946 302.28936143 10.45541693 306.21513367 10.4768219 C309.80912311 10.49627497 313.40262774 10.49727852 316.99663942 10.48359558 C318.91293003 10.48110294 320.82921488 10.49836624 322.74542296 10.51632524 C329.09914931 10.47195929 333.18425088 10.33949136 338 6 C338.33 6.66 338.66 7.32 339 8 C338.34 8 337.68 8 337 8 C337 8.66 337 9.32 337 10 C336.01 10 335.02 10 334 10 C334 10.66 334 11.32 334 12 C331.42055864 13.28972068 329.58357669 13.12416354 326.69387627 13.12304783 C325.561274 13.12503888 324.42867174 13.12702993 323.26174819 13.12908131 C322.00690663 13.12616847 320.75206506 13.12325563 319.459198 13.12025452 C318.12103636 13.12069024 316.78287481 13.12156517 315.44471371 13.12284368 C311.75511167 13.12508841 308.06553845 13.12106766 304.37594008 13.11606562 C300.40184131 13.11176099 296.42774425 13.11320755 292.4536438 13.1139679 C285.56411222 13.11449312 278.67459009 13.11134645 271.78506088 13.10573006 C261.82386722 13.09761489 251.86267814 13.09499982 241.90148152 13.09374207 C225.74144733 13.09155157 209.58141818 13.08489156 193.42138672 13.07543945 C177.7202151 13.06626527 162.01904485 13.05918446 146.31787109 13.05493164 C145.35060997 13.05466892 144.38334885 13.05440619 143.38677679 13.05413551 C138.53447898 13.0528305 133.68218116 13.05156679 128.82988334 13.05032361 C88.55325205 13.03995108 48.27662631 13.02233283 8 13 C7.67 11.68 7.34 10.36 7 9 C6.0409375 8.8453125 6.0409375 8.8453125 5.0625 8.6875 C4.381875 8.460625 3.70125 8.23375 3 8 C2.67 7.01 2.34 6.02 2 5 C1.34 4.67 0.68 4.34 0 4 C0 2.68 0 1.36 0 0 Z " fill="#A8BD42" transform="translate(83,682)"/>
<path d="M0 0 C0.99 0 1.98 0 3 0 C2.86722656 0.68578125 2.73445313 1.3715625 2.59765625 2.078125 C0.32622468 15.54091651 0.50163151 27.95431762 0 42 C156.42 42 312.84 42 474 42 C474 42.33 474 42.66 474 43 C317.25 43 160.5 43 -1 43 C-1 11 -1 11 0 0 Z " fill="#BAC870" transform="translate(17,152)"/>
<path d="M0 0 C-0.99 0 -1.98 0 -3 0 C-3 0.66 -3 1.32 -3 2 C-10.95219735 3.99792851 -18.55595814 4.28531266 -26.72821045 4.26069641 C-28.09787588 4.26372196 -29.46753961 4.26761346 -30.8372004 4.27228898 C-34.57697365 4.28252492 -38.31665055 4.28039852 -42.05643153 4.27610838 C-46.09868182 4.27363327 -50.14090938 4.28266479 -54.18315125 4.29014587 C-62.0913254 4.30287092 -69.99946557 4.30468949 -77.90764824 4.30234561 C-84.33423119 4.30056064 -90.76080384 4.30231591 -97.18738556 4.30657005 C-98.10294289 4.30716524 -99.01850023 4.30776043 -99.96180172 4.30837366 C-101.821839 4.30958542 -103.68187627 4.31079956 -105.54191354 4.31201603 C-122.96829288 4.32288209 -140.39465284 4.32073289 -157.82103327 4.31463119 C-173.76605599 4.30945695 -189.71101771 4.32073248 -205.65602836 4.33972941 C-222.03477943 4.35909344 -238.41350162 4.3673667 -254.79226422 4.36360615 C-263.98533719 4.36169269 -273.17835818 4.36419631 -282.37142181 4.37832069 C-290.19308371 4.39021681 -298.01466158 4.39165893 -305.8363246 4.37953053 C-309.82696716 4.37363077 -313.81745588 4.37257278 -317.8080883 4.38453293 C-321.4608369 4.39535345 -325.11330247 4.39233444 -328.76603761 4.37827124 C-330.71364139 4.37435469 -332.66125757 4.38520226 -334.60883212 4.39656812 C-345.09589147 4.33134846 -345.09589147 4.33134846 -350 1 C-348 0 -348 0 -345.18811893 0.92120647 C-339.57529716 2.63491802 -333.80594869 2.27861239 -327.99009705 2.26069641 C-326.67500658 2.26452196 -325.35991612 2.26834751 -324.00497442 2.27228898 C-320.36507998 2.28255979 -316.72528413 2.28038947 -313.08538163 2.27610838 C-309.15540071 2.27363937 -305.22544343 2.28265772 -301.29547119 2.29014587 C-293.59876696 2.30289184 -285.90209761 2.30468654 -278.2053846 2.30234561 C-271.94565592 2.30056151 -265.68593782 2.30231409 -259.4262104 2.30657005 C-258.53475927 2.30716524 -257.64330814 2.30776043 -256.72484334 2.30837366 C-254.91370332 2.30958544 -253.10256329 2.31079957 -251.29142327 2.31201603 C-234.30641755 2.32289202 -217.32143168 2.32072931 -200.33642484 2.31463119 C-184.81693939 2.30946688 -169.29751681 2.32070452 -153.7780438 2.33972941 C-137.82875362 2.35913061 -121.87949315 2.36735949 -105.9301911 2.36360615 C-96.98162205 2.36169694 -88.03310644 2.36415394 -79.08454704 2.37832069 C-71.46286446 2.39026488 -63.84126817 2.39160576 -56.21958434 2.37953053 C-52.33530911 2.37366193 -48.45119148 2.37248587 -44.56692696 2.38453293 C-41.00184199 2.39546082 -37.43704488 2.39220745 -33.87197299 2.37827124 C-31.99078264 2.3744106 -30.10957916 2.38511505 -28.22841972 2.39656812 C-20.82424748 2.35011671 -14.14560524 1.37111817 -6.96449572 -0.45456249 C-4.13971958 -0.974293 -2.65506264 -0.97565762 0 0 Z " fill="#FEFEDC" transform="translate(431,740)"/>
<path d="M0 0 C2.55636103 1.27818051 2.62626316 2.17044944 3.5625 4.8125 C3.81128906 5.49957031 4.06007813 6.18664062 4.31640625 6.89453125 C8.55116926 19.93760131 6 34.28668915 6 48 C-28.32 48 -62.64 48 -98 48 C-98 47.67 -98 47.34 -98 47 C-64.34 47 -30.68 47 4 47 C4.85419488 15.11376622 4.85419488 15.11376622 0 2 C0 1.34 0 0.68 0 0 Z " fill="#9BAD2F" transform="translate(486,146)"/>
<path d="M0 0 C2.1167565 0.02383624 4.23226169 0.02049314 6.34912109 0.01391602 C14.5070692 0.03202743 22.34344472 0.67275548 30.35302734 2.33618164 C30.35302734 2.66618164 30.35302734 2.99618164 30.35302734 3.33618164 C29.42369385 3.32570801 28.49436035 3.31523437 27.53686523 3.30444336 C4.20985945 3.06541776 4.20985945 3.06541776 -19.08447266 4.14868164 C-20.10597412 4.21877441 -21.12747559 4.28886719 -22.17993164 4.36108398 C-23.58480835 4.48217529 -23.58480835 4.48217529 -25.01806641 4.60571289 C-26.22354126 4.70783081 -26.22354126 4.70783081 -27.45336914 4.81201172 C-30.08644132 5.44119435 -31.54448644 6.66988327 -33.64697266 8.33618164 C-36.00634766 8.62915039 -36.00634766 8.62915039 -38.39697266 8.52368164 C-39.19619141 8.49661133 -39.99541016 8.46954102 -40.81884766 8.44165039 C-41.42212891 8.4068457 -42.02541016 8.37204102 -42.64697266 8.33618164 C-30.76746983 0.41651309 -13.90307239 -0.16678505 0 0 Z " fill="#9FB42A" transform="translate(251.64697265625,17.663818359375)"/>
<path d="M0 0 C0.99 0 1.98 0 3 0 C2.86722656 0.68578125 2.73445313 1.3715625 2.59765625 2.078125 C0.32622468 15.54091651 0.50163151 27.95431762 0 42 C24.75 42 49.5 42 75 42 C75 42.33 75 42.66 75 43 C49.92 43 24.84 43 -1 43 C-1 11 -1 11 0 0 Z " fill="#B6C469" transform="translate(17,152)"/>
<path d="M0 0 C0.33 0 0.66 0 1 0 C1.83737965 3.65410802 2.13557824 7.0474894 2.16113281 10.79321289 C2.17074036 11.9353273 2.1803479 13.07744171 2.19024658 14.25416565 C2.19449646 15.48126755 2.19874634 16.70836945 2.203125 17.97265625 C2.20882507 19.24668808 2.21452515 20.52071991 2.22039795 21.83335876 C2.22984044 24.53078779 2.23674059 27.22810582 2.24023438 29.92553711 C2.24568937 33.34905118 2.26966302 36.77216157 2.29820633 40.19554996 C2.32154771 43.49622049 2.3232974 46.79691485 2.328125 50.09765625 C2.3404718 51.31058853 2.3528186 52.52352081 2.36553955 53.77320862 C2.34538281 61.59236671 1.25946103 68.51332944 -1 76 C-1.66 76 -2.32 76 -3 76 C-3.1953125 69.9453125 -3.1953125 69.9453125 -3 68 C-2.01 67.01 -2.01 67.01 -1 66 C0.03168429 62.26073997 0.12152492 58.69653564 0.11352539 54.83276367 C0.11344986 53.61187546 0.11337433 52.39098724 0.11329651 51.13310242 C0.10813522 49.82460831 0.10297394 48.5161142 0.09765625 47.16796875 C0.09578961 45.80748039 0.09436687 44.44699135 0.09336853 43.08650208 C0.08956275 39.51744713 0.07974914 35.94843331 0.06866455 32.37939453 C0.05840863 28.73275305 0.05386197 25.08610489 0.04882812 21.43945312 C0.03812503 14.29295199 0.02107204 7.14647869 0 0 Z " fill="#90AB1D" transform="translate(468,624)"/>
<path d="M0 0 C1.25159912 0.00523682 2.50319824 0.01047363 3.79272461 0.01586914 C4.78942421 0.01799156 4.78942421 0.01799156 5.80625916 0.02015686 C7.93590735 0.02577021 10.06545175 0.03832485 12.19506836 0.05102539 C13.63582205 0.05603868 15.07657739 0.06060188 16.51733398 0.06469727 C20.05577938 0.07574394 23.59416375 0.09301747 27.13256836 0.11352539 C27.13256836 0.77352539 27.13256836 1.43352539 27.13256836 2.11352539 C27.81963867 2.16250977 28.50670898 2.21149414 29.21459961 2.26196289 C30.1156543 2.33672852 31.01670898 2.41149414 31.94506836 2.48852539 C32.83838867 2.55813477 33.73170898 2.62774414 34.65209961 2.69946289 C37.13256836 3.11352539 37.13256836 3.11352539 40.13256836 5.11352539 C39.1722168 4.96915039 38.21186523 4.82477539 37.22241211 4.67602539 C28.50898358 3.46138038 19.93281082 2.9203299 11.13256836 2.92602539 C10.17858154 2.92538086 9.22459473 2.92473633 8.24169922 2.92407227 C3.79095099 2.95826396 -0.51715706 3.15370892 -4.92993164 3.75024414 C-6.22930664 3.87012695 -7.52868164 3.99000977 -8.86743164 4.11352539 C-9.52743164 3.45352539 -10.18743164 2.79352539 -10.86743164 2.11352539 C-9.73305664 1.96915039 -8.59868164 1.82477539 -7.42993164 1.67602539 C-3.92826467 1.12313061 -3.3480234 0.13255265 0 0 Z " fill="#ABB745" transform="translate(239.867431640625,42.886474609375)"/>
<path d="M0 0 C2.55636103 1.27818051 2.62626316 2.17044944 3.5625 4.8125 C3.81128906 5.49957031 4.06007813 6.18664062 4.31640625 6.89453125 C4.54199219 7.58933594 4.76757812 8.28414062 5 9 C5.17708496 9.5374585 5.35416992 10.07491699 5.53662109 10.62866211 C6.21329904 14.09155613 6.12199835 17.53353857 6.09765625 21.046875 C6.0962413 21.81807678 6.09482635 22.58927856 6.09336853 23.3838501 C6.08778534 25.83927338 6.07523595 28.29460442 6.0625 30.75 C6.05748283 32.41796743 6.0529203 34.08593629 6.04882812 35.75390625 C6.03782141 39.83597287 6.02056836 43.91797081 6 48 C5.34 47.67 4.68 47.34 4 47 C3.98541748 45.95658447 3.97083496 44.91316895 3.95581055 43.83813477 C3.89739607 39.92960051 3.82016993 36.02161665 3.73754883 32.11352539 C3.70450087 30.42904663 3.6764077 28.7444625 3.65356445 27.05981445 C3.50995428 14.24351278 3.50995428 14.24351278 0 2 C0 1.34 0 0.68 0 0 Z " fill="#AFBD5D" transform="translate(486,146)"/>
<path d="M0 0 C0.66 0.33 1.32 0.66 2 1 C-7.9047619 14.96825397 -7.9047619 14.96825397 -14 17 C-14.33 17.66 -14.66 18.32 -15 19 C-16.64363134 19.72159424 -18.31050386 20.39351421 -20 21 C-18.70795512 18.15696339 -17.35098217 16.10240156 -15.13671875 13.90625 C-14.57919922 13.35066406 -14.02167969 12.79507813 -13.44726562 12.22265625 C-12.86654297 11.65417969 -12.28582031 11.08570313 -11.6875 10.5 C-11.11837891 9.93152344 -10.54925781 9.36304688 -9.96289062 8.77734375 C-6.7879178 5.63517776 -3.55335385 2.72001571 0 0 Z " fill="#ACC143" transform="translate(180,41)"/>
<path d="M0 0 C1.33333333 1.33333333 2.66666667 2.66666667 4 4 C5.11375 5.051875 5.11375 5.051875 6.25 6.125 C8 8 8 8 8 10 C10.65696758 10.88565586 12.28190083 11.1450262 15.01245117 11.20532227 C15.81305466 11.22526749 16.61365814 11.24521271 17.43852234 11.26576233 C18.29798965 11.28247482 19.15745697 11.29918732 20.04296875 11.31640625 C20.9265657 11.33718735 21.81016266 11.35796844 22.72053528 11.37937927 C25.54277785 11.44475754 28.36511335 11.50370528 31.1875 11.5625 C33.10092106 11.60569637 35.01433273 11.64931102 36.92773438 11.69335938 C41.61839437 11.80042695 46.30914783 11.90172752 51 12 C51 12.33 51 12.66 51 13 C36.81 13 22.62 13 8 13 C7.67 11.68 7.34 10.36 7 9 C6.0409375 8.8453125 6.0409375 8.8453125 5.0625 8.6875 C4.381875 8.460625 3.70125 8.23375 3 8 C2.67 7.01 2.34 6.02 2 5 C1.34 4.67 0.68 4.34 0 4 C0 2.68 0 1.36 0 0 Z " fill="#9FB62A" transform="translate(83,682)"/>
<path d="M0 0 C2 3 2 3 3 10 C-5.91 10 -14.82 10 -24 10 C-24.33 9.34 -24.66 8.68 -25 8 C-16.42 8 -7.84 8 1 8 C0.67 5.36 0.34 2.72 0 0 Z " fill="#A0B13F" transform="translate(372,106)"/>
<path d="M0 0 C0.66 0.33 1.32 0.66 2 1 C-1.2269716 6.378286 -5.21878831 10.92251644 -10 15 C-10.66 15 -11.32 15 -12 15 C-12.0825 15.61875 -12.165 16.2375 -12.25 16.875 C-13 19 -13 19 -15.0625 20.25 C-15.701875 20.4975 -16.34125 20.745 -17 21 C-13.02838585 12.63190134 -6.61214595 6.34766012 0 0 Z " fill="#E8F0BB" transform="translate(192,66)"/>
<path d="M0 0 C0.99 0 1.98 0 3 0 C2.86287598 0.83225098 2.72575195 1.66450195 2.58447266 2.52197266 C1.19234725 11.49912512 0.59704433 20.28968609 0.375 29.375 C0.33666281 30.70835439 0.29760312 32.0416882 0.2578125 33.375 C0.16482103 36.58320577 0.07897836 39.79142401 0 43 C-0.33 43 -0.66 43 -1 43 C-1.02501826 38.64412803 -1.04300806 34.28829593 -1.05493164 29.93237305 C-1.05991084 28.4554776 -1.06669663 26.97858695 -1.07543945 25.50170898 C-1.12472428 16.95224188 -1.01214531 8.50453103 0 0 Z " fill="#D7DFA0" transform="translate(17,152)"/>
<path d="M0 0 C5 1.66666667 10 3.33333333 15 5 C15 5.66 15 6.32 15 7 C17.97 7.99 20.94 8.98 24 10 C23.67 10.66 23.34 11.32 23 12 C19.625 11.25 19.625 11.25 16 10 C15.5359375 8.9790625 15.5359375 8.9790625 15.0625 7.9375 C14.711875 7.298125 14.36125 6.65875 14 6 C12.04378089 5.70656713 10.08223052 5.42525405 8.109375 5.28125 C5.04458697 4.8726116 2.65366484 3.52585728 0 2 C0 1.34 0 0.68 0 0 Z " fill="#A9BD41" transform="translate(294,24)"/>
<path d="M0 0 C2.32539494 2.12664324 3.71535456 4.09595031 5.0625 6.9375 C5.38347656 7.60652344 5.70445312 8.27554688 6.03515625 8.96484375 C6.35355469 9.63644531 6.67195313 10.30804688 7 11 C7.56654297 12.04607422 7.56654297 12.04607422 8.14453125 13.11328125 C9.2164268 15.47732486 8.85537698 16.60494447 8 19 C5.3144406 16.3144406 4.93950026 13.62378672 4 10 C3.34 10 2.68 10 2 10 C0.68373308 6.38026598 0 3.90432869 0 0 Z " fill="#A3B63A" transform="translate(359,77)"/>
<path d="M0 0 C2.31 0.66 4.62 1.32 7 2 C7 2.66 7 3.32 7 4 C8.4540625 4.185625 8.4540625 4.185625 9.9375 4.375 C11.4534375 4.684375 11.4534375 4.684375 13 5 C13.33 5.66 13.66 6.32 14 7 C16.01669827 8.13350534 16.01669827 8.13350534 18 9 C18 9.66 18 10.32 18 11 C14.29002742 9.5876425 10.81069382 7.9380664 7.3125 6.0625 C6.35988281 5.55847656 5.40726562 5.05445313 4.42578125 4.53515625 C2 3 2 3 0 0 Z " fill="#A6B33E" transform="translate(61,728)"/>
<path d="M0 0 C0.99 0 1.98 0 3 0 C3.67812114 1.8708878 4.3419946 3.74694293 5 5.625 C5.37125 6.66914062 5.7425 7.71328125 6.125 8.7890625 C7.00483564 12.01774506 7.15988262 14.67244294 7 18 C3.976441 12.18546346 1.67690359 6.32063661 0 0 Z " fill="#ADBA48" transform="translate(340,96)"/>
<path d="M0 0 C0 0.66 0 1.32 0 2 C-1.65 2 -3.3 2 -5 2 C-5.33 2.99 -5.66 3.98 -6 5 C-7.65 5 -9.3 5 -11 5 C-11.33 5.99 -11.66 6.98 -12 8 C-15 10 -15 10 -17.1875 9.625 C-17.785625 9.41875 -18.38375 9.2125 -19 9 C-13.55024215 4.41151178 -7.43651804 0 0 0 Z " fill="#E2E9A7" transform="translate(219,52)"/>
<path d="M0 0 C-1 1 -1 1 -4.3125 1.375 C-7.92219428 1.66891893 -7.92219428 1.66891893 -9.875 3.5625 C-13.29015585 5.87275248 -16.99503549 5.23105565 -21 5 C-15.32446676 1.21631117 -6.74080563 -2.24693521 0 0 Z " fill="#B0C146" transform="translate(230,21)"/>
<path d="M0 0 C0.66 0.33 1.32 0.66 2 1 C1.13375 1.309375 1.13375 1.309375 0.25 1.625 C-2.29216514 2.93987326 -2.29216514 2.93987326 -3.875 6.125 C-4.57625 7.07375 -5.2775 8.0225 -6 9 C-9.25 9.375 -9.25 9.375 -12 9 C-8.33494586 5.00175912 -4.88887148 2.39831431 0 0 Z " fill="#BACC59" transform="translate(194,32)"/>
<path d="M0 0 C0.33 0 0.66 0 1 0 C1.05421223 3.04190863 1.09377548 6.08283999 1.125 9.125 C1.14175781 9.9809375 1.15851563 10.836875 1.17578125 11.71875 C1.21285833 16.53877043 0.99862972 20.51356545 -1 25 C-1.66 25.66 -2.32 26.32 -3 27 C-2.08080808 21.35353535 -2.08080808 21.35353535 -1.5 18.8125 C-0.84222769 15.11253075 -0.64184798 11.43611296 -0.4375 7.6875 C-0.39431641 6.94693359 -0.35113281 6.20636719 -0.30664062 5.44335938 C-0.20129568 3.62908536 -0.10021684 1.8145645 0 0 Z " fill="#F8FBDE" transform="translate(472,665)"/>
<path d="M0 0 C1.3805087 3.76668598 0.59568159 6.44789173 -0.4375 10.25 C-0.72496094 11.32765625 -1.01242187 12.4053125 -1.30859375 13.515625 C-1.53675781 14.33546875 -1.76492188 15.1553125 -2 16 C-2.66 16 -3.32 16 -4 16 C-4.1953125 9.9453125 -4.1953125 9.9453125 -4 8 C-3.34 7.34 -2.68 6.68 -2 6 C-1.28591666 4.01643517 -0.61382258 2.01684563 0 0 Z " fill="#9CB335" transform="translate(469,684)"/>
<path d="M0 0 C9.32933479 0.94874591 9.32933479 0.94874591 13 3 C14.3125 5.125 14.3125 5.125 15 7 C7.5 4 7.5 4 0 1 C0 0.67 0 0.34 0 0 Z " fill="#A9B746" transform="translate(285,49)"/>
<path d="M0 0 C-0.99 0 -1.98 0 -3 0 C-3 0.66 -3 1.32 -3 2 C-6.28519475 3.09506492 -8.73663415 3.09960608 -12.1875 3.0625 C-13.81751953 3.04896484 -13.81751953 3.04896484 -15.48046875 3.03515625 C-16.31191406 3.02355469 -17.14335937 3.01195312 -18 3 C-18 2.67 -18 2.34 -18 2 C-15.75256955 1.46818825 -13.50192898 0.94992874 -11.25 0.4375 C-9.99703125 0.14746094 -8.7440625 -0.14257812 -7.453125 -0.44140625 C-4.40526252 -0.93444283 -2.82358172 -1.07666879 0 0 Z " fill="#ECF2C8" transform="translate(431,740)"/>
<path d="M0 0 C0.59296875 0.22558594 1.1859375 0.45117188 1.796875 0.68359375 C0.89659912 1.71891101 -0.02405535 2.7365354 -0.953125 3.74609375 C-1.71882813 4.59880859 -1.71882813 4.59880859 -2.5 5.46875 C-4.203125 6.68359375 -4.203125 6.68359375 -6.40625 6.3671875 C-6.99921875 6.14160156 -7.5921875 5.91601562 -8.203125 5.68359375 C-7.30284912 4.64827649 -6.38219465 3.6306521 -5.453125 2.62109375 C-4.68742187 1.76837891 -4.68742187 1.76837891 -3.90625 0.8984375 C-2.203125 -0.31640625 -2.203125 -0.31640625 0 0 Z " fill="#ABBF4A" transform="translate(36.203125,133.31640625)"/>
<path d="M0 0 C0.3125 2.3125 0.3125 2.3125 0 5 C-2.375 6.5625 -2.375 6.5625 -5 8 C-6.32793606 10.06700655 -6.32793606 10.06700655 -7 12 C-7.33 11.34 -7.66 10.68 -8 10 C-2.90909091 0 -2.90909091 0 0 0 Z " fill="#BECD64" transform="translate(156,67)"/>
<path d="M0 0 C0.33 0.99 0.66 1.98 1 3 C0.0390625 4.82421875 0.0390625 4.82421875 -1.375 6.6875 C-1.83648437 7.31011719 -2.29796875 7.93273437 -2.7734375 8.57421875 C-3.17820313 9.04472656 -3.58296875 9.51523438 -4 10 C-4.33 10 -4.66 10 -5 10 C-5.3125 7.25 -5.3125 7.25 -5 4 C-2.5 1.625 -2.5 1.625 0 0 Z " fill="#A1B72A" transform="translate(161,61)"/>
<path d="M0 0 C2.97 0 5.94 0 9 0 C6.48617788 1.67588141 4.17052712 2.94030311 1.4375 4.1875 C0.65246094 4.55230469 -0.13257813 4.91710938 -0.94140625 5.29296875 C-1.62074219 5.52628906 -2.30007812 5.75960937 -3 6 C-3.66 5.67 -4.32 5.34 -5 5 C-4.360625 4.731875 -3.72125 4.46375 -3.0625 4.1875 C-0.66868314 3.11332248 -0.66868314 3.11332248 0 0 Z " fill="#AEBF45" transform="translate(220,47)"/>
<path d="M0 0 C0.97919756 3.07550784 0.98561151 5.02444072 0.125 8.125 C-0.05804688 8.80820312 -0.24109375 9.49140625 -0.4296875 10.1953125 C-1 12 -1 12 -2 14 C-2.66 14 -3.32 14 -4 14 C-3.67 12.02 -3.34 10.04 -3 8 C-2.34 8 -1.68 8 -1 8 C-1.020625 7.05125 -1.04125 6.1025 -1.0625 5.125 C-1 2 -1 2 0 0 Z " fill="#E3ECBA" transform="translate(468,692)"/>
<path d="M0 0 C4.81033104 2.54664585 8.32442148 4.99027798 12 9 C7.69235185 7.43358249 3.93828536 5.31663844 0 3 C0 2.01 0 1.02 0 0 Z " fill="#A3B631" transform="translate(318,35)"/>
<path d="M0 0 C2.30142435 1.78174788 3.80034391 3.16304165 4.48828125 6.046875 C4.72323102 8.0246611 4.86751458 10.01271872 5 12 C2.54792359 9.54792359 1.39341806 7.16685923 0 4 C0 2.68 0 1.36 0 0 Z " fill="#ACBC4C" transform="translate(41,696)"/>
<path d="M0 0 C2.54384726 1.27192363 2.69368156 2.19948469 3.6875 4.8125 C3.95949219 5.49957031 4.23148437 6.18664062 4.51171875 6.89453125 C5.06812731 9.29376496 4.77364938 10.6894364 4 13 C1.55302334 8.63799813 0.49730652 4.97306516 0 0 Z " fill="#B7C665" transform="translate(486,146)"/>
<path d="M0 0 C0.66 0.33 1.32 0.66 2 1 C-1.75 6.875 -1.75 6.875 -4 8 C-3.6875 5.125 -3.6875 5.125 -3 2 C-2.01 1.34 -1.02 0.68 0 0 Z " fill="#97B316" transform="translate(153,73)"/>
<path d="M0 0 C4.95 1.98 4.95 1.98 10 4 C9.67 4.66 9.34 5.32 9 6 C5.625 5.25 5.625 5.25 2 4 C1.34 2.68 0.68 1.36 0 0 Z " fill="#A4BA2C" transform="translate(308,30)"/>
<path d="M0 0 C0.66 0 1.32 0 2 0 C0.33333333 3.33333333 -1.33333333 6.66666667 -3 10 C-4.21744727 6.34765818 -3.64202228 5.37046678 -2 2 C-1.34 1.34 -0.68 0.68 0 0 Z " fill="#9EB231" transform="translate(173,86)"/>
<path d="M0 0 C2.31 0.66 4.62 1.32 7 2 C7 2.66 7 3.32 7 4 C7.66 4 8.32 4 9 4 C9 4.66 9 5.32 9 6 C4.64464931 4.83857315 2.35380297 3.92300495 0 0 Z " fill="#B2BC52" transform="translate(61,728)"/>
<path d="M0 0 C1.80330533 3.60661066 2.46599103 6.08393425 3 10 C2.01 9.67 1.02 9.34 0 9 C0 6.03 0 3.06 0 0 Z " fill="#E3E9B2" transform="translate(38,686)"/>
<path d="M0 0 C3.36720387 1.39332574 4.9859524 2.9789286 7 6 C3 6 3 6 1.25 4.6875 C0 3 0 3 0 0 Z " fill="#A2B62F" transform="translate(330,44)"/>
<path d="M0 0 C7.75 0.75 7.75 0.75 10 3 C6.7 2.67 3.4 2.34 0 2 C0 1.34 0 0.68 0 0 Z " fill="#A8B939" transform="translate(283,21)"/>
<path d="M0 0 C0.66 0 1.32 0 2 0 C1.65120368 3.25543229 0.97866739 4.01873107 -1.5625 6.25 C-2.366875 6.8275 -3.17125 7.405 -4 8 C-4 7.01 -4 6.02 -4 5 C-3.34 5 -2.68 5 -2 5 C-1.34 3.35 -0.68 1.7 0 0 Z " fill="#98AE2A" transform="translate(457,713)"/>
<path d="M0 0 C2.00773956 2.00773956 2.99392854 3.36873617 4 6 C3.625 8.25 3.625 8.25 3 10 C-0.00617269 6.99382731 0.40414684 4.17618402 0 0 Z " fill="#A7B747" transform="translate(364,86)"/>
<path d="M0 0 C0.33 0 0.66 0 1 0 C1.25 2.8125 1.25 2.8125 1 6 C-1 7.875 -1 7.875 -3 9 C-2.01 6.03 -1.02 3.06 0 0 Z " fill="#B4C556" transform="translate(147,79)"/>
<path d="M0 0 C0.99 0.33 1.98 0.66 3 1 C-0.465 3.97 -0.465 3.97 -4 7 C-4 6.01 -4 5.02 -4 4 C-3.34 4 -2.68 4 -2 4 C-2 3.01 -2 2.02 -2 1 C-1.34 0.67 -0.68 0.34 0 0 Z " fill="#9EB227" transform="translate(188,67)"/>
<path d="M0 0 C0 0.66 0 1.32 0 2 C-1.65 2 -3.3 2 -5 2 C-5.33 2.99 -5.66 3.98 -6 5 C-7.32 4.67 -8.64 4.34 -10 4 C-6.74659338 1.32755885 -4.23938937 0 0 0 Z " fill="#EDF3C5" transform="translate(219,52)"/>
<path d="M0 0 C0.33 1.32 0.66 2.64 1 4 C0.01 4 -0.98 4 -2 4 C-2.66 5.32 -3.32 6.64 -4 8 C-4.66 7.67 -5.32 7.34 -6 7 C-4.02 4.69 -2.04 2.38 0 0 Z " fill="#E4ECB1" transform="translate(456,718)"/>
</svg>
