<?xml version="1.0" encoding="UTF-8"?>
<svg version="1.1" xmlns="http://www.w3.org/2000/svg" width="508" height="756">
<path d="M0 0 C167.64 0 335.28 0 508 0 C508 249.48 508 498.96 508 756 C340.36 756 172.72 756 0 756 C0 506.52 0 257.04 0 0 Z " fill="#FEFEFC" transform="translate(0,0)"/>
<path d="M0 0 C99.66 0 199.32 0 302 0 C302 83.49 302 166.98 302 253 C202.34 253 102.68 253 0 253 C0 169.51 0 86.02 0 0 Z " fill="#FE9902" transform="translate(103,423)"/>
<path d="M0 0 C6.39037231 -0.02527062 12.78073183 -0.04283317 19.17114258 -0.05493164 C21.34692873 -0.05997308 23.52271147 -0.06680607 25.69848633 -0.07543945 C28.81853067 -0.08751338 31.93853038 -0.09323005 35.05859375 -0.09765625 C36.52733192 -0.10539818 36.52733192 -0.10539818 38.02574158 -0.11329651 C39.37702904 -0.11340981 39.37702904 -0.11340981 40.75561523 -0.11352539 C41.95141457 -0.11685631 41.95141457 -0.11685631 43.17137146 -0.12025452 C45 0 45 0 46 1 C46.10298177 3.46089528 46.14022253 5.89394376 46.13587189 8.35554123 C46.13841451 9.13860248 46.14095713 9.92166373 46.1435768 10.72845411 C46.15097116 13.38626258 46.15117354 16.04402518 46.15148926 18.70184326 C46.15533533 20.61305113 46.15962208 22.52425816 46.16431475 24.43546414 C46.17600394 29.7138814 46.18145047 34.99229001 46.18594956 40.27071762 C46.19187976 45.95320022 46.20355208 51.63567118 46.21458435 57.31814575 C46.23296674 67.17336472 46.24779909 77.02858393 46.26036072 86.88381195 C46.27862142 101.13844125 46.30328707 115.39305398 46.32973462 129.64767018 C46.34202271 136.283491 46.35403667 142.91931231 46.36594391 149.55513382 C46.36713643 150.21951869 46.36832896 150.88390356 46.36955762 151.5684213 C46.39788747 167.39326685 46.4230791 183.21811714 46.44775391 199.04296875 C46.4488351 199.73563908 46.4499163 200.42830941 46.45103026 201.14196974 C46.4674721 211.67797965 46.48375133 222.2139898 46.5 232.75 C46.5173186 243.97851578 46.53470396 255.20703145 46.55224609 266.43554688 C46.55332556 267.12724198 46.55440503 267.81893708 46.5555172 268.53159263 C46.58017408 284.32029572 46.60572103 300.10899668 46.63405609 315.89769363 C46.63524634 316.56112392 46.63643659 317.22455421 46.63766291 317.90808845 C46.65074065 325.18503826 46.66405426 332.46198761 46.67754889 339.73893666 C46.70373391 353.96130634 46.72638596 368.18367347 46.74453247 382.40605572 C46.75718289 392.14897359 46.7733028 401.89188166 46.79218161 411.63478944 C46.80295747 417.26160653 46.81207007 422.8884141 46.81687737 428.51523972 C46.82129964 433.66211846 46.83023566 438.80896851 46.84282058 443.95583358 C46.84656692 445.82196108 46.84861795 447.68809286 46.84884077 449.5542241 C46.84937961 452.08321457 46.85597698 454.61211851 46.86412811 457.14109421 C46.8628196 457.87208958 46.86151108 458.60308495 46.86016291 459.35623169 C46.87868748 463.01348065 46.96989936 466.47485835 48 470 C49.84982472 471.25827123 49.84982472 471.25827123 52 472 C52.99 472.66 53.98 473.32 55 474 C57.5122749 474.30333166 57.5122749 474.30333166 60.38117695 474.25726891 C62.06706644 474.26694224 62.06706644 474.26694224 63.78701431 474.276811 C65.02706841 474.2737138 66.26712252 474.2706166 67.54475403 474.26742554 C68.85798777 474.27195665 70.17122151 474.27648776 71.52425021 474.28115618 C75.17722037 474.29342305 78.8300992 474.2931214 82.48308527 474.29076743 C86.41980385 474.29036019 90.35649278 474.30138959 94.29319763 474.31088257 C102.00915133 474.32751405 109.72507448 474.33299309 117.44104461 474.33410732 C123.7119031 474.33505684 129.9827515 474.33916232 136.2536068 474.34550858 C154.02417765 474.36312735 171.79472431 474.37234653 189.56530396 474.37084763 C190.52384398 474.37076772 191.48238401 474.3706878 192.4699707 474.37060547 C193.42967829 474.37052371 194.38938588 474.37044195 195.37817552 474.37035771 C210.93243567 474.36954477 226.48659899 474.38868272 242.04083113 474.4168822 C258.00351716 474.44559431 273.96615595 474.4594234 289.92886847 474.45769465 C298.89402998 474.45703014 307.85909 474.4625491 316.82422829 474.48405075 C324.45759863 474.50224063 332.0908215 474.50662805 339.7242041 474.4930319 C343.6196591 474.48649091 347.51483099 474.48642545 351.41025925 474.5037384 C355.63181997 474.52230798 359.85272205 474.50994415 364.07429504 474.49447632 C365.92433796 474.50990701 365.92433796 474.50990701 367.81175548 474.52564943 C374.13725264 474.47424288 378.26889013 474.40330486 383 470 C383.66 469.01 384.32 468.02 385 467 C385.66 467 386.32 467 387 467 C386.99962028 466.01433786 386.99924056 465.02867572 386.99884933 464.01314503 C386.97645732 405.66014025 386.95932386 347.30713551 386.94893467 288.95412738 C386.94768728 281.95550223 386.94639073 274.95687709 386.94506836 267.95825195 C386.9449376 267.26178602 386.94480684 266.56532008 386.94467212 265.84774912 C386.94040696 243.25289436 386.93289281 220.6580421 386.92370278 198.06318886 C386.91401308 174.19660783 386.9080064 150.33002856 386.90591151 126.4634456 C386.90453593 112.15744096 386.90018351 97.85144347 386.89208353 83.54544102 C386.8868181 73.74975277 386.88519524 63.95406824 386.88649862 54.15837867 C386.88714232 48.49763002 386.88612092 42.83689391 386.88079453 37.17614746 C386.8759621 32.00292283 386.87566031 26.82971928 386.87910111 21.65649372 C386.87952695 19.77627259 386.87822991 17.8960502 386.87511682 16.0158316 C386.87115542 13.47744207 386.87323499 10.93913063 386.87695217 8.40074253 C386.87432516 7.65574457 386.87169814 6.91074661 386.86899152 6.14317295 C386.8858542 1.1141458 386.8858542 1.1141458 388 0 C389.41225046 -0.0928726 390.82908934 -0.11746772 392.24438477 -0.11352539 C393.14524307 -0.11344986 394.04610138 -0.11337433 394.97425842 -0.11329651 C395.95341721 -0.10813522 396.93257599 -0.10297394 397.94140625 -0.09765625 C398.93881332 -0.0962413 399.9362204 -0.09482635 400.96385193 -0.09336853 C404.16343124 -0.08775114 407.36294169 -0.07519571 410.5625 -0.0625 C412.72591045 -0.05748724 414.88932199 -0.05292395 417.05273438 -0.04882812 C422.36851325 -0.03777607 427.68425171 -0.02102104 433 0 C433.09157183 59.38211114 433.16205513 118.76422115 433.20426132 178.14638788 C433.2092505 185.15830168 433.21443674 192.17021533 433.21972656 199.18212891 C433.2202496 199.87988466 433.22077263 200.57764041 433.22131152 201.29654028 C433.2383455 223.89755163 433.2683822 246.49852289 433.30518888 269.09950996 C433.34402711 292.99145176 433.36799184 316.88336527 433.37635398 340.77533805 C433.38184016 355.0828875 433.39916287 369.39032179 433.43166587 383.69783579 C433.45282299 393.5113843 433.4591973 403.32487335 433.45400551 413.13844301 C433.45144564 418.79885117 433.45534731 424.45905821 433.4768219 430.11943054 C433.49636087 435.30762191 433.49722235 440.49547788 433.48359558 445.68368505 C433.48191268 447.55472261 433.48692427 449.42578155 433.49953273 451.29677738 C433.58853737 465.32691704 431.85968891 477.57334867 425.3125 490.25 C424.9729126 490.91692871 424.6333252 491.58385742 424.28344727 492.27099609 C421.05478619 498.3461412 416.99611072 503.26684247 412 508 C411.40316406 508.56976562 410.80632812 509.13953125 410.19140625 509.7265625 C396.24304574 522.28975095 382.01021432 525.3220226 363.57154846 525.25396729 C361.60392018 525.25864726 361.60392018 525.25864726 359.59654182 525.26342177 C355.9846214 525.27171466 352.37280766 525.26766977 348.76088703 525.26144934 C344.85419511 525.25690309 340.94752087 525.26391937 337.04083252 525.26940918 C329.39881817 525.27828197 321.75684321 525.27639054 314.11482734 525.2705839 C307.90094442 525.26605875 301.6870725 525.26545819 295.4731884 525.26763153 C294.14428456 525.26809123 294.14428456 525.26809123 292.78853418 525.26856022 C290.98850282 525.2691997 289.18847147 525.26984812 287.38844012 525.2705054 C270.52651352 525.27620259 253.6646087 525.26966057 236.80268567 525.25890467 C222.3507867 525.24997126 207.89891987 525.25152065 193.44702148 525.26074219 C176.6450979 525.2714583 159.84319339 525.27565169 143.04126686 525.26951766 C141.24772036 525.2688806 139.45417387 525.26825185 137.66062737 525.26763153 C136.77828138 525.26732298 135.89593539 525.26701443 134.98685165 525.26669653 C128.78470777 525.26497349 122.58257604 525.26787627 116.38043404 525.27259064 C108.81589675 525.27821444 101.25140094 525.27665163 93.68686838 525.26602915 C89.83119977 525.26079234 85.97560019 525.25868152 82.11993217 525.26532745 C77.93170707 525.27243712 73.7436545 525.26391706 69.55543518 525.25396729 C68.34889819 525.25842873 67.1423612 525.26289017 65.89926249 525.26748681 C51.91537592 525.20324455 39.89592801 523.31462558 28.5 515 C27.86835937 514.56171875 27.23671875 514.1234375 26.5859375 513.671875 C24.99568799 512.5290983 23.48919118 511.27166887 22 510 C22 509.01 22 508.02 22 507 C21.11441406 506.60941406 21.11441406 506.60941406 20.2109375 506.2109375 C10.37140006 500.82179155 5.82818729 488.06601575 2.6875 478 C2.10802676 476.00485163 1.54311582 474.00535071 1 472 C0.82182741 471.4428903 0.64365482 470.88578061 0.46008307 470.3117888 C-0.20891913 466.95023977 -0.13515822 463.61174096 -0.12304783 460.19887924 C-0.12420167 459.40410498 -0.12535552 458.60933072 -0.12654433 457.79047239 C-0.12920413 455.11092483 -0.12469402 452.43143662 -0.12025452 449.75189209 C-0.12069035 447.81803315 -0.12156548 445.88417428 -0.12284368 443.95031571 C-0.1250863 438.62340907 -0.12107052 433.29652242 -0.11606562 427.96961832 C-0.11175798 422.23003037 -0.11320777 416.4904436 -0.1139679 410.75085449 C-0.11449293 400.80236289 -0.11134825 390.85387783 -0.10573006 380.90538788 C-0.0976123 366.52143744 -0.09499955 352.13749017 -0.09374207 337.75353768 C-0.09155198 314.41804676 -0.08490164 291.08255933 -0.07543945 267.74707031 C-0.06625695 245.0751955 -0.05917239 222.40332161 -0.05493164 199.73144531 C-0.05480011 199.03275325 -0.05466859 198.33406119 -0.05453308 197.61419664 C-0.05321457 190.59772396 -0.05193875 183.58125128 -0.05069422 176.56477858 C-0.04815792 162.2710706 -0.04533667 147.97736268 -0.04234314 133.68365479 C-0.04206841 132.37084771 -0.04179369 131.05804063 -0.04151063 129.70545152 C-0.03233792 86.47029964 -0.01660398 43.23514958 0 0 Z " fill="#FE9302" transform="translate(38,218)"/>
<path d="M0 0 C0.70620577 -0.00235223 1.41241154 -0.00470446 2.14001748 -0.00712797 C4.52439274 -0.01382511 6.9087136 -0.01335953 9.2930975 -0.01294994 C11.01272713 -0.01624813 12.732356 -0.01997361 14.45198387 -0.02409142 C19.1917587 -0.03412482 23.93152087 -0.03783037 28.67130482 -0.04048073 C33.77783601 -0.04437986 38.88435714 -0.05395853 43.99088192 -0.0626936 C56.3309057 -0.08246994 68.67093031 -0.09252608 81.01096597 -0.10142139 C86.81999589 -0.10580271 92.62902489 -0.11116995 98.43805408 -0.11641026 C117.74546685 -0.13342434 137.05287904 -0.14791863 156.36029816 -0.155159 C161.37239807 -0.15706894 166.38449797 -0.15898927 171.39659786 -0.16094494 C173.26523391 -0.16167055 173.26523391 -0.16167055 175.17162018 -0.16241082 C195.35319778 -0.17071154 215.53471611 -0.19604838 235.71626783 -0.22852562 C256.42953959 -0.26158711 277.14278123 -0.27960697 297.85607952 -0.28280324 C309.48849977 -0.28496926 321.12083363 -0.29373143 332.75322819 -0.31926441 C342.65992332 -0.34095902 352.56651108 -0.34902793 362.47322727 -0.33929763 C367.527611 -0.33474925 372.58177311 -0.3366705 377.63612652 -0.35605907 C382.265798 -0.37366509 386.89508578 -0.37271375 391.52476119 -0.35716178 C393.19711759 -0.35478182 394.86950039 -0.35912942 396.54181642 -0.37099043 C409.26251469 -0.45560378 419.46296664 1.19728334 429.13072872 10.13422108 C444.08546722 25.26572954 440.13072872 46.62547022 440.13072872 66.13422108 C283.38072872 66.13422108 126.63072872 66.13422108 -34.86927128 66.13422108 C-34.86927128 21.35126653 -34.86927128 21.35126653 -24.18177128 9.82172108 C-17.31050917 3.36848251 -9.35298424 0.01324267 0 0 Z " fill="#FE9501" transform="translate(51.86927127838135,128.86577892303467)"/>
<path d="M0 0 C3.51454625 2.79491618 6.96402453 5.68542913 10 9 C10 9.66 10 10.32 10 11 C10.90999756 11.15952148 10.90999756 11.15952148 11.83837891 11.32226562 C15.43191285 12.44894851 17.19692353 15.59064514 19.375 18.5 C19.86395752 19.14146973 20.35291504 19.78293945 20.85668945 20.44384766 C22.2511989 22.28633543 23.62837645 24.14044084 25 26 C25.58394531 26.78117187 26.16789063 27.56234375 26.76953125 28.3671875 C35.12292077 40.19540297 45 58.22330132 45 73 C35.76 73 26.52 73 17 73 C14.25 65.5 14.25 65.5 13.41113281 63.18945312 C7.83052497 48.14875282 -0.66512101 34.20266349 -14 25 C-16.06478389 23.41964618 -18.12721498 21.83621446 -20.1875 20.25 C-26.92287341 15.12706208 -33.40891918 11.61450723 -41.375 8.9375 C-42.07882812 8.69451172 -42.78265625 8.45152344 -43.5078125 8.20117188 C-44.94605698 7.70644727 -46.38748501 7.22089113 -47.83178711 6.74414062 C-49.25074335 6.25714833 -50.65695421 5.73085032 -52.04516602 5.16210938 C-59.00682647 2.44552121 -65.78906759 2.55603481 -73.1875 2.625 C-74.41275391 2.61339844 -75.63800781 2.60179688 -76.90039062 2.58984375 C-89.6432881 2.63014812 -101.21248829 5.28839719 -113 10 C-113.96550781 10.34675781 -114.93101562 10.69351563 -115.92578125 11.05078125 C-131.8591702 17.06455062 -148.02895837 31.37947329 -157 46 C-157.96987782 48.37620066 -158.5147378 50.46585295 -159 53 C-159.66 53 -160.32 53 -161 53 C-161.1134375 53.721875 -161.226875 54.44375 -161.34375 55.1875 C-162.2320387 58.99445159 -164.00307129 62.07548147 -165.84375 65.5 C-167.26671075 68.32117699 -167.26671075 68.32117699 -168 73 C-176.91 73 -185.82 73 -195 73 C-196.13337418 68.4665033 -195.32047615 66.02633316 -193.8125 61.8125 C-193.57837402 61.13904541 -193.34424805 60.46559082 -193.10302734 59.77172852 C-191.31556792 54.70726014 -189.33528857 49.83107806 -187 45 C-186.29810547 43.43378906 -186.29810547 43.43378906 -185.58203125 41.8359375 C-181.22134564 32.4930909 -175.65606215 24.84145623 -169 17 C-168.27296875 16.13117187 -167.5459375 15.26234375 -166.796875 14.3671875 C-157.79948982 3.91746849 -146.90330642 -5.00970964 -134.37109375 -10.85546875 C-132.11642028 -11.94380372 -130.06325019 -13.18211648 -127.9375 -14.5 C-121.80100409 -17.92827004 -115.05556982 -19.64293294 -108.29589844 -21.40039062 C-106.80604781 -21.78948815 -105.31939402 -22.19112276 -103.83691406 -22.60742188 C-66.92584475 -32.87452278 -30.02625092 -22.5913447 0 0 Z " fill="#FD9106" transform="translate(330,43)"/>
<path d="M0 0 C99.66 0 199.32 0 302 0 C302 83.49 302 166.98 302 253 C202.34 253 102.68 253 0 253 C0 169.51 0 86.02 0 0 Z M2 2 C2 84.5 2 167 2 252 C100.67 251.67 199.34 251.34 301 251 C301 168.83 301 86.66 301 2 C202.33 2 103.66 2 2 2 Z " fill="#F4A442" transform="translate(103,423)"/>
<path d="M0 0 C6.39037231 -0.02527062 12.78073183 -0.04283317 19.17114258 -0.05493164 C21.34692873 -0.05997308 23.52271147 -0.06680607 25.69848633 -0.07543945 C28.81853067 -0.08751338 31.93853038 -0.09323005 35.05859375 -0.09765625 C36.52733192 -0.10539818 36.52733192 -0.10539818 38.02574158 -0.11329651 C39.37702904 -0.11340981 39.37702904 -0.11340981 40.75561523 -0.11352539 C41.95141457 -0.11685631 41.95141457 -0.11685631 43.17137146 -0.12025452 C45 0 45 0 46 1 C46.10298177 3.46089528 46.14022253 5.89394376 46.13587189 8.35554123 C46.13841451 9.13860248 46.14095713 9.92166373 46.1435768 10.72845411 C46.15097116 13.38626258 46.15117354 16.04402518 46.15148926 18.70184326 C46.15533533 20.61305113 46.15962208 22.52425816 46.16431475 24.43546414 C46.17600394 29.7138814 46.18145047 34.99229001 46.18594956 40.27071762 C46.19187976 45.95320022 46.20355208 51.63567118 46.21458435 57.31814575 C46.23296674 67.17336472 46.24779909 77.02858393 46.26036072 86.88381195 C46.27862142 101.13844125 46.30328707 115.39305398 46.32973462 129.64767018 C46.34202271 136.283491 46.35403667 142.91931231 46.36594391 149.55513382 C46.36713643 150.21951869 46.36832896 150.88390356 46.36955762 151.5684213 C46.39788747 167.39326685 46.4230791 183.21811714 46.44775391 199.04296875 C46.4488351 199.73563908 46.4499163 200.42830941 46.45103026 201.14196974 C46.4674721 211.67797965 46.48375133 222.2139898 46.5 232.75 C46.5173186 243.97851578 46.53470396 255.20703145 46.55224609 266.43554688 C46.55332556 267.12724198 46.55440503 267.81893708 46.5555172 268.53159263 C46.58017408 284.32029572 46.60572103 300.10899668 46.63405609 315.89769363 C46.63524634 316.56112392 46.63643659 317.22455421 46.63766291 317.90808845 C46.65074065 325.18503826 46.66405426 332.46198761 46.67754889 339.73893666 C46.70373391 353.96130634 46.72638596 368.18367347 46.74453247 382.40605572 C46.75718289 392.14897359 46.7733028 401.89188166 46.79218161 411.63478944 C46.80295747 417.26160653 46.81207007 422.8884141 46.81687737 428.51523972 C46.82129964 433.66211846 46.83023566 438.80896851 46.84282058 443.95583358 C46.84656692 445.82196108 46.84861795 447.68809286 46.84884077 449.5542241 C46.84937961 452.08321457 46.85597698 454.61211851 46.86412811 457.14109421 C46.8628196 457.87208958 46.86151108 458.60308495 46.86016291 459.35623169 C46.87876582 463.02894726 47.12604209 466.42808928 48 470 C45.34422153 468.67211076 45.02564576 467.78785966 44 465 C43.81285801 462.38904867 43.73517944 459.88683399 43.75390434 457.27696609 C43.75159665 456.4906337 43.74928897 455.70430131 43.74691135 454.89414066 C43.74159202 452.24324684 43.75061144 449.592593 43.75949097 446.94171143 C43.7586193 445.02847606 43.75686902 443.11524092 43.75431263 441.20200706 C43.74982755 435.93208541 43.75785871 430.66224461 43.76786876 425.39233327 C43.77648427 419.71409557 43.77358445 414.03586264 43.77206421 408.35762024 C43.77101415 398.51552495 43.77730335 388.67345612 43.78853989 378.83136749 C43.80477559 364.60126135 43.81000091 350.37116804 43.81251587 336.14105365 C43.81689601 313.0551281 43.8301966 289.96921841 43.84912109 266.88330078 C43.86748618 244.45393955 43.88165526 222.02458209 43.89013672 199.59521484 C43.89039977 198.90399306 43.89066282 198.21277128 43.89093385 197.50060338 C43.89357086 190.55914772 43.89612249 183.61769204 43.89861157 176.67623632 C43.9194981 118.4508143 43.95535063 60.22540845 44 2 C29.81 2 15.62 2 1 2 C1.08232594 60.90661669 1.17393227 119.81321071 1.28005161 178.71978946 C1.29257719 185.67419543 1.30500555 192.62860158 1.31738281 199.58300781 C1.31861614 200.27504571 1.31984946 200.96708361 1.32112016 201.68009236 C1.36103241 224.10104823 1.39452786 246.52200808 1.42468691 268.94297901 C1.45659986 292.64188449 1.49584314 316.34076589 1.54279006 340.03964686 C1.57067154 354.23352544 1.59270609 368.42738836 1.60726251 382.62128696 C1.61780432 392.35446455 1.63562653 402.08761184 1.65916704 411.8207666 C1.67253393 417.43630068 1.68269729 423.0517923 1.68421364 428.66734314 C1.68567383 433.81219131 1.69631153 438.95693728 1.71413441 444.10175404 C1.71896975 445.9592846 1.72048685 447.81682751 1.71827881 449.67436305 C1.70870328 459.31506237 1.9276834 468.52782882 4 478 C4.66 478 5.32 478 6 478 C6 480.31 6 482.62 6 485 C-1.18567597 474.22148605 -0.56457134 460.94799625 -0.48101807 448.54934692 C-0.48276524 446.6068553 -0.48627281 444.6643646 -0.49137473 442.72187889 C-0.50026988 437.41745067 -0.48438652 432.11334879 -0.46426249 426.80896211 C-0.44692279 421.07636717 -0.45283879 415.34378934 -0.45587158 409.61117554 C-0.45796483 399.69010209 -0.4454583 389.76913421 -0.42292023 379.84808731 C-0.39035563 365.50409126 -0.37998864 351.16014604 -0.37496826 336.81611703 C-0.36622261 313.54160722 -0.33966131 290.2671549 -0.30175781 266.99267578 C-0.26498964 244.38916312 -0.23667013 221.78566551 -0.21972656 199.18212891 C-0.21920046 198.48475211 -0.21867435 197.78737531 -0.21813231 197.06886587 C-0.21285799 190.0651895 -0.20775477 183.06151301 -0.20277687 176.05783641 C-0.16104948 117.37185393 -0.09049826 58.68592727 0 0 Z " fill="#F3A64D" transform="translate(38,218)"/>
<path d="M0 0 C0.79719955 0.00222061 1.59439911 0.00444122 2.41575623 0.00672913 C3.31661453 0.00680466 4.21747284 0.00688019 5.14562988 0.00695801 C6.12478867 0.01211929 7.10394745 0.01728058 8.11277771 0.02259827 C9.11018478 0.02401321 10.10759186 0.02542816 11.13522339 0.02688599 C14.3348027 0.03250337 17.53431315 0.04505881 20.73387146 0.05775452 C22.89728191 0.06276728 25.06069345 0.06733057 27.22410583 0.07142639 C32.53988471 0.08247845 37.85562317 0.09923348 43.17137146 0.12025452 C43.20559794 44.68146911 43.23740738 89.24268514 43.25605774 133.8039093 C43.25633385 134.46311424 43.25660997 135.12231918 43.25689445 135.80150003 C43.26287985 150.12676509 43.26842027 164.45203029 43.27350212 178.77729569 C43.27599686 185.8020971 43.27858996 192.82689847 43.28123474 199.85169983 C43.28149626 200.55076317 43.28175778 201.24982652 43.28202722 201.9700736 C43.29055448 224.64096662 43.3055805 247.3118497 43.3239659 269.98273669 C43.34335443 293.93398326 43.35536067 317.88522332 43.35954845 341.83647752 C43.36229774 356.19008245 43.37099262 370.54365883 43.38720439 384.89725497 C43.39774619 394.72941028 43.40097847 404.56155074 43.39837421 414.3937113 C43.39708854 420.07307375 43.39911033 425.75238617 43.40978241 431.43173981 C43.41947115 436.62549612 43.42003501 441.81916845 43.41316925 447.01292852 C43.41231992 448.89724193 43.41489395 450.78156046 43.42113782 452.66586372 C43.42910365 455.21705802 43.42487469 457.76794471 43.41746712 460.31913376 C43.42272114 461.05945937 43.42797517 461.79978498 43.43338841 462.5625447 C43.40693904 466.56314254 43.01993111 468.42313522 41.17137146 472.12025452 C41.50137146 317.02025452 41.83137146 161.92025452 42.17137146 2.12025452 C27.98137146 2.12025452 13.79137146 2.12025452 -0.82862854 2.12025452 C-0.82196671 7.90965073 -0.81530487 13.69904694 -0.80844116 19.66387939 C-0.74878471 72.71435109 -0.70397202 125.76482158 -0.67543255 178.81531901 C-0.67169047 185.76372532 -0.66780082 192.71213154 -0.66383362 199.66053772 C-0.66344134 200.35199609 -0.66304906 201.04345446 -0.6626449 201.75586612 C-0.64985563 224.17726711 -0.62731781 246.59864546 -0.59973688 269.02003273 C-0.57064927 292.70920671 -0.55264367 316.39836162 -0.54636306 340.0875538 C-0.5422401 354.28301797 -0.52920305 368.47841713 -0.50487914 382.6738613 C-0.48906065 392.39903513 -0.48421934 402.1241752 -0.48812441 411.84936097 C-0.49005202 417.46608908 -0.48703049 423.08270335 -0.47101212 428.69941139 C-0.45646627 433.83712459 -0.45564149 438.97464683 -0.46593186 444.11236862 C-0.4672046 445.9751678 -0.46335416 447.83797865 -0.45397899 449.70075466 C-0.44200691 452.2254635 -0.44838731 454.7494755 -0.45948505 457.27417278 C-0.45160401 458.00384965 -0.44372297 458.73352652 -0.43560311 459.48531482 C-0.47934995 463.86467508 -1.14025557 466.63551628 -3.82862854 470.12025452 C-6.01612854 471.43275452 -6.01612854 471.43275452 -7.82862854 472.12025452 C-6.45362854 469.62025452 -6.45362854 469.62025452 -4.82862854 467.12025452 C-4.16862854 467.12025452 -3.50862854 467.12025452 -2.82862854 467.12025452 C-2.82900826 466.13459238 -2.82938798 465.14893024 -2.82977921 464.13339955 C-2.85217122 405.78039477 -2.86930468 347.42739003 -2.87969387 289.07438189 C-2.88094126 282.07575674 -2.88223781 275.0771316 -2.88356018 268.07850647 C-2.88369094 267.38204053 -2.8838217 266.6855746 -2.88395642 265.96800363 C-2.88822158 243.37314888 -2.89573573 220.77829662 -2.90492576 198.18344338 C-2.91461546 174.31686235 -2.92062214 150.45028308 -2.92271703 126.58370012 C-2.92409261 112.27769548 -2.92844503 97.97169798 -2.93654501 83.66569554 C-2.94181044 73.87000728 -2.9434333 64.07432275 -2.94212992 54.27863318 C-2.94148622 48.61788453 -2.94250762 42.95714843 -2.94783401 37.29640198 C-2.95266644 32.12317734 -2.95296823 26.9499738 -2.94952744 21.77674823 C-2.94910159 19.89652711 -2.95039863 18.01630471 -2.95351172 16.13608611 C-2.95747312 13.59769659 -2.95539355 11.05938514 -2.95167637 8.52099705 C-2.95430338 7.77599909 -2.9569304 7.03100112 -2.95963702 6.26342747 C-2.93928343 0.19329355 -2.93928343 0.19329355 0 0 Z " fill="#EC9D3F" transform="translate(427.82862854003906,217.87974548339844)"/>
<path d="M0 0 C3.39646106 13.58584423 -0.2639678 28.01538818 -1 42 C154.43 42 309.86 42 470 42 C469.33237998 21.48043178 469.33237998 21.48043178 468 1 C476.9504558 9.9504558 472 40.75333233 472 44 C315.25 44 158.5 44 -3 44 C-3 6 -3 6 0 0 Z " fill="#F2A544" transform="translate(20,151)"/>
<path d="M0 0 C0.70800335 -0.00175304 1.41600669 -0.00350607 2.14546469 -0.00531223 C4.53589981 -0.00999223 6.92627465 -0.00750162 9.31671238 -0.00507832 C11.04061783 -0.00694528 12.76452287 -0.00924552 14.48842722 -0.01194364 C19.23978938 -0.01808216 23.99113401 -0.01792564 28.74249923 -0.01674926 C33.86118301 -0.01654577 38.97986108 -0.02205902 44.09854221 -0.02680683 C54.13193505 -0.035125 64.16532201 -0.03786219 74.198718 -0.03841921 C82.35078797 -0.03889378 90.50285599 -0.0409456 98.65492535 -0.04411983 C121.7480261 -0.05292932 144.84112221 -0.05753871 167.93422466 -0.05678936 C169.18004171 -0.0567494 170.42585875 -0.05670945 171.70942783 -0.05666828 C172.95675906 -0.0566274 174.20409029 -0.05658652 175.48921943 -0.0565444 C195.7136292 -0.05613777 215.93802036 -0.0657109 236.16242474 -0.07980665 C256.90956803 -0.09415309 277.65670223 -0.1010778 298.40385062 -0.10021287 C310.05952462 -0.09988032 321.71517911 -0.10265288 333.37084866 -0.11339092 C343.29306632 -0.12247315 353.21525565 -0.12468998 363.13747566 -0.1178815 C368.20320346 -0.11460483 373.2688768 -0.11460074 378.33459949 -0.12323475 C382.96756477 -0.13105021 387.60043195 -0.12971949 392.23339469 -0.12095062 C393.91371543 -0.11940464 395.59404332 -0.12127267 397.27435564 -0.12681069 C399.55038976 -0.1338181 401.82607473 -0.128619 404.10209656 -0.12025452 C405.36873624 -0.12047188 406.63537593 -0.12068925 407.94039863 -0.12091321 C410.93100233 0.11424723 412.60715223 0.54847818 415.11396885 2.12863445 C414.22867908 2.12961126 413.3433893 2.13058807 412.43127257 2.13159448 C359.97315192 2.18985416 307.51507274 2.26364159 255.05700329 2.35762073 C248.75966714 2.36888903 242.46233076 2.38002746 236.16499424 2.39108562 C234.28444812 2.39439115 234.28444812 2.39439115 232.36591118 2.39776345 C212.06063813 2.43314523 191.75536511 2.4580044 171.45007265 2.47898147 C150.6182259 2.50073649 129.78641918 2.5337841 108.95460647 2.57733601 C96.09810698 2.60385782 83.24165739 2.62154931 70.38513189 2.62798049 C61.57144542 2.63323273 52.75782176 2.64944426 43.94416893 2.67430011 C38.85757903 2.68832062 33.77110159 2.69748382 28.68449116 2.69364262 C24.02640929 2.69023167 19.3685676 2.70060155 14.71053492 2.72186997 C13.0266795 2.72713695 11.34279914 2.72737372 9.65894396 2.72203008 C1.21233117 2.69795849 -5.89789733 3.06719377 -13.88603115 6.12863445 C-16.11639398 5.71692067 -16.11639398 5.71692067 -17.88603115 5.12863445 C-16.61647815 4.48028791 -15.34533409 3.8350563 -14.07353115 3.19113445 C-13.36583584 2.83148602 -12.65814053 2.47183758 -11.9289999 2.1012907 C-7.79570521 0.13343147 -4.54053418 0.00252548 0 0 Z " fill="#F3A94E" transform="translate(51.88603115081787,128.87136554718018)"/>
<path d="M0 0 C-11.45184243 5.82949085 -22.96118871 7.45258707 -35.69587708 7.36749268 C-37.01216038 7.37076152 -38.32844368 7.37403036 -39.68461436 7.37739825 C-43.29979772 7.38596345 -46.91471994 7.37605915 -50.5298804 7.36285591 C-54.44327506 7.35188064 -58.35664771 7.35838304 -62.27005005 7.36264038 C-69.91983271 7.36825268 -77.56951449 7.35799998 -85.21927998 7.34235242 C-94.13455035 7.32475769 -103.04980153 7.32339201 -111.96508654 7.32273683 C-127.87249802 7.32105157 -143.77986374 7.30526902 -159.68725586 7.28125 C-175.11304097 7.2579752 -190.53879708 7.24382213 -205.96459961 7.24023438 C-206.91548656 7.24001161 -207.86637351 7.23978884 -208.84607521 7.23955932 C-210.76175179 7.23911671 -212.67742836 7.23867469 -214.59310494 7.23823325 C-215.53815688 7.23801369 -216.48320881 7.23779412 -217.45689869 7.2375679 C-218.39961053 7.23735192 -219.34232238 7.23713593 -220.31360124 7.2369134 C-235.03255481 7.23321089 -249.75150372 7.22185319 -264.47045216 7.2094375 C-269.79936114 7.20500746 -275.12826967 7.20156706 -280.45717976 7.19881538 C-288.90685038 7.19437881 -297.35650377 7.18658979 -305.80616353 7.17204097 C-309.66538082 7.16544634 -313.524583 7.16037004 -317.38380623 7.15958023 C-321.56890547 7.15864545 -325.75395258 7.14994481 -329.93904114 7.14044189 C-331.76427731 7.14174162 -331.76427731 7.14174162 -333.62638694 7.1430676 C-339.51322611 7.12298716 -345.17948588 6.89806694 -351 6 C-351 5.67 -351 5.34 -351 5 C-350.34757423 4.99864347 -349.69514845 4.99728694 -349.0229522 4.99588931 C-310.25015393 4.9150255 -271.47739128 4.82398475 -232.70464797 4.71994839 C-228.03649728 4.70743134 -223.36834637 4.69499828 -218.70019531 4.68261719 C-217.77095296 4.68015119 -216.84171061 4.6776852 -215.8843094 4.67514448 C-200.88984255 4.63555236 -185.89536828 4.60274549 -170.90087999 4.57250018 C-155.48510322 4.54125203 -140.06935755 4.50258694 -124.65361583 4.45720994 C-115.16139789 4.42949769 -105.66920238 4.40739102 -96.17695515 4.39273749 C-89.64457485 4.38209578 -83.1122383 4.36417129 -76.57989116 4.34083296 C-72.82586417 4.32762617 -69.07189774 4.31732817 -65.3178463 4.31578636 C-51.38329626 4.30791209 -37.4876873 4.14996777 -23.58224487 3.16757202 C-22.53903175 3.09870462 -21.49581862 3.02983722 -20.42099297 2.95888293 C-14.85733529 2.5097696 -10.04597806 1.60236822 -4.85453045 -0.4824537 C-3 -1 -3 -1 0 0 Z " fill="#EFAB5F" transform="translate(437,736)"/>
<path d="M0 0 C0.99 0.495 0.99 0.495 2 1 C1.99924056 1.97725328 1.99848112 2.95450655 1.99769866 3.96137357 C1.95286563 61.88084112 1.91862308 119.80030823 1.89786934 177.71978946 C1.89537472 184.67419561 1.89278161 191.62860172 1.89013672 198.58300781 C1.8898752 199.27504571 1.88961368 199.96708361 1.88934424 200.68009236 C1.88082531 223.10105998 1.86580549 245.52201751 1.84740556 267.94297901 C1.82799226 291.64186843 1.81600535 315.34074935 1.81182301 339.03964686 C1.80907875 353.23353953 1.80041099 367.42740321 1.78416707 381.62128696 C1.77359552 391.35445006 1.77039977 401.08759817 1.77299725 410.8207666 C1.77427826 416.436312 1.77231383 422.05180674 1.76158905 427.66734314 C1.75183511 432.81217366 1.75137904 437.95691957 1.75820221 443.10175404 C1.75904515 444.95929208 1.75652633 446.81683547 1.75023364 448.67436305 C1.71947254 458.31837077 1.92048525 467.52449569 4 477 C4.66 477 5.32 477 6 477 C6 479.31 6 481.62 6 484 C-1.17873246 473.2319013 -0.56467698 459.97448376 -0.48101807 447.58731079 C-0.48276525 445.64894396 -0.48627285 443.71057806 -0.49137473 441.77221715 C-0.50026966 436.47919024 -0.48438684 431.18649039 -0.46426249 425.8935051 C-0.44692246 420.17318022 -0.45283881 414.45287247 -0.45587158 408.73252869 C-0.45796481 398.83273607 -0.4454585 388.93304924 -0.42292023 379.03328323 C-0.39035535 364.72005626 -0.37998861 350.40688023 -0.37496826 336.09362023 C-0.36622265 312.86902465 -0.33966147 289.64448669 -0.30175781 266.41992188 C-0.26498952 243.86491182 -0.23667007 221.30991686 -0.21972656 198.75488281 C-0.21920046 198.05900007 -0.21867435 197.36311732 -0.21813231 196.64614722 C-0.21285799 189.65747425 -0.20775477 182.66880115 -0.20277687 175.68012796 C-0.16104962 117.12004821 -0.09049852 58.56002442 0 0 Z " fill="#D88E35" transform="translate(38,219)"/>
<path d="M0 0 C6.39037231 -0.02527062 12.78073183 -0.04283317 19.17114258 -0.05493164 C21.34692873 -0.05997308 23.52271147 -0.06680607 25.69848633 -0.07543945 C28.81853067 -0.08751338 31.93853038 -0.09323005 35.05859375 -0.09765625 C36.52733192 -0.10539818 36.52733192 -0.10539818 38.02574158 -0.11329651 C39.37702904 -0.11340981 39.37702904 -0.11340981 40.75561523 -0.11352539 C41.95141457 -0.11685631 41.95141457 -0.11685631 43.17137146 -0.12025452 C45 0 45 0 46 1 C46.08460328 3.11392843 46.09681402 5.23075784 46.08229065 7.34632874 C46.07906152 8.01688575 46.07583239 8.68744276 46.07250541 9.37831968 C46.06037129 11.64167352 46.04101102 13.90490947 46.02172852 16.16821289 C46.01159197 17.78410074 46.00189762 19.39999142 45.99261475 21.0158844 C45.96607121 25.41655002 45.93330466 29.81715035 45.89946485 34.21776509 C45.86518351 38.81153026 45.83656415 43.40533052 45.80735779 47.99913025 C45.75114446 56.70437234 45.68980012 65.4095705 45.62663645 74.11476463 C45.55499406 84.02267506 45.48903504 93.93062073 45.42356598 103.83857358 C45.28872501 124.22576149 45.14670591 144.61289424 45 165 C44.67 165 44.34 165 44 165 C44 111.21 44 57.42 44 2 C30.14 2 16.28 2 2 2 C1.34 1.34 0.68 0.68 0 0 Z " fill="#F39128" transform="translate(38,218)"/>
<path d="M0 0 C6.39037231 -0.02527062 12.78073183 -0.04283317 19.17114258 -0.05493164 C21.34692873 -0.05997308 23.52271147 -0.06680607 25.69848633 -0.07543945 C28.81853067 -0.08751338 31.93853038 -0.09323005 35.05859375 -0.09765625 C36.52733192 -0.10539818 36.52733192 -0.10539818 38.02574158 -0.11329651 C39.37702904 -0.11340981 39.37702904 -0.11340981 40.75561523 -0.11352539 C41.95141457 -0.11685631 41.95141457 -0.11685631 43.17137146 -0.12025452 C45 0 45 0 46 1 C46.07258946 3.18639453 46.08373783 5.37500389 46.0625 7.5625 C46.05347656 8.76003906 46.04445312 9.95757812 46.03515625 11.19140625 C46.02355469 12.11824219 46.01195312 13.04507813 46 14 C45.67 14 45.34 14 45 14 C44.505 8.555 44.505 8.555 44 3 C42.73816895 2.98018066 41.47633789 2.96036133 40.17626953 2.93994141 C35.50581508 2.86401235 30.8356774 2.77527588 26.16552734 2.68261719 C24.14215334 2.64427479 22.11870994 2.60943129 20.09521484 2.578125 C17.19082797 2.53258831 14.28692106 2.47457591 11.3828125 2.4140625 C10.47443634 2.40251129 9.56606018 2.39096008 8.63015747 2.37905884 C7.78943695 2.35918915 6.94871643 2.33931946 6.08251953 2.31884766 C4.96999313 2.29886215 4.96999313 2.29886215 3.83499146 2.2784729 C2 2 2 2 0 0 Z " fill="#F0A445" transform="translate(38,218)"/>
<path d="M0 0 C4.17677912 -0.10044978 8.35287985 -0.17219399 12.53051758 -0.21972656 C13.945356 -0.23958394 15.36011531 -0.26667966 16.7746582 -0.30175781 C27.66707721 -0.5646916 39.21720551 -0.29788188 48 7 C44.07044712 6.58196246 40.8102669 5.96514628 37.15234375 4.47265625 C30.71364959 2.28248523 24.22708396 2.64050525 17.5 2.75 C16.23285156 2.75515625 14.96570313 2.7603125 13.66015625 2.765625 C7.03308957 2.82079309 0.56836267 3.11469894 -6 4 C-5.67 3.34 -5.34 2.68 -5 2 C-3.35 2 -1.7 2 0 2 C0 1.34 0 0.68 0 0 Z " fill="#F99A31" transform="translate(239,43)"/>
<path d="M0 0 C0.33 0 0.66 0 1 0 C1.01213028 1.1627243 1.01213028 1.1627243 1.02450562 2.34893799 C1.10289358 9.70341132 1.19031188 17.05769872 1.28752708 24.41194534 C1.33718065 28.19158611 1.3835095 31.97120302 1.421875 35.75097656 C1.45912362 39.40806066 1.50558228 43.06492858 1.55806351 46.72182465 C1.57639984 48.10741073 1.5915817 49.49304277 1.60334396 50.87870026 C1.67856235 59.44439965 2.30082514 67.59693725 4 76 C4.66 76 5.32 76 6 76 C6 78.31 6 80.62 6 83 C-0.4692147 73.29617796 -0.56341095 61.43895071 -0.390625 50.1953125 C-0.3831392 48.73559353 -0.37745738 47.27586432 -0.37347412 45.81613159 C-0.35840116 42.02499284 -0.3192853 38.23449411 -0.2746582 34.44360352 C-0.23330249 30.55493827 -0.21537826 26.66616681 -0.1953125 22.77734375 C-0.15276686 15.18460806 -0.08474749 7.59239463 0 0 Z " fill="#DE8F2B" transform="translate(38,620)"/>
<path d="M0 0 C1.62610337 4.22786875 0.65453403 5.03639791 -1 10 C7.58 9.67 16.16 9.34 25 9 C25 9.99 25 10.98 25 12 C16.09 12 7.18 12 -2 12 C-3.01527342 7.93890631 -3.05430484 7.33033162 -1.5625 3.75 C-1.27503906 3.04359375 -0.98757812 2.3371875 -0.69140625 1.609375 C-0.46324219 1.07828125 -0.23507813 0.5471875 0 0 Z " fill="#F29A38" transform="translate(137,104)"/>
<path d="M0 0 C3.89184452 -0.10059445 7.78316254 -0.17225841 11.67602539 -0.21972656 C13.63389776 -0.24919327 15.59141099 -0.30007758 17.54882812 -0.3515625 C26.39002268 -0.44154921 33.72305602 0.89011996 42 4 C38.60263201 5.132456 36.42368246 4.94138856 32.875 4.625 C31.79992187 4.53476562 30.72484375 4.44453125 29.6171875 4.3515625 C27 4 27 4 26 3 C20.37889911 1.99223291 14.76016642 1.7018024 9.0625 1.4375 C7.75055664 1.37272461 7.75055664 1.37272461 6.41210938 1.30664062 C4.27488005 1.20153099 2.13745762 1.10036015 0 1 C0 0.67 0 0.34 0 0 Z " fill="#F7BA6D" transform="translate(243,17)"/>
<path d="M0 0 C-0.62648438 0.27714844 -1.25296875 0.55429687 -1.8984375 0.83984375 C-2.71570313 1.20207031 -3.53296875 1.56429687 -4.375 1.9375 C-5.18710937 2.29714844 -5.99921875 2.65679688 -6.8359375 3.02734375 C-8.23683785 3.6569903 -9.62625284 4.31312642 -11 5 C-13.03232634 5.08527628 -15.06747006 5.10716135 -17.1015625 5.09765625 C-18.31328125 5.09443359 -19.525 5.09121094 -20.7734375 5.08789062 C-22.04445313 5.07951172 -23.31546875 5.07113281 -24.625 5.0625 C-25.90375 5.05798828 -27.1825 5.05347656 -28.5 5.04882812 C-31.66671292 5.03701203 -34.83333356 5.02053815 -38 5 C-38 4.67 -38 4.34 -38 4 C-37.25951416 3.95512451 -36.51902832 3.91024902 -35.75610352 3.86401367 C-32.35732612 3.65094331 -28.96004537 3.41935828 -25.5625 3.1875 C-23.81549805 3.08211914 -23.81549805 3.08211914 -22.03320312 2.97460938 C-15.89189097 2.5421226 -10.50085822 1.87126951 -4.78491211 -0.4831543 C-3 -1 -3 -1 0 0 Z " fill="#FB9315" transform="translate(437,736)"/>
<path d="M0 0 C-3.60568512 3.48233273 -7.47747576 3.668248 -12.25 4.0625 C-16.7160662 4.46309741 -20.96511004 4.9237361 -25.296875 6.12109375 C-28.7814326 6.94812483 -29.79240439 7.00646947 -33 6 C-11.53305085 -0.3720339 -11.53305085 -0.3720339 0 0 Z " fill="#F69E3B" transform="translate(246,18)"/>
<path d="M0 0 C1.44826172 0.02707031 1.44826172 0.02707031 2.92578125 0.0546875 C5.28492033 0.10140313 7.64191075 0.16687863 10 0.25 C10 0.58 10 0.91 10 1.25 C8.94941406 1.28738281 7.89882813 1.32476562 6.81640625 1.36328125 C-2.37498447 1.67276061 -2.37498447 1.67276061 -11.25 3.875 C-14.9491178 5.23134319 -15.55118337 5.39451879 -19 4.25 C-12.43849566 0.3192875 -7.56678248 -0.27136048 0 0 Z " fill="#F19F3B" transform="translate(53,129.75)"/>
<path d="M0 0 C8.25 0.33 16.5 0.66 25 1 C25 1.33 25 1.66 25 2 C24.38068604 2.02505615 23.76137207 2.0501123 23.12329102 2.07592773 C20.26955112 2.19322658 17.41603559 2.31533586 14.5625 2.4375 C13.10166992 2.49647461 13.10166992 2.49647461 11.61132812 2.55664062 C5.69938401 2.81368167 -0.12645997 3.27719621 -6 4 C-5.67 3.34 -5.34 2.68 -5 2 C-3.35 2 -1.7 2 0 2 C0 1.34 0 0.68 0 0 Z " fill="#F5A044" transform="translate(239,43)"/>
<path d="M0 0 C0.33 0 0.66 0 1 0 C1.04898438 0.65484375 1.09796875 1.3096875 1.1484375 1.984375 C1.72866606 9.067165 2.74299706 16.0071584 4 23 C4.66 23 5.32 23 6 23 C6 25.31 6 27.62 6 30 C0.10992 21.16488 -0.61696331 10.31699764 0 0 Z " fill="#ED9B3E" transform="translate(38,673)"/>
<path d="M0 0 C0.66 0.33 1.32 0.66 2 1 C-0.16578772 3.72728824 -2.35829708 6.41913428 -4.625 9.0625 C-6.5019652 11.38400959 -7.84977551 13.28128756 -9 16 C-9.66 16 -10.32 16 -11 16 C-9.45364633 9.127317 -4.82740069 4.82740069 0 0 Z " fill="#F3A54C" transform="translate(32,135)"/>
<path d="M0 0 C0 4.10746566 -1.63960436 5.19754861 -4.375 8.1875 C-5.18710938 9.08855469 -5.99921875 9.98960938 -6.8359375 10.91796875 C-9 13 -9 13 -11 13 C-11 13.66 -11 14.32 -11 15 C-11.66 15 -12.32 15 -13 15 C-11.38989473 10.92623969 -8.46177729 8.23492931 -5.375 5.25 C-4.859375 4.74339844 -4.34375 4.23679687 -3.8125 3.71484375 C-2.54616661 2.47196098 -1.2736856 1.23534724 0 0 Z " fill="#FEEDC8" transform="translate(192,67)"/>
<path d="M0 0 C-5.36190101 2.61407872 -10.03435204 4.49228528 -16 5 C-14.68 4.67 -13.36 4.34 -12 4 C-12 3.34 -12 2.68 -12 2 C-10.56656 1.46809459 -9.12804633 0.94984742 -7.6875 0.4375 C-6.48673828 0.00244141 -6.48673828 0.00244141 -5.26171875 -0.44140625 C-3 -1 -3 -1 0 0 Z " fill="#F39E37" transform="translate(437,736)"/>
<path d="M0 0 C0.66 0 1.32 0 2 0 C2.598125 1.093125 3.19625 2.18625 3.8125 3.3125 C5.29044697 5.91074129 6.69822933 8.04349493 9 10 C8.67 10.99 8.34 11.98 8 13 C1.48063781 4.738041 1.48063781 4.738041 0 0 Z " fill="#F29C31" transform="translate(46,708)"/>
<path d="M0 0 C1.9375 0.625 1.9375 0.625 4 2 C4.75 5.125 4.75 5.125 5 8 C5.66 8 6.32 8 7 8 C7 9.98 7 11.96 7 14 C5.22475618 11.33713427 3.79992512 8.73318314 2.375 5.875 C1.92898438 4.98554687 1.48296875 4.09609375 1.0234375 3.1796875 C0 1 0 1 0 0 Z " fill="#F6A138" transform="translate(337,91)"/>
<path d="M0 0 C0.8125 1.625 0.8125 1.625 1 4 C-0.46818136 6.24609835 -2.15852858 8.02378677 -4 10 C-4.33 9.34 -4.66 8.68 -5 8 C-4.2578125 6.30859375 -4.2578125 6.30859375 -3.125 4.4375 C-2.75632813 3.81746094 -2.38765625 3.19742188 -2.0078125 2.55859375 C-1 1 -1 1 0 0 Z " fill="#FAD99E" transform="translate(176,84)"/>
<path d="M0 0 C0.33 0.99 0.66 1.98 1 3 C-0.98 3.99 -0.98 3.99 -3 5 C-3 5.66 -3 6.32 -3 7 C-3.99 6.67 -4.98 6.34 -6 6 C-2.25 1.125 -2.25 1.125 0 0 Z " fill="#F9A23F" transform="translate(171,50)"/>
<path d="M0 0 C0 0.99 0 1.98 0 3 C-1.65 3.33 -3.3 3.66 -5 4 C-5 4.66 -5 5.32 -5 6 C-6.32 5.67 -7.64 5.34 -9 5 C-7.87926138 4.16094435 -6.75325453 3.32892169 -5.625 2.5 C-4.99851563 2.0359375 -4.37203125 1.571875 -3.7265625 1.09375 C-2 0 -2 0 0 0 Z " fill="#F6A34A" transform="translate(190,36)"/>
<path d="M0 0 C0.66 0.33 1.32 0.66 2 1 C1.01 2.485 1.01 2.485 0 4 C-0.99 4 -1.98 4 -3 4 C-3 4.66 -3 5.32 -3 6 C-4.32 5.67 -5.64 5.34 -7 5 C-4.69 3.35 -2.38 1.7 0 0 Z " fill="#FADCAE" transform="translate(444,730)"/>
<path d="M0 0 C0.33 0.66 0.66 1.32 1 2 C-0.33332095 5.99996286 -2.4957827 6.83782337 -6 9 C-4.47291037 5.56404834 -2.40072955 2.88087546 0 0 Z " fill="#F5AE58" transform="translate(158,64)"/>
<path d="M0 0 C0.33 1.32 0.66 2.64 1 4 C-0.98 4.99 -2.96 5.98 -5 7 C-3.70700306 4.11562221 -2.34058637 2.12780579 0 0 Z " fill="#F9A546" transform="translate(164,57)"/>
<path d="M0 0 C3.86648272 1.04097612 7.49461443 2.03698408 11 4 C6.78121808 4.19622241 3.82989106 3.80230168 0 2 C0 1.34 0 0.68 0 0 Z " fill="#FEEDD1" transform="translate(281,49)"/>
</svg>
