<?xml version="1.0" encoding="UTF-8"?>
<svg xmlns="http://www.w3.org/2000/svg" xmlns:xlink="http://www.w3.org/1999/xlink" width="px" height="px" viewBox="0 0 381 567" version="1.1" fill="transparent">
<g id="surface1">
<path style=" stroke:none;fill-rule:nonzero;fill:rgb(99.607843%,99.607843%,99.607843%);fill-opacity:1;" d="M 0 0 L 381 0 L 381 566.515625 C 380.691406 566.710938 380.390625 566.84375 380.035156 566.921875 C 378.15625 567.347656 375.472656 566.996094 373.492188 566.996094 L 356.925781 567 L 5.589844 567 C 4.007812 567 1.308594 567.347656 0 566.515625 Z M 0 0 "/>
<path style=" stroke:none;fill-rule:nonzero;fill:rgb(99.607843%,58.823532%,0%);fill-opacity:1;" d="M 186.777344 13.136719 C 207.367188 12.429688 226.207031 17.851562 243.242188 29.464844 C 260.019531 40.902344 271.519531 57.015625 278.28125 76.03125 C 279.511719 79.488281 280.976562 83.09375 281.65625 86.699219 C 276.027344 86.703125 265.332031 87.757812 260.429688 86.460938 C 256.839844 75.945312 252.378906 66.269531 245.023438 57.789062 C 242.707031 55.117188 240.046875 52.847656 237.324219 50.605469 C 225.371094 40.765625 211.324219 34.90625 195.832031 33.773438 C 181.820312 33.019531 168.761719 35.632812 156.320312 42.222656 C 138.96875 51.410156 126.910156 68.328125 121.238281 86.820312 C 115.128906 87.308594 106.007812 87.335938 99.96875 86.382812 C 100.238281 85.351562 100.519531 84.328125 100.820312 83.308594 C 101.121094 82.289062 101.433594 81.273438 101.765625 80.261719 C 102.097656 79.25 102.441406 78.246094 102.804688 77.246094 C 103.164062 76.246094 103.542969 75.253906 103.933594 74.265625 C 104.324219 73.273438 104.730469 72.292969 105.152344 71.316406 C 105.574219 70.339844 106.011719 69.371094 106.460938 68.40625 C 106.914062 67.445312 107.378906 66.488281 107.859375 65.539062 C 108.339844 64.59375 108.835938 63.652344 109.34375 62.71875 C 109.851562 61.785156 110.375 60.859375 110.914062 59.941406 C 111.449219 59.023438 112 58.113281 112.566406 57.210938 C 113.128906 56.3125 113.707031 55.417969 114.300781 54.535156 C 114.890625 53.652344 115.496094 52.78125 116.117188 51.914062 C 116.734375 51.050781 117.367188 50.195312 118.011719 49.347656 C 118.65625 48.503906 119.3125 47.667969 119.984375 46.84375 C 120.652344 46.015625 121.335938 45.203125 122.03125 44.398438 C 122.726562 43.59375 123.433594 42.796875 124.152344 42.015625 C 139.945312 24.726562 163.429688 14.175781 186.777344 13.136719 Z M 186.777344 13.136719 "/>
<path style=" stroke:none;fill-rule:nonzero;fill:rgb(99.607843%,58.823532%,0%);fill-opacity:1;" d="M 109.53125 97.035156 L 273.878906 97.113281 L 321.308594 97.09375 C 329.765625 97.089844 339.183594 96.453125 347.539062 97.585938 C 352.257812 98.226562 356.710938 100.632812 360.097656 103.945312 C 371.15625 114.765625 368.695312 131.949219 368.933594 146.003906 C 336.746094 146.171875 304.5625 146.179688 272.375 146.023438 L 133.839844 146.011719 C 93.488281 146.375 53.136719 146.414062 12.785156 146.128906 L 12.777344 145.648438 C 12.714844 141.710938 12.761719 137.761719 12.777344 133.824219 C 12.816406 123.089844 13.460938 112.476562 21.46875 104.328125 C 24.433594 101.3125 28.027344 99.101562 32.15625 98.117188 C 39.570312 96.347656 51.4375 97.164062 59.324219 97.136719 Z M 109.53125 97.035156 "/>
<path style=" stroke:none;fill-rule:nonzero;fill:rgb(99.607843%,58.823532%,0%);fill-opacity:1;" d="M 318.875 163.890625 C 330.515625 163.5 342.160156 163.519531 353.800781 163.957031 C 353.820312 177.164062 353.414062 190.410156 353.363281 203.628906 L 353.417969 491.070312 C 353.410156 511.796875 353.714844 528.417969 337.90625 544.136719 C 332.445312 549.566406 325.652344 554.058594 318.011719 555.542969 C 307.804688 557.523438 296.933594 556.792969 286.578125 556.800781 L 243.722656 556.824219 L 89.972656 556.867188 C 81.707031 556.847656 67.328125 557.460938 59.820312 554.878906 C 53.777344 552.804688 47.769531 548.03125 43.296875 543.519531 C 42.816406 543.035156 42.34375 542.535156 41.882812 542.027344 C 41.421875 541.523438 40.96875 541.003906 40.527344 540.480469 C 40.089844 539.957031 39.65625 539.421875 39.238281 538.878906 C 38.816406 538.339844 38.410156 537.789062 38.011719 537.230469 C 37.613281 536.671875 37.226562 536.105469 36.851562 535.53125 C 36.476562 534.957031 36.113281 534.375 35.761719 533.789062 C 35.410156 533.199219 35.070312 532.605469 34.742188 532.003906 C 34.414062 531.402344 34.097656 530.792969 33.792969 530.179688 C 33.488281 529.5625 33.195312 528.941406 32.917969 528.316406 C 32.636719 527.691406 32.371094 527.058594 32.117188 526.421875 C 31.863281 525.785156 31.621094 525.144531 31.394531 524.5 C 31.164062 523.851562 30.949219 523.199219 30.746094 522.546875 C 30.546875 521.890625 30.355469 521.230469 30.179688 520.570312 C 30.003906 519.90625 29.839844 519.242188 29.691406 518.574219 C 29.539062 517.902344 29.40625 517.230469 29.28125 516.558594 C 29.160156 515.882812 29.050781 515.207031 28.953125 514.527344 C 28.109375 508.902344 28.191406 503.046875 28.15625 497.367188 L 28.15625 475.359375 L 28.230469 405.628906 L 28.234375 163.890625 L 33.75 163.75 C 43.453125 163.546875 53.398438 163.347656 63.078125 163.992188 C 63.210938 168.585938 62.839844 173.296875 62.75 177.902344 C 62.347656 199 62.695312 220.140625 62.664062 241.242188 L 62.753906 385.519531 L 62.878906 466.796875 L 62.933594 495.492188 C 62.980469 500.222656 62.902344 505.023438 63.242188 509.742188 C 63.421875 512.214844 64.011719 514.488281 65.800781 516.300781 C 68.941406 519.484375 72.808594 519.863281 77.039062 519.9375 C 93.132812 520.21875 109.253906 520.003906 125.351562 520.035156 L 228.816406 520.117188 L 280.683594 519.976562 C 289.742188 519.964844 301.113281 520.574219 309.890625 519.585938 C 312.46875 519.292969 314.484375 518.027344 316.304688 516.222656 C 317.960938 514.585938 318.359375 512.996094 318.546875 510.722656 C 318.894531 506.445312 318.71875 502.054688 318.734375 497.761719 L 318.792969 475.601562 L 318.894531 406.25 L 319.015625 249.316406 L 318.960938 193.609375 C 318.933594 183.707031 318.722656 173.789062 318.875 163.890625 Z M 318.875 163.890625 "/>
<path style=" stroke:none;fill-rule:nonzero;fill:rgb(99.607843%,58.823532%,0%);fill-opacity:1;" d="M 258.4375 317.136719 C 273.597656 317.027344 288.828125 316.878906 303.980469 317.378906 C 303.515625 332.167969 303.957031 346.957031 303.941406 361.75 L 303.988281 453.964844 L 304.117188 486.417969 C 304.128906 493.066406 304.328125 499.804688 303.867188 506.4375 C 303.609375 506.605469 303.3125 506.738281 303.011719 506.804688 C 300.066406 507.464844 293.277344 507.132812 289.921875 507.105469 C 281.789062 507.003906 273.660156 506.945312 265.527344 506.929688 L 163.917969 506.855469 L 138.007812 506.890625 C 133.695312 506.902344 129.140625 507.207031 124.855469 506.878906 C 124.390625 506.839844 124.023438 506.691406 123.632812 506.445312 C 123.320312 506.632812 123.027344 506.765625 122.671875 506.835938 C 119.796875 507.394531 109.742188 506.964844 106.378906 506.976562 L 88.921875 507.039062 C 85.6875 507.058594 82.34375 507.257812 79.121094 507.046875 C 78.53125 507.007812 78.066406 506.847656 77.566406 506.527344 C 77.023438 496.855469 77.476562 486.914062 77.492188 477.222656 L 77.582031 421.265625 L 77.617188 353.128906 C 77.628906 341.308594 77.261719 329.367188 77.738281 317.558594 C 84.273438 316.898438 91.183594 317.304688 97.757812 317.296875 L 134.300781 317.273438 Z M 258.4375 317.136719 "/>
</g>
</svg>
