<?xml version="1.0" encoding="utf-8" ?>
<svg xmlns="http://www.w3.org/2000/svg" xmlns:xlink="http://www.w3.org/1999/xlink" width="508" height="756">
	<path fill="#FEFEFE" d="M0 0L508 0L508 755.354C507.591 755.612 507.19 755.79 506.715 755.897C504.207 756.464 500.632 755.996 497.989 755.997L475.899 756.002L383.781 756L7.45484 755.998C5.3446 755.998 1.74521 756.465 0 755.354L0 0Z"/>
	<path fill="#FE9600" d="M249.038 17.5144C276.487 16.5727 301.61 23.8029 324.324 39.2866C346.691 54.5341 362.026 76.0196 371.044 101.375C372.683 105.983 374.635 110.792 375.54 115.6C368.038 115.602 353.777 117.008 347.241 115.281C342.453 101.259 336.505 88.3582 326.699 77.0541C323.609 73.4918 320.063 70.4627 316.431 67.4727C300.494 54.3554 281.768 46.5421 261.107 45.032C242.429 44.0244 225.015 47.5113 208.427 56.296C185.29 68.5493 169.212 91.104 161.653 115.761C153.505 116.41 141.346 116.45 133.291 115.176Q133.828 113.118 134.427 111.078Q135.027 109.038 135.688 107.017Q136.349 104.995 137.072 102.995Q137.795 100.995 138.578 99.0183Q139.361 97.0412 140.204 95.0889Q141.047 93.1365 141.949 91.2108Q142.852 89.2851 143.812 87.3878Q144.773 85.4904 145.79 83.6233Q146.808 81.7561 147.883 79.9207Q148.957 78.0854 150.087 76.2837Q151.216 74.482 152.4 72.7155Q153.584 70.949 154.822 69.2195Q156.059 67.4899 157.349 65.7988Q158.638 64.1077 159.979 62.4568Q161.319 60.8058 162.709 59.1964Q164.099 57.587 165.538 56.0207C186.593 32.9695 217.908 18.9032 249.038 17.5144Z"/>
	<path fill="#FE9600" d="M146.04 129.379L365.173 129.485L428.409 129.459C439.685 129.454 452.246 128.604 463.386 130.114C469.678 130.968 475.617 134.179 480.131 138.595C494.873 153.021 491.595 175.931 491.912 194.674Q427.54 195.01 363.167 194.696L178.451 194.684Q97.7502 195.405 17.0483 194.84L17.0364 194.198C16.9514 188.947 17.0156 183.684 17.0356 178.431C17.09 164.12 17.949 149.971 28.6268 139.102C32.5769 135.081 37.3716 132.138 42.8734 130.825C52.7609 128.465 68.5854 129.55 79.0989 129.515L146.04 129.379Z"/>
	<path fill="#FE9600" d="M425.166 218.523Q448.451 217.736 471.732 218.609C471.76 236.221 471.218 253.879 471.15 271.503L471.226 654.763C471.214 682.396 471.622 704.555 450.542 725.515C443.258 732.757 434.202 738.746 424.014 740.724C410.407 743.365 395.914 742.39 382.105 742.4L324.964 742.431L119.965 742.489C108.945 742.466 89.773 743.282 79.7586 739.841C71.7047 737.073 63.6924 730.707 57.73 724.695Q56.7671 723.719 55.8439 722.705Q54.9207 721.691 54.0387 720.641Q53.1567 719.591 52.3172 718.507Q51.4778 717.423 50.6822 716.306Q49.8867 715.189 49.1363 714.042Q48.3859 712.894 47.6819 711.717Q46.9779 710.541 46.3213 709.337Q45.6648 708.133 45.0568 706.904Q44.4488 705.675 43.8903 704.423Q43.3318 703.17 42.8237 701.897Q42.3156 700.623 41.8586 699.331Q41.4017 698.038 40.9967 696.728Q40.5917 695.418 40.2392 694.093Q39.8868 692.768 39.5875 691.43Q39.2882 690.092 39.0424 688.743Q38.7967 687.394 38.605 686.036C37.4777 678.535 37.5879 670.728 37.5422 663.154L37.5437 633.815L37.6394 540.84L37.648 218.522L45.002 218.331C57.9364 218.06 71.1973 217.797 84.1026 218.654C84.2837 224.782 83.7869 231.063 83.6689 237.203C83.1281 265.333 83.595 293.521 83.5546 321.657L83.6702 514.028L83.8401 622.396L83.9124 660.658C83.975 666.965 83.87 673.366 84.3225 679.654C84.5599 682.953 85.3503 685.985 87.7324 688.399C91.9233 692.647 97.077 693.149 102.72 693.249C124.177 693.627 145.672 693.338 167.133 693.38L305.086 693.488L374.246 693.303C386.321 693.289 401.486 694.101 413.186 692.782C416.627 692.393 419.31 690.701 421.741 688.299C423.95 686.116 424.481 683.993 424.728 680.965C425.194 675.263 424.959 669.406 424.977 663.681L425.055 634.134L425.194 541.666L425.356 332.422L425.28 258.144C425.247 244.944 424.963 231.72 425.166 218.523Z"/>
	<path fill="#FE9600" d="M344.585 422.851C364.799 422.703 385.103 422.504 405.307 423.174C404.687 442.893 405.275 462.608 405.257 482.332L405.32 605.284L405.487 648.559C405.507 657.422 405.769 666.406 405.155 675.248C404.813 675.473 404.417 675.653 404.017 675.742C400.09 676.619 391.037 676.176 386.561 676.142Q370.299 675.938 354.036 675.906L218.556 675.806L184.012 675.855C178.258 675.872 172.19 676.278 166.473 675.836C165.853 675.788 165.362 675.588 164.843 675.262C164.426 675.508 164.038 675.686 163.562 675.779C159.729 676.527 146.322 675.953 141.839 675.968L118.564 676.053C114.251 676.08 109.793 676.345 105.494 676.06C104.71 676.008 104.086 675.795 103.42 675.37C102.697 662.476 103.302 649.22 103.322 636.297L103.441 561.689L103.492 470.838C103.504 455.076 103.015 439.154 103.653 423.413C112.363 422.53 121.579 423.071 130.346 423.06L179.068 423.029L344.585 422.851Z"/>
</svg>
