<?xml version="1.0" encoding="UTF-8"?>
<svg version="1.1" xmlns="http://www.w3.org/2000/svg" width="509" height="758">
<path d="M0 0 C167.97 0 335.94 0 509 0 C509 250.14 509 500.28 509 758 C341.03 758 173.06 758 0 758 C0 507.86 0 257.72 0 0 Z " fill="#FEFCFC" transform="translate(0,0)"/>
<path d="M0 0 C99.66 0 199.32 0 302 0 C302.04033135 100.33991522 302.04033135 100.33991522 302.04882812 142.13867188 C302.05078615 151.70694989 302.05280667 161.27522788 302.05493164 170.84350586 C302.05519539 172.0428161 302.05545914 173.24212635 302.05573088 174.47777933 C302.06008609 193.86685792 302.06797314 213.25593356 302.0771528 232.6450104 C302.08648793 252.52758323 302.09205531 272.41015451 302.09408849 292.29272944 C302.09546401 304.57190988 302.09981616 316.851082 302.10791647 329.13025988 C302.1131822 337.53831256 302.11480469 345.9463609 302.11350138 354.35441511 C302.11285773 359.21315904 302.11387855 364.07188836 302.11920547 368.93062973 C302.12403856 373.37108801 302.12433925 377.81152172 302.12089889 382.25198109 C302.12047311 383.86571683 302.12176961 385.47945405 302.12488318 387.09318685 C302.12884578 389.27215673 302.12676428 391.45103571 302.12304783 393.63000393 C302.12342755 394.84472927 302.12380727 396.0594546 302.1241985 397.3109898 C302 400 302 400 301 401 C299.39444999 401.09707186 297.78460531 401.12371608 296.17612362 401.12304783 C295.12529913 401.1250387 294.07447464 401.12702957 292.99180698 401.12908077 C291.82387576 401.12616811 290.65594454 401.12325544 289.45262146 401.12025452 C288.22560013 401.12111053 286.9985788 401.12196655 285.734375 401.12284851 C282.30616218 401.12422189 278.87800566 401.12106228 275.44979958 401.11607273 C271.7045782 401.11172471 267.95935838 401.1131661 264.21413517 401.11389065 C256.93477833 401.11442363 249.65543376 401.10979347 242.37608007 401.10338932 C233.96104596 401.09620676 225.5460193 401.09539553 217.13098145 401.09460449 C194.89981901 401.08934799 172.66865932 401.07538697 150.4375 401.0625 C75.9709375 401.0315625 75.9709375 401.0315625 0 401 C0 268.67 0 136.34 0 0 Z " fill="#FC0404" transform="translate(106,275)"/>
<path d="M0 0 C15.51 0 31.02 0 47 0 C47.00142502 5.82475983 47.00285004 11.64951965 47.00431824 17.65078735 C47.01968685 71.03073876 47.0597452 124.41063548 47.12685562 177.79054598 C47.13563959 184.78272702 47.14417821 191.77490835 47.15258789 198.76708984 C47.15342894 199.46290198 47.15426999 200.15871413 47.15513652 200.87561148 C47.18229028 223.43552013 47.19323762 245.99540132 47.19579524 268.55532503 C47.19858556 292.39229291 47.21981145 316.22917727 47.26052457 340.06611192 C47.28432238 354.34911007 47.29330805 368.63196137 47.28351311 382.91497664 C47.27820878 392.7014124 47.2911724 402.48771625 47.3186629 412.27411444 C47.33399327 417.92544678 47.34111448 423.57648399 47.32659721 429.22782516 C47.31349218 434.39843343 47.32324821 439.56846845 47.35143773 444.73901181 C47.35757212 446.6125838 47.35520818 448.48620624 47.34362926 450.35975249 C47.32914385 452.90186933 47.34525901 455.44201463 47.36914349 457.98401833 C47.35761276 458.71588122 47.34608204 459.44774411 47.3342019 460.20178467 C47.43976928 465.87977999 49.1177677 468.15305624 53 472 C56.36026694 474.24017796 57.45358037 474.25219336 61.38117695 474.26006222 C62.50510328 474.26712781 63.6290296 474.2741934 64.78701431 474.2814731 C66.02706841 474.27905802 67.26712252 474.27664293 68.54475403 474.27415466 C70.51460464 474.28200968 70.51460464 474.28200968 72.52425021 474.29002339 C76.17721565 474.30423595 79.83009614 474.30586607 83.48308527 474.30542648 C87.41980739 474.30707183 91.35649421 474.32013305 95.29319763 474.33161926 C103.90471793 474.35449031 112.51621362 474.36239212 121.12776017 474.36744571 C126.50304612 474.37070025 131.8783249 474.37722126 137.2536068 474.3844471 C152.13116253 474.40401569 167.00871158 474.42041841 181.88628101 474.42332363 C182.8387371 474.4235112 183.79119319 474.42369877 184.77251158 474.42389202 C186.70344237 474.42425828 188.63437317 474.42462198 190.56530396 474.42498314 C192.003114 474.42525735 192.003114 474.42525735 193.4699707 474.42553711 C194.90953209 474.42580793 194.90953209 474.42580793 196.37817552 474.42608423 C211.93245618 474.42962664 227.48659847 474.45665202 243.04083113 474.494035 C259.00351768 474.53209319 274.96613553 474.55148093 290.92886847 474.55178314 C299.89405757 474.55236827 308.8590816 474.5608959 317.82422829 474.58978081 C325.45761911 474.61426147 333.09078467 474.62160012 340.7242041 474.60653328 C344.6197207 474.59935069 348.5147922 474.60027915 352.41025925 474.62294388 C356.63193376 474.64727146 360.85259005 474.63293615 365.07429504 474.61473083 C366.30765699 474.6279308 367.54101893 474.64113077 368.81175548 474.65473074 C375.7216027 474.70743655 375.7216027 474.70743655 381.68285656 471.64907932 C384.07025805 469.03575468 384.07025805 469.03575468 386 466 C386.66 466 387.32 466 388 466 C388 312.22 388 158.44 388 0 C403.18 0 418.36 0 434 0 C434.09045039 59.11030454 434.16206002 118.22059904 434.20426132 177.33095801 C434.20925047 184.31154049 434.21443671 191.29212282 434.21972656 198.27270508 C434.2202496 198.96734039 434.22077263 199.6619757 434.22131152 200.37766056 C434.23834331 222.87467862 434.26837836 245.37165638 434.30518888 267.86865005 C434.34403366 291.65220503 434.36799327 315.43572884 434.37635398 339.21931547 C434.38183884 353.46083692 434.39915436 367.70224262 434.43166587 381.94372844 C434.45283086 391.7133658 434.45919552 401.48294343 434.45400551 411.25260205 C434.45144686 416.88680604 434.45533329 422.52080795 434.4768219 428.15497589 C434.49637821 433.32039812 434.49721126 438.48548358 434.48359558 443.65092175 C434.48191435 445.51255594 434.48691117 447.37421169 434.49953273 449.23580385 C434.58941708 463.32025009 433.63789766 484.51996748 423.59765625 495.5390625 C422.80681641 496.26222656 422.80681641 496.26222656 422 497 C419.95105894 499.5859619 417.94248704 502.20015898 415.9375 504.8203125 C414 507 414 507 411 508 C411 508.66 411 509.32 411 510 C406.56684415 514.25695728 401.8850476 516.74980608 396.3125 519.25 C395.55388672 519.600625 394.79527344 519.95125 394.01367188 520.3125 C388.97605797 522.62455581 385.01999353 524.12494345 379.39459324 524.12584114 C377.63370234 524.12975276 377.63370234 524.12975276 375.83723789 524.13374341 C374.54134627 524.13151268 373.24545465 524.12928196 371.91029358 524.12698364 C370.52462184 524.12813522 369.13895041 524.129723 367.75327963 524.13171089 C363.93684308 524.13589919 360.12043143 524.13381574 356.30399477 524.13072467 C352.1914564 524.12846875 348.0789224 524.13195116 343.96638489 524.13470459 C335.90619436 524.13915933 327.84601312 524.13818709 319.78582222 524.13529195 C313.23653672 524.1330366 306.68725384 524.13272597 300.13796806 524.13381577 C299.20700805 524.133969 298.27604803 524.13412223 297.31687711 524.13428011 C295.42583263 524.13459982 293.53478816 524.13492404 291.64374369 524.1352527 C273.89651098 524.13810666 256.14928342 524.13482186 238.40205156 524.12945233 C223.16524859 524.1249851 207.92845323 524.12575972 192.69165039 524.13037109 C175.01090429 524.13571959 157.33016271 524.13783121 139.64941591 524.13475883 C137.76489317 524.13444027 135.88037044 524.1341259 133.9958477 524.13381577 C133.06855446 524.13366149 132.14126123 524.13350721 131.18586819 524.13334826 C124.6429292 524.13248388 118.09999307 524.13394431 111.55705452 524.13629532 C103.58550471 524.1390966 95.61396475 524.13834813 87.64241607 524.13301457 C83.57313372 524.1303819 79.50386781 524.12936519 75.43458557 524.13266373 C71.71205036 524.1356356 67.98954688 524.13401889 64.26701456 524.12868617 C62.27684485 524.12703359 60.28667295 524.13031166 58.29650551 524.13374341 C56.53170299 524.12983178 56.53170299 524.12983178 54.7312479 524.12584114 C53.71370475 524.12567879 52.69616161 524.12551644 51.64778382 524.12534916 C49.27166072 524.01286073 47.27022879 523.68050976 45 523 C45 522.34 45 521.68 45 521 C43.97777344 520.90847656 42.95554688 520.81695313 41.90234375 520.72265625 C29.78633859 518.47895159 20.0684744 508.46875306 13.1875 498.8125 C12.10540464 497.22148568 11.04221821 495.61741712 10 494 C9.50371094 493.29359375 9.00742187 492.5871875 8.49609375 491.859375 C6.26094332 487.5874948 5.13839558 483.07524107 3.875 478.4375 C3.61074219 477.49197266 3.34648438 476.54644531 3.07421875 475.57226562 C2.37214173 473.0508469 1.67715879 470.52822034 1 468 C0.82481844 467.45212082 0.64963688 466.90424164 0.46914679 466.33976007 C-0.20299 462.98763476 -0.13523222 459.66530055 -0.12304783 456.26134872 C-0.12420167 455.47332796 -0.12535552 454.68530719 -0.12654433 453.87340701 C-0.12920397 451.21683288 -0.12469415 448.56031863 -0.12025452 445.90374756 C-0.12069035 443.98638782 -0.12156548 442.06902815 -0.12284368 440.15166879 C-0.12508623 434.87036837 -0.12107061 429.58908812 -0.11606562 424.30779028 C-0.11175789 418.61728254 -0.11320778 412.926776 -0.1139679 407.23626709 C-0.11449292 397.37289916 -0.11134831 387.50953784 -0.10573006 377.64617157 C-0.09761222 363.38529748 -0.09499954 349.1244266 -0.09374207 334.86355045 C-0.09155199 311.72771663 -0.08490169 288.59188657 -0.07543945 265.45605469 C-0.06625692 242.97819029 -0.05917237 220.50032683 -0.05493164 198.02246094 C-0.05480011 197.3297451 -0.05466859 196.63702926 -0.05453308 195.92332203 C-0.05321457 188.96686295 -0.05193875 182.01040387 -0.05069422 175.05394478 C-0.04025094 116.70262741 -0.02232467 58.351314 0 0 Z " fill="#F90403" transform="translate(40,218)"/>
<path d="M0 0 C1.70437529 -0.00302675 3.40874922 -0.00691883 5.11312079 -0.01159257 C9.75965594 -0.02181316 14.40611341 -0.01970606 19.05265474 -0.01541197 C24.07787678 -0.01293403 29.10308063 -0.02197189 34.1282959 -0.02944946 C43.9569924 -0.04216689 53.78566155 -0.04399402 63.61436489 -0.0416492 C71.60307893 -0.03986331 79.59178469 -0.04162148 87.58049774 -0.04587364 C88.71916248 -0.04646883 89.85782723 -0.04706402 91.03099696 -0.04767724 C93.34440218 -0.04888903 95.65780739 -0.05010317 97.9712126 -0.05131962 C119.63969289 -0.06218284 141.3081576 -0.06003788 162.97663876 -0.05393478 C182.79538278 -0.04876133 202.6140777 -0.06003452 222.43281201 -0.07903299 C242.79839164 -0.09840571 263.16394805 -0.10666873 283.52953696 -0.10290974 C294.9572103 -0.10099753 306.38484181 -0.10348768 317.81250763 -0.11762428 C327.53594055 -0.12953147 337.25930587 -0.13095002 346.98273972 -0.11883412 C351.94197238 -0.11294209 356.90108133 -0.11185521 361.86030579 -0.12383652 C366.40252119 -0.13468289 370.94450938 -0.13160678 375.48671409 -0.11757483 C377.12710861 -0.1149246 378.76752086 -0.1173047 380.40789798 -0.1253107 C395.03610513 -0.19173316 404.56536596 1.81031418 415.55511475 11.82319641 C428.93486986 26.7320664 423.74261475 47.52043379 423.74261475 66.26069641 C267.32261475 66.26069641 110.90261475 66.26069641 -50.25738525 66.26069641 C-50.25738525 20.46247025 -50.25738525 20.46247025 -37.25738525 7.26069641 C-36.41176025 6.31194641 -35.56613525 5.36319641 -34.69488525 4.38569641 C-26.36082358 -2.14831475 -10.14734344 -0.02581325 0 0 Z " fill="#F80101" transform="translate(70.25738525390625,128.7393035888672)"/>
<path d="M0 0 C34.59463075 0.03603607 64.23603981 12.16490995 89.1875 36.25 C90.3940625 37.36181641 90.3940625 37.36181641 91.625 38.49609375 C104.98222055 51.13443611 114.64286265 68.81962071 120.1875 86.25 C120.6 87.3225 121.0125 88.395 121.4375 89.5 C122.1875 92.25 122.1875 92.25 122.1875 99.25 C112.9475 99.25 103.7075 99.25 94.1875 99.25 C92.1875 92.25 92.1875 92.25 91.6171875 90.08984375 C84.80739101 66.73511917 65.98097798 50.1044616 45.4296875 38.72265625 C43.04197681 37.49137597 40.63917276 36.34776392 38.1875 35.25 C37.37925781 34.88132813 36.57101562 34.51265625 35.73828125 34.1328125 C25.45717741 29.71048526 15.34372272 28.93829214 4.25 29.0625 C3.16009766 29.06314453 2.07019531 29.06378906 0.94726562 29.06445312 C-9.62041097 29.12096476 -19.72364405 29.27435476 -29.6875 33.0625 C-30.74710938 33.4347168 -30.74710938 33.4347168 -31.828125 33.81445312 C-36.28601446 35.44265996 -39.90183839 37.5193244 -43.8125 40.25 C-45.52498715 41.22126137 -47.23774231 42.19227851 -48.96289062 43.14086914 C-60.37125005 49.42325942 -68.66407884 56.66259088 -74.8125 68.25 C-75.4725 68.25 -76.1325 68.25 -76.8125 68.25 C-77.08191406 68.97703125 -77.35132813 69.7040625 -77.62890625 70.453125 C-78.78729284 73.19043457 -80.1465045 75.50295357 -81.75 78 C-84.19283971 81.98443758 -85.8198576 85.74352758 -87.1640625 90.203125 C-88.07290438 93.07199937 -89.31491671 95.64550731 -90.8125 98.25 C-93.52651294 99.60700647 -95.66096316 99.3623861 -98.6953125 99.34765625 C-99.86191406 99.34443359 -101.02851563 99.34121094 -102.23046875 99.33789062 C-103.45378906 99.32951172 -104.67710937 99.32113281 -105.9375 99.3125 C-107.16855469 99.30798828 -108.39960938 99.30347656 -109.66796875 99.29882812 C-112.71619392 99.2870133 -115.76432314 99.27054028 -118.8125 99.25 C-118.90668112 92.72989661 -118.90668112 92.72989661 -117.1875 89.3125 C-115.55180755 85.89763331 -114.09607192 82.46167189 -112.74169922 78.92504883 C-103.02819118 53.71405118 -85.87962302 32.48031235 -62.8125 18.25 C-61.92949219 17.67894531 -61.04648438 17.10789062 -60.13671875 16.51953125 C-54.59420944 13.02852616 -48.954421 10.49532522 -42.8125 8.25 C-42.08804688 7.97285156 -41.36359375 7.69570313 -40.6171875 7.41015625 C-38.68866273 6.67321047 -36.75084122 5.96072512 -34.8125 5.25 C-33.92691406 4.91355469 -33.04132813 4.57710937 -32.12890625 4.23046875 C-28.09373378 3.03750257 -24.17587144 2.59689916 -20 2.1875 C-12.91863238 1.47524274 -7.28851435 0.01886491 0 0 Z " fill="#F50405" transform="translate(254.8125,16.75)"/>
<path d="M0 0 C15.18 0 30.36 0 46 0 C46.06781217 59.17839814 46.12153118 118.35679065 46.15319599 177.53521933 C46.15693794 184.52095684 46.16082761 191.50669426 46.16479492 198.49243164 C46.1651872 199.18758999 46.16557948 199.88274833 46.16598364 200.59897208 C46.17876368 223.12393979 46.20129461 245.6488849 46.22889166 268.17383893 C46.25800675 291.98111568 46.27599091 315.78837494 46.28226548 339.59566945 C46.28638287 353.85560603 46.29938982 368.1154777 46.3237494 382.37539431 C46.33960089 392.15247261 46.34440167 401.92951734 46.34050413 411.70660756 C46.33858169 417.34838217 46.34153958 422.99004332 46.35761642 428.63179779 C46.37223459 433.79943123 46.3729398 438.9668751 46.36269668 444.13451733 C46.36143103 446.00146091 46.36522021 447.86841639 46.37464955 449.73533658 C46.41988206 459.24593663 46.35361425 467.94440902 43 477 C42.67 477 42.34 477 42 477 C41.97269592 475.43759968 41.95346774 473.8750573 41.9375 472.3125 C41.92589844 471.44238281 41.91429687 470.57226562 41.90234375 469.67578125 C42 467 42 467 42.49743694 464.82021552 C43.13004234 461.27024598 43.14373373 457.79332788 43.1386652 454.20077038 C43.14150742 453.41834926 43.14434964 452.63592815 43.14727798 451.8297973 C43.15562443 449.19830377 43.15689316 446.56685427 43.15821838 443.93534851 C43.16278377 442.03362401 43.16778375 440.1319005 43.17318195 438.23017818 C43.18677516 432.99675317 43.19418485 427.76333467 43.20060861 422.52989662 C43.20860735 416.88916057 43.22230694 411.24843809 43.23532104 405.60771179 C43.25709126 395.83222058 43.27523376 386.05672799 43.29092598 376.2812252 C43.31361963 362.14741461 43.34176317 348.01361903 43.37124526 333.87982116 C43.41892735 310.94975362 43.46219835 288.01968075 43.50268555 265.08959961 C43.54203014 242.81257652 43.58345139 220.53555887 43.62768555 198.25854492 C43.62904808 197.57193683 43.63041061 196.88532874 43.63181442 196.17791435 C43.64549973 189.28274841 43.65922728 182.38758255 43.67298577 175.49241675 C43.78837632 117.66162255 43.89636499 59.83081639 44 2 C30.14 2 16.28 2 2 2 C2 154.79 2 307.58 2 465 C1.34 465.33 0.68 465.66 0 466 C0 312.22 0 158.44 0 0 Z " fill="#DF1F20" transform="translate(428,218)"/>
<path d="M0 0 C1.22596039 3.67788118 0.84310077 4.78449613 0 9 C-0.33 19.89 -0.66 30.78 -1 42 C154.43 42 309.86 42 470 42 C469.92933835 21.40970532 469.92933835 21.40970532 468 1 C477.78791359 10.78791359 471 40.09846149 471 44 C314.58 44 158.16 44 -3 44 C-3 6 -3 6 0 0 Z " fill="#E3484A" transform="translate(23,151)"/>
<path d="M0 0 C-5.42561531 5.42561531 -12.58994777 5.35262928 -19.80816865 5.39656812 C-21.08949607 5.38919383 -22.37082348 5.38181955 -23.690979 5.3742218 C-25.08096869 5.37696503 -26.4709563 5.38101937 -27.86093879 5.38626546 C-31.66615241 5.39682213 -35.47113009 5.38874309 -39.27633333 5.37751496 C-43.38538395 5.36865597 -47.49440426 5.37712124 -51.60345459 5.38337708 C-59.64627822 5.39285621 -67.68901201 5.38627355 -75.73182896 5.37411413 C-85.09621283 5.36048447 -94.46057537 5.36213276 -103.82496664 5.36424746 C-120.52948839 5.36743588 -137.23396746 5.35577674 -153.93847656 5.33618164 C-170.15333352 5.3171659 -186.3681405 5.31009746 -202.58300781 5.31567383 C-220.23999173 5.32172818 -237.89695368 5.3215618 -255.55393577 5.310188 C-257.43557215 5.30898069 -259.31720853 5.30777471 -261.19884491 5.30657005 C-262.58757236 5.30566475 -262.58757236 5.30566475 -264.00435491 5.30474115 C-270.53482973 5.30085866 -277.06529637 5.30125685 -283.59577179 5.3031559 C-291.54891656 5.30527536 -299.50201751 5.30007233 -307.45514992 5.28554235 C-311.51435467 5.27828692 -315.57349551 5.27423115 -319.63270569 5.27878571 C-323.34582849 5.28285072 -327.05881913 5.27772933 -330.77192184 5.26515963 C-332.75687953 5.26082753 -334.74185108 5.2663347 -336.72680497 5.27214891 C-337.90025649 5.26631671 -339.073708 5.26048452 -340.28271866 5.25447559 C-341.29755144 5.25360882 -342.31238423 5.25274204 -343.35796952 5.251849 C-346.05137143 4.99510307 -347.69716746 4.37958734 -350 3 C-348.93493398 2.99796521 -348.93493398 2.99796521 -347.84835148 2.99588931 C-305.76990514 2.91524772 -263.6914921 2.82429659 -221.61309755 2.71994839 C-216.56123839 2.70742945 -211.50937903 2.69499668 -206.45751953 2.68261719 C-205.45178084 2.68015119 -204.44604214 2.6776852 -203.40982652 2.67514448 C-187.12282668 2.63541555 -170.8358199 2.60266879 -154.54879987 2.57250018 C-137.838117 2.54139148 -121.1274636 2.50278455 -104.41681385 2.45720994 C-94.10460063 2.4293222 -83.79240897 2.40729038 -73.48016816 2.39273749 C-66.40968483 2.38219932 -59.33924326 2.36438099 -52.26879138 2.34083296 C-48.18890165 2.32746009 -44.10907046 2.3173018 -40.02915764 2.31578636 C-36.29205693 2.31432736 -32.55509717 2.30370209 -28.81803977 2.28586559 C-26.82970261 2.27873762 -24.84133785 2.28134887 -22.85299015 2.28433573 C-15.15380542 2.23602793 -7.48120549 -0.46757534 0 0 Z " fill="#EE272B" transform="translate(435,737)"/>
<path d="M0 0 C107.58 0.33 215.16 0.66 326 1 C325.67 1.66 325.34 2.32 325 3 C284.03018114 3.06861366 243.06036975 3.12150208 202.09050496 3.15319599 C197.25752079 3.15694827 192.42453673 3.16083122 187.59155273 3.16479492 C186.62936171 3.16558185 185.66717068 3.16636878 184.67582235 3.16717956 C169.08056968 3.18024607 153.48535006 3.20390675 137.89011701 3.23145839 C121.89703909 3.25947799 105.90397851 3.27616895 89.91087705 3.28226548 C80.03621646 3.28638909 70.16164929 3.29942959 60.28701744 3.3237494 C53.52261162 3.3395641 46.75825434 3.34441008 39.99383136 3.34050413 C36.08665644 3.3385759 32.17964517 3.3416047 28.27249908 3.35761642 C24.04326731 3.37482221 19.81438735 3.36899203 15.58512878 3.36076355 C13.71890854 3.37387134 13.71890854 3.37387134 11.81498688 3.38724393 C10.68736036 3.38127078 9.55973384 3.37529764 8.39793682 3.36914349 C6.93240621 3.37085223 6.93240621 3.37085223 5.43726891 3.37259549 C3 3 3 3 0 0 Z " fill="#F2C5CC" transform="translate(93,690)"/>
<path d="M0 0 C1.71150117 -0.00087395 3.42300208 -0.0026284 5.13450158 -0.00517833 C9.80035399 -0.00961869 14.46611338 -0.00169415 19.13195395 0.00837779 C24.17742629 0.01705812 29.22289387 0.0140889 34.26837158 0.01257324 C42.99768174 0.01152728 51.72696188 0.01777365 60.4562645 0.02904892 C73.07718724 0.04534018 85.69809555 0.05051563 98.31902768 0.0530249 C118.79831549 0.05739632 139.27758732 0.07069041 159.75686646 0.08963013 C179.64423544 0.10800325 199.53160007 0.12215274 219.41897583 0.13064575 C220.64593988 0.1311712 221.87290393 0.13169665 223.13704871 0.13223802 C229.29269715 0.13484819 235.44834563 0.13737558 241.60399413 0.13986182 C292.62778162 0.1605771 343.65155177 0.19578755 394.67532349 0.24050903 C394.67532349 0.57050903 394.67532349 0.90050903 394.67532349 1.24050903 C393.81271229 1.24186556 392.9501011 1.24322209 392.06135017 1.24461973 C340.92235757 1.32529087 289.78339209 1.41625413 238.64444195 1.52056064 C232.50247358 1.53307933 226.36050503 1.54551214 220.21853638 1.55789185 C218.99579436 1.56035784 217.77305234 1.56282383 216.51325753 1.56536455 C196.72154329 1.6050752 176.92982336 1.63783005 157.13809256 1.66800885 C136.82603977 1.69913608 116.51401115 1.73775096 96.20198554 1.78329909 C83.67102762 1.81116332 71.14008735 1.83320534 58.6091068 1.84777154 C50.01312687 1.85832343 41.41718114 1.87615629 32.82122699 1.89967607 C27.86377954 1.91302656 22.90637996 1.92320378 17.94891357 1.92472267 C13.40416124 1.9261862 8.85952405 1.93685784 4.31480714 1.95464344 C2.67663897 1.95946643 1.03845685 1.96100178 -0.59971692 1.95878784 C-16.6976402 1.31088139 -16.6976402 1.31088139 -31.38717651 6.26394653 C-32.02655151 7.03996216 -32.66592651 7.81597778 -33.32467651 8.61550903 C-34.02592651 9.4211731 -34.72717651 10.22683716 -35.44967651 11.05691528 C-36.06842651 11.77750122 -36.68717651 12.49808716 -37.32467651 13.24050903 C-38.31467651 14.00363403 -39.30467651 14.76675903 -40.32467651 15.55300903 C-42.59637867 17.46975773 -42.743087 18.42949305 -43.32467651 21.24050903 C-44.31467651 21.57050903 -45.30467651 21.90050903 -46.32467651 22.24050903 C-45.41285965 14.49006573 -40.09759619 9.18487026 -34.38029301 4.29132736 C-25.14566316 -1.90661932 -10.83438897 -0.04160128 0 0 Z " fill="#DA4D52" transform="translate(70.32467651367188,128.75949096679688)"/>
<path d="M0 0 C52.69830054 -0.11443397 105.39658853 -0.20254311 158.09498888 -0.25532665 C164.31593029 -0.26158021 170.53687145 -0.26805182 176.7578125 -0.2746582 C178.61553554 -0.27662553 178.61553554 -0.27662553 180.51078834 -0.2786326 C200.56646905 -0.30039159 220.62207814 -0.33981589 240.67771636 -0.38576398 C261.25528599 -0.43251479 281.8328181 -0.4602925 302.41043866 -0.47044247 C315.10886179 -0.47730445 327.80708247 -0.49898069 340.50544329 -0.53958233 C349.21213457 -0.56600366 357.91872112 -0.57400234 366.62544958 -0.56750689 C371.6494884 -0.56430309 376.67317332 -0.56922859 381.69714928 -0.59602737 C386.29924544 -0.62039635 390.9007504 -0.6215639 395.50287403 -0.60449447 C397.16523322 -0.60238548 398.82762962 -0.60869727 400.48991583 -0.62441591 C409.43562461 -0.70406884 417.50398293 -0.62724861 425 5 C425.33 5.66 425.66 6.32 426 7 C424.783125 6.54625 423.56625 6.0925 422.3125 5.625 C410.82815705 1.84796638 399.05654061 1.70512121 387.09928894 1.7215271 C385.42164716 1.71651479 383.74400778 1.71063628 382.06637174 1.70397437 C377.48949489 1.68827345 372.91267959 1.68474919 368.33577907 1.68332577 C363.38775017 1.6796143 358.43975437 1.6644502 353.491745 1.65071106 C344.92995237 1.62848908 336.3681716 1.61344542 327.80635643 1.60334396 C315.42757022 1.58872866 303.04882532 1.56318388 290.67006341 1.53501268 C270.58400831 1.48959642 250.49794725 1.45296029 230.41186523 1.421875 C210.90566969 1.39166828 191.39948872 1.35730826 171.89331055 1.31738281 C170.68997974 1.31492126 169.48664893 1.31245972 168.24685355 1.30992357 C162.20980687 1.29754856 156.17276036 1.28509211 150.13571393 1.27259517 C100.09049631 1.16910475 50.0452605 1.07987601 0 1 C0 0.67 0 0.34 0 0 Z " fill="#E20E0E" transform="translate(55,130)"/>
<path d="M0 0 C0.33 0.99 0.66 1.98 1 3 C-2.2771055 4.94859114 -4.716523 5.24905107 -8.50536728 5.24609566 C-10.19456854 5.2520688 -10.19456854 5.2520688 -11.91789508 5.25816262 C-13.15523812 5.25233693 -14.39258115 5.24651125 -15.66741943 5.24050903 C-16.98165744 5.24221788 -18.29589545 5.24392673 -19.64995885 5.24568737 C-23.30087061 5.2501657 -26.95166534 5.24215057 -30.60256219 5.23213124 C-34.5384523 5.22350603 -38.47433564 5.22641624 -42.41023254 5.22793579 C-49.23044146 5.22898523 -56.05061216 5.22270246 -62.87081146 5.21146011 C-72.73170751 5.19521608 -82.59258505 5.18999823 -92.45349303 5.18748413 C-108.45159047 5.18310531 -124.44966753 5.16979112 -140.44775391 5.15087891 C-155.98974506 5.13252496 -171.53173067 5.11836608 -187.07373047 5.10986328 C-188.5103925 5.10907511 -188.5103925 5.10907511 -189.976078 5.10827102 C-194.7808823 5.10566097 -199.58568664 5.10313355 -204.39049101 5.10064721 C-244.26034161 5.07990887 -284.13016946 5.04467824 -324 5 C-324 4.67 -324 4.34 -324 4 C-322.98661289 3.99853479 -322.98661289 3.99853479 -321.95275331 3.99703997 C-281.93710611 3.93880412 -241.92151464 3.86503484 -201.90593483 3.77101372 C-197.10428233 3.75974517 -192.30262955 3.74860678 -187.50097656 3.73754883 C-186.54502908 3.73534514 -185.58908159 3.73314146 -184.604166 3.730871 C-169.11307935 3.69547101 -153.62199276 3.67062214 -138.13088062 3.64965298 C-122.24285451 3.62791242 -106.35488101 3.59487867 -90.46689963 3.55129844 C-80.65829754 3.52475159 -70.84976105 3.50707859 -61.04112479 3.50065396 C-54.32059834 3.49540933 -47.60015453 3.47922364 -40.87967232 3.45433434 C-36.99872578 3.44028748 -33.11792729 3.43116034 -29.23695374 3.43499184 C-25.03429608 3.43901523 -20.83206088 3.42004856 -16.62945557 3.39872742 C-15.39600348 3.40357499 -14.16255139 3.40842257 -12.89172196 3.41341704 C-11.76907119 3.4039605 -10.64642041 3.39450396 -9.48974991 3.38476086 C-8.51918474 3.38286225 -7.54861958 3.38096365 -6.54864335 3.37900752 C-3.59366584 2.93957424 -2.20612507 1.96520858 0 0 Z " fill="#D43235" transform="translate(422,689)"/>
<path d="M0 0 C10.77941622 -0.11618135 21.5586819 -0.20486081 32.33859825 -0.25906086 C37.34493606 -0.28508281 42.35084345 -0.3203448 47.35693359 -0.37719727 C52.19397804 -0.43178212 57.03061017 -0.46147613 61.867939 -0.47438622 C63.70743926 -0.48357878 65.54691861 -0.50152939 67.38624191 -0.52865028 C86.67970766 -0.8016522 86.67970766 -0.8016522 94 5 C94.495 5.99 94.495 5.99 95 7 C93.783125 6.54625 92.56625 6.0925 91.3125 5.625 C79.74727262 1.82092546 67.80898238 1.67538144 55.76171875 1.5859375 C54.1436113 1.567179 52.52551315 1.54760231 50.90742493 1.5272522 C46.69411765 1.47641858 42.48077883 1.43653542 38.26733398 1.39910889 C33.94963086 1.35875939 29.63205339 1.30780999 25.31445312 1.2578125 C16.87638865 1.16163255 8.43826079 1.07704685 0 1 C0 0.67 0 0.34 0 0 Z " fill="#E21619" transform="translate(386,130)"/>
<path d="M0 0 C7.1938954 0.06264795 14.19859109 0.55699555 21.31201172 1.63037109 C22.57621948 1.81937988 22.57621948 1.81937988 23.8659668 2.01220703 C29.66195878 2.98031816 29.66195878 2.98031816 31.93701172 5.25537109 C28.70754374 5.11577908 25.47852481 4.96759004 22.24951172 4.81787109 C21.3375 4.77855469 20.42548828 4.73923828 19.48583984 4.69873047 C18.59960938 4.65683594 17.71337891 4.61494141 16.80029297 4.57177734 C15.98858643 4.53511963 15.17687988 4.49846191 14.34057617 4.46069336 C11.93701172 4.25537109 11.93701172 4.25537109 9.58740234 3.74169922 C6.2434312 3.12810392 3.06703996 3.14372489 -0.33251953 3.15771484 C-1.01352219 3.15912979 -1.69452484 3.16054474 -2.39616394 3.16200256 C-4.55598475 3.16756811 -6.71569917 3.18011406 -8.87548828 3.19287109 C-10.3461899 3.19789055 -11.81689316 3.20245268 -13.28759766 3.20654297 C-16.87942869 3.21752621 -20.47119809 3.23476688 -24.06298828 3.25537109 C-24.06298828 2.92537109 -24.06298828 2.59537109 -24.06298828 2.25537109 C-23.10585937 2.16449219 -23.10585937 2.16449219 -22.12939453 2.07177734 C-20.88996094 1.94609375 -20.88996094 1.94609375 -19.62548828 1.81787109 C-18.80177734 1.73666016 -17.97806641 1.65544922 -17.12939453 1.57177734 C-11.53189584 0.71469342 -6.17051899 0.01019614 0 0 Z " fill="#DE3335" transform="translate(258.06298828125,16.74462890625)"/>
<path d="M0 0 C1.155 0.020625 2.31 0.04125 3.5 0.0625 C0.57453824 1.7388882 -1.34631266 2.17977356 -4.6875 2.125 C-10.2917165 2.60509762 -12.85120453 5.82947773 -16.484375 9.84375 C-18.5 12.0625 -18.5 12.0625 -21.5 14.375 C-23.77170216 16.2917487 -23.91841049 17.25148401 -24.5 20.0625 C-25.49 20.3925 -26.48 20.7225 -27.5 21.0625 C-26.54705599 12.96247589 -20.95903808 8.05437932 -15.0859375 2.921875 C-10.21737429 -0.57878374 -5.79033002 0.08126779 0 0 Z " fill="#E42C2E" transform="translate(51.5,129.9375)"/>
<path d="M0 0 C0.66 0.33 1.32 0.66 2 1 C-7.29927007 12.80291971 -7.29927007 12.80291971 -12 17 C-12.66 17 -13.32 17 -14 17 C-14.309375 17.61875 -14.61875 18.2375 -14.9375 18.875 C-16.88631508 22.77263016 -17.82313386 23.50061215 -22 25 C-17.70224125 15.22426897 -7.55644462 7.42932686 0 0 Z " fill="#E53134" transform="translate(179,44)"/>
<path d="M0 0 C0.33 0.66 0.66 1.32 1 2 C-1.45454545 7.72727273 -1.45454545 7.72727273 -4 9 C-5.9593604 9.08510205 -7.92162794 9.10717656 -9.8828125 9.09765625 C-11.04941406 9.09443359 -12.21601563 9.09121094 -13.41796875 9.08789062 C-14.64128906 9.07951172 -15.86460937 9.07113281 -17.125 9.0625 C-18.35605469 9.05798828 -19.58710938 9.05347656 -20.85546875 9.04882812 C-23.90369392 9.0370133 -26.95182314 9.02054028 -30 9 C-30 7.02 -30 5.04 -30 3 C-29.34 2.67 -28.68 2.34 -28 2 C-28 3.65 -28 5.3 -28 7 C-19.42 6.67 -10.84 6.34 -2 6 C-1.34 4.02 -0.68 2.04 0 0 Z " fill="#E2494E" transform="translate(166,107)"/>
<path d="M0 0 C2 2 2 2 2 9 C-7.24 9 -16.48 9 -26 9 C-26 7.35 -26 5.7 -26 4 C-25.17773926 4.48218994 -25.17773926 4.48218994 -24.33886719 4.97412109 C-21.61468467 6.16900783 -19.5457978 6.31514007 -16.578125 6.4140625 C-15.55332031 6.45273438 -14.52851563 6.49140625 -13.47265625 6.53125 C-12.40917969 6.5621875 -11.34570312 6.593125 -10.25 6.625 C-8.63158203 6.68300781 -8.63158203 6.68300781 -6.98046875 6.7421875 C-4.32048225 6.83634631 -1.6605006 6.92197387 1 7 C0.67 4.69 0.34 2.38 0 0 Z " fill="#D74144" transform="translate(375,107)"/>
<path d="M0 0 C-3.28388161 3.28388161 -6.50583748 4.10788365 -11.0559082 4.22705078 C-12.6375679 4.22673657 -14.21925141 4.21558257 -15.80078125 4.1953125 C-17.0553437 4.19106766 -17.0553437 4.19106766 -18.33525085 4.18673706 C-20.99448226 4.1755832 -23.65337118 4.15048763 -26.3125 4.125 C-28.12043783 4.11496399 -29.92838096 4.10583923 -31.73632812 4.09765625 C-36.15768312 4.07565959 -40.57878358 4.04116294 -45 4 C-45 3.67 -45 3.34 -45 3 C-44.07251953 2.98018066 -43.14503906 2.96036133 -42.18945312 2.93994141 C-38.71524973 2.86137684 -35.24144044 2.77467001 -31.76757812 2.68261719 C-30.27026052 2.64457165 -28.77285911 2.60967833 -27.27539062 2.578125 C-25.11037433 2.53193799 -22.94592314 2.47403983 -20.78125 2.4140625 C-19.48251953 2.3826416 -18.18378906 2.3512207 -16.84570312 2.31884766 C-11.10594248 1.84296349 -5.77820945 -0.36113809 0 0 Z " fill="#ED0A0C" transform="translate(435,737)"/>
<path d="M0 0 C-3.13691248 2.09127499 -5.71123545 2.93665084 -9.3125 4 C-12.65833317 4.99481219 -15.97578469 5.99149426 -19.26953125 7.1484375 C-22.08794885 8.02742897 -23.29046087 8.04213043 -26 7 C-18.25296556 1.98383113 -9.22297581 -0.72337065 0 0 Z " fill="#E73E40" transform="translate(234,20)"/>
<path d="M0 0 C0.66 0.33 1.32 0.66 2 1 C0.60919892 2.58775549 -0.78788404 4.17000939 -2.1875 5.75 C-2.96480469 6.63171875 -3.74210938 7.5134375 -4.54296875 8.421875 C-6.88455246 10.87886268 -9.30158265 12.94862766 -12 15 C-12.66 14.67 -13.32 14.34 -14 14 C-12.71937515 12.2925002 -11.38232443 10.62626404 -10 9 C-9.34 9 -8.68 9 -8 9 C-7.79375 8.443125 -7.5875 7.88625 -7.375 7.3125 C-5.44999226 4.07498698 -2.96149098 2.31768859 0 0 Z " fill="#F7B6BC" transform="translate(197,64)"/>
<path d="M0 0 C0.66 0 1.32 0 2 0 C2.6700834 2.12392506 3.33596797 4.24917524 4 6.375 C4.37125 7.55835938 4.7425 8.74171875 5.125 9.9609375 C6 13 6 13 6 15 C6.66 15 7.32 15 8 15 C11.10096154 20.45769231 11.10096154 20.45769231 10.58984375 23.203125 C10.39519531 23.79609375 10.20054688 24.3890625 10 25 C5.14488496 17.83061346 0 8.92531329 0 0 Z " fill="#DF2F26" transform="translate(43,692)"/>
<path d="M0 0 C0.71478516 0.08314453 1.42957031 0.16628906 2.16601562 0.25195312 C7.43190273 0.93190273 7.43190273 0.93190273 9.6875 3.1875 C6.45803202 3.04790799 3.22901309 2.89971895 0 2.75 C-0.91201172 2.71068359 -1.82402344 2.67136719 -2.76367188 2.63085938 C-4.09301758 2.56801758 -4.09301758 2.56801758 -5.44921875 2.50390625 C-6.26092529 2.46724854 -7.07263184 2.43059082 -7.90893555 2.39282227 C-10.43394485 2.17712569 -12.83850697 1.72850548 -15.3125 1.1875 C-15.3125 0.8575 -15.3125 0.5275 -15.3125 0.1875 C-9.96233743 -0.80119321 -5.37584565 -0.73239046 0 0 Z " fill="#E82D31" transform="translate(280.3125,18.8125)"/>
<path d="M0 0 C2.47251438 3.00385701 3.87685277 5.84424833 5.1875 9.5 C5.53167969 10.4384375 5.87585938 11.376875 6.23046875 12.34375 C7 15 7 15 7 19 C6.01 19 5.02 19 4 19 C3.51849058 16.95888458 3.03989917 14.91708068 2.5625 12.875 C2.16224609 11.16957031 2.16224609 11.16957031 1.75390625 9.4296875 C1.0649313 6.29538696 0.49618806 3.16982274 0 0 Z " fill="#E75057" transform="translate(368,88)"/>
<path d="M0 0 C0.5625 1.9375 0.5625 1.9375 1 4 C0 5 0 5 -2.77563477 5.11352539 C-3.98533936 5.10828857 -5.19504395 5.10305176 -6.44140625 5.09765625 C-7.74658203 5.09443359 -9.05175781 5.09121094 -10.39648438 5.08789062 C-11.7851569 5.07953401 -13.17382877 5.07106905 -14.5625 5.0625 C-15.95507656 5.05748666 -17.34765481 5.05292347 -18.74023438 5.04882812 C-22.1601987 5.03699434 -25.58007844 5.0205088 -29 5 C-29 4.67 -29 4.34 -29 4 C-28.22809326 3.98541748 -27.45618652 3.97083496 -26.66088867 3.95581055 C-23.16924907 3.88141967 -19.6785751 3.7847291 -16.1875 3.6875 C-14.97255859 3.66494141 -13.75761719 3.64238281 -12.50585938 3.61914062 C-11.34248047 3.58369141 -10.17910156 3.54824219 -8.98046875 3.51171875 C-7.37014771 3.47244263 -7.37014771 3.47244263 -5.72729492 3.43237305 C-2.73220672 2.95754526 -1.8147658 2.36552932 0 0 Z " fill="#FDD3D5" transform="translate(165,112)"/>
<path d="M0 0 C2.97 0 5.94 0 9 0 C9 0.66 9 1.32 9 2 C10.32 2 11.64 2 13 2 C13.33 2.66 13.66 3.32 14 4 C14.99 4.33 15.98 4.66 17 5 C17 5.66 17 6.32 17 7 C11.12524968 5.46745644 5.60526694 3.32330984 0 1 C0 0.67 0 0.34 0 0 Z " fill="#EB4E4F" transform="translate(284,48)"/>
<path d="M0 0 C0 0.33 0 0.66 0 1 C-6.55276707 3.28584898 -13.10401439 3.60594368 -20 4 C-14.6563309 -1.3436691 -7.00589185 -0.2040551 0 0 Z " fill="#FAC7CD" transform="translate(246,46)"/>
<path d="M0 0 C-2.81859387 2.81859387 -5.3094454 3.90923197 -9.328125 4.125 C-11.55562803 4.125 -13.77432559 4.08728135 -16 4 C-11.17353323 0.78235549 -5.80178176 -0.36261136 0 0 Z " fill="#E8242B" transform="translate(435,737)"/>
<path d="M0 0 C5.75 1.875 5.75 1.875 8 3 C8 3.66 8 4.32 8 5 C8.66 5 9.32 5 10 5 C10.33 6.65 10.66 8.3 11 10 C9.72390677 9.09066991 8.45434447 8.17217147 7.1875 7.25 C6.47980469 6.73953125 5.77210938 6.2290625 5.04296875 5.703125 C2.97022309 3.97517642 1.52624146 2.21473524 0 0 Z " fill="#E6413A" transform="translate(319,67)"/>
<path d="M0 0 C0.99 0 1.98 0 3 0 C4.29243536 4.1196377 5.26252625 7.66831683 5 12 C2.2289312 9.65408148 1.47940716 7.85223799 0.8125 4.3125 C0.65394531 3.50425781 0.49539063 2.69601563 0.33203125 1.86328125 C0.22246094 1.24839844 0.11289062 0.63351563 0 0 Z " fill="#D8423A" transform="translate(344,99)"/>
<path d="M0 0 C0.33 0.99 0.66 1.98 1 3 C-2.59462331 5.25998595 -5.56595675 5.20868087 -9.75 5.125 C-10.92046875 5.10695313 -12.0909375 5.08890625 -13.296875 5.0703125 C-14.63492187 5.03550781 -14.63492187 5.03550781 -16 5 C-16 4.67 -16 4.34 -16 4 C-14.77023437 3.94392578 -14.77023437 3.94392578 -13.515625 3.88671875 C-12.43796875 3.82097656 -11.3603125 3.75523437 -10.25 3.6875 C-9.18265625 3.62949219 -8.1153125 3.57148437 -7.015625 3.51171875 C-3.8178932 2.96909846 -2.37401309 2.14928855 0 0 Z " fill="#E03D3D" transform="translate(422,689)"/>
<path d="M0 0 C0 2.85602507 -0.3622683 4.48384316 -1.3125 7.125 C-1.55613281 7.82882813 -1.79976562 8.53265625 -2.05078125 9.2578125 C-3 11 -3 11 -6 12 C-5.43958106 7.23643901 -3.41302403 3.41302403 0 0 Z " fill="#DC5653" transform="translate(30,139)"/>
<path d="M0 0 C0.57234375 0.21527344 1.1446875 0.43054688 1.734375 0.65234375 C0.49493224 1.52175869 -0.75769559 2.37239832 -2.015625 3.21484375 C-2.71171875 3.69050781 -3.4078125 4.16617188 -4.125 4.65625 C-6.265625 5.65234375 -6.265625 5.65234375 -8.53125 5.3046875 C-9.10359375 5.08941406 -9.6759375 4.87414063 -10.265625 4.65234375 C-9.02618224 3.78292881 -7.77355441 2.93228918 -6.515625 2.08984375 C-5.81953125 1.61417969 -5.1234375 1.13851563 -4.40625 0.6484375 C-2.265625 -0.34765625 -2.265625 -0.34765625 0 0 Z " fill="#E55555" transform="translate(204.265625,29.34765625)"/>
<path d="M0 0 C3.94120709 0.56302958 6.7508723 1.6791945 10 4 C10 4.66 10 5.32 10 6 C5.56909529 4.79157144 3.01887244 3.48331435 0 0 Z " fill="#E33230" transform="translate(65,729)"/>
<path d="M0 0 C1.10348268 3.31044803 0.99444068 5.65506316 0 9 C-0.99 9.495 -0.99 9.495 -2 10 C-2.66 10.99 -3.32 11.98 -4 13 C-3.50269348 8.02693484 -2.44697666 4.36200187 0 0 Z " fill="#E05C5C" transform="translate(142,96)"/>
<path d="M0 0 C4.21912747 0.4794463 6.79663178 1.16625119 10 4 C7.03 3.67 4.06 3.34 1 3 C0.67 2.01 0.34 1.02 0 0 Z " fill="#EC333A" transform="translate(301,26)"/>
<path d="M0 0 C1.125 1.5625 1.125 1.5625 2 4 C1.3125 7.6875 1.3125 7.6875 0 11 C-0.99 11.33 -1.98 11.66 -3 12 C-3 10.68 -3 9.36 -3 8 C-2.34 7.67 -1.68 7.34 -1 7 C-0.59270772 4.67843403 -0.25561323 2.3431213 0 0 Z " fill="#DD3639" transform="translate(465,701)"/>
<path d="M0 0 C3.67230705 3.07999946 4.56802365 5.2482602 5 10 C4.34 10 3.68 10 3 10 C3 8.35 3 6.7 3 5 C2.01 4.67 1.02 4.34 0 4 C0 2.68 0 1.36 0 0 Z " fill="#E94D53" transform="translate(486,142)"/>
<path d="M0 0 C3.08089673 2.77280706 4.68775452 5.06326356 6 9 C2.56225537 7.85408512 1.82586841 7.04311402 0 4 C0 2.68 0 1.36 0 0 Z " fill="#E63B42" transform="translate(358,71)"/>
<path d="M0 0 C0 3 0 3 -2 6 C-4.625 7.1875 -4.625 7.1875 -7 8 C-5.50902342 4.2047869 -3.24299151 2.38957269 0 0 Z " fill="#E43C3B" transform="translate(164,61)"/>
<path d="M0 0 C0.66 0.33 1.32 0.66 2 1 C0.68 2.65 -0.64 4.3 -2 6 C-3.32 5.67 -4.64 5.34 -6 5 C-4.02 3.35 -2.04 1.7 0 0 Z " fill="#E64D4B" transform="translate(187,38)"/>
</svg>
