<?xml version="1.0" encoding="utf-8" ?>
<svg xmlns="http://www.w3.org/2000/svg" xmlns:xlink="http://www.w3.org/1999/xlink" width="509" height="758">
	<path fill="#FEFEFE" d="M0 0L509 0L509 757.352C508.59 757.611 508.188 757.789 507.711 757.897C505.271 758.449 501.808 757.996 499.24 757.997L477.148 758.002L384.354 758L7.46912 757.998C5.35396 757.998 1.74936 758.465 0 757.352L0 0Z"/>
	<path fill="#FD0100" d="M252.352 17.1818C277.644 15.3999 302.802 23.9054 324.144 36.9344C331.847 41.6371 338.511 47.575 344.707 54.1088C358.259 68.3983 366.011 81.5478 372.962 100.007C374.792 104.868 376.688 109.876 377.905 114.926C368.688 116.16 358.68 115.971 349.381 115.706C346.395 101.414 337.631 85.5996 327.676 74.9788C311.136 57.3343 286.782 45.5421 262.551 44.7235C244.508 44.0355 227.708 46.9904 211.747 55.6296C188.105 68.4259 172.06 89.5596 164.456 115.202C157.669 116.269 142.813 115.979 135.823 115.208C136.915 110.838 138.73 106.536 140.317 102.324C146.443 86.0649 153.74 71.7258 165.2 58.5393C181.467 39.8218 205.291 25.6766 229.451 20.1577C236.945 18.4459 244.696 17.7093 252.352 17.1818Z"/>
	<path fill="#FD0100" d="M132.015 128.986C149.693 128.745 167.397 129.039 185.077 129.116L250.789 129.112L446.895 129.068C460.339 129.152 473.355 128.261 483.564 138.757C497.705 153.294 494.483 176.194 494.096 194.667L382.213 194.557L140.984 194.61L67.3664 194.612C51.5126 194.629 35.593 194.958 19.7519 194.303Q19.6792 191.989 19.645 189.675C19.4054 171.416 17.7559 152.405 31.7133 138.249C35.3419 134.569 39.5739 131.805 44.6273 130.572C54.8431 128.081 71.5111 129.108 82.3815 129.105L132.015 128.986Z"/>
	<path fill="#FD0100" d="M55.888 217.812Q71.2534 217.796 86.6173 218.012C87.0414 230.477 86.521 243.096 86.4876 255.577L86.6014 322.815L86.671 558.783L86.6201 639.714C86.5892 652.517 85.6716 668.362 86.6366 680.847C86.8387 683.462 87.6267 685.269 89.4043 687.192C93.3871 691.499 97.3027 692.54 102.977 692.779C110.185 693.083 117.499 692.885 124.718 692.874L161.112 692.837L276.962 692.784L369.205 692.826L397.09 692.854C402.555 692.87 408.16 693.135 413.608 692.766C417.17 692.525 419.737 692.196 422.389 689.735C425.055 687.261 427.028 684.743 427.461 681.058C428.023 676.282 427.748 671.245 427.767 666.425L427.826 640.413L427.757 555.582L427.797 332.258L427.725 263.17C427.669 248.085 427.296 232.895 427.841 217.821C443.276 218.095 458.74 217.919 474.18 218.008C474.626 239.12 474.104 260.361 474.095 281.488L474.086 562.357C474.07 598.351 474.555 634.404 473.954 670.389C473.606 691.289 468.157 711.14 452.665 726.042C444.997 733.418 434.689 739.41 424.109 741.2C413.947 742.92 398.423 742.055 387.834 742.07L322.871 742.187L168.014 742.123C146.938 742.068 125.825 742.435 104.755 742.049C86.639 741.716 72.6004 737.802 59.7419 724.4C49.7668 714.003 43.4388 699.822 41.3647 685.619C40.053 676.638 40.2364 667.271 40.2667 658.207L40.3458 629.194L40.3472 528.856L40.351 326.874L40.3438 260.194C40.3244 246.089 40.094 231.95 40.4006 217.849L55.888 217.812Z"/>
	<path fill="#FD0100" d="M106.012 275.407C113.997 275.25 121.987 275.701 129.974 275.616L294.553 275.406L366.415 275.359C380.215 275.318 394.5 274.581 408.253 275.618C407.754 289.101 407.974 302.657 407.952 316.148L407.935 386.212L407.891 585.97L407.924 652.181C407.919 656.523 408.543 671.462 407.698 674.944L407.017 675.084C406.706 675.247 406.433 675.381 406.091 675.466C402.19 676.438 394.539 675.781 390.22 675.772L356.304 675.69L225.236 675.741L148.168 675.789C135.041 675.813 120.929 676.444 107.905 675.76C107.102 675.718 106.533 675.576 105.836 675.159C105.596 662.044 106.009 648.847 106.08 635.724L106.015 574.854L106.012 275.407Z"/>
</svg>
