<?xml version="1.0" encoding="UTF-8"?>
<svg xmlns="http://www.w3.org/2000/svg" xmlns:xlink="http://www.w3.org/1999/xlink" width="px" height="px" viewBox="0 0 382 568" version="1.1">
<g id="surface1">
<path style=" stroke:none;fill-rule:nonzero;fill:rgb(99.607843%,99.607843%,99.607843%);fill-opacity:1;" d="M 0 0 L 382 0 L 382 567.515625 C 381.691406 567.707031 381.390625 567.84375 381.03125 567.921875 C 379.203125 568.335938 376.601562 567.996094 374.675781 567.996094 L 358.09375 568 L 5.605469 568 C 4.019531 568 1.3125 568.347656 0 567.515625 Z M 0 0 "/>
<path style=" stroke:none;fill-rule:nonzero;fill:rgb(99.215686%,0.392157%,0%);fill-opacity:1;" d="M 189.386719 12.875 C 208.371094 11.539062 227.25 17.914062 243.265625 27.675781 C 249.046875 31.199219 254.050781 35.648438 258.699219 40.546875 C 268.871094 51.253906 274.6875 61.105469 279.90625 74.9375 C 281.277344 78.582031 282.699219 82.335938 283.613281 86.117188 C 276.695312 87.042969 269.1875 86.902344 262.207031 86.703125 C 259.964844 75.992188 253.390625 64.144531 245.917969 56.183594 C 233.503906 42.964844 215.226562 34.125 197.042969 33.511719 C 183.5 32.996094 170.894531 35.210938 158.914062 41.683594 C 141.171875 51.273438 129.128906 67.109375 123.421875 86.324219 C 118.328125 87.125 107.179688 86.90625 101.933594 86.328125 C 102.753906 83.054688 104.117188 79.832031 105.308594 76.675781 C 109.902344 64.492188 115.378906 53.746094 123.980469 43.867188 C 136.1875 29.839844 154.070312 19.242188 172.199219 15.105469 C 177.824219 13.820312 183.640625 13.269531 189.386719 12.875 Z M 189.386719 12.875 "/>
<path style=" stroke:none;fill-rule:nonzero;fill:rgb(99.215686%,0.392157%,0%);fill-opacity:1;" d="M 99.074219 96.65625 C 112.34375 96.472656 125.628906 96.695312 138.898438 96.75 L 188.214844 96.75 L 335.390625 96.714844 C 345.480469 96.777344 355.25 96.109375 362.910156 103.976562 C 373.523438 114.871094 371.105469 132.027344 370.816406 145.871094 L 286.847656 145.789062 L 105.808594 145.828125 L 50.558594 145.832031 C 38.660156 145.84375 26.710938 146.089844 14.824219 145.597656 C 14.789062 144.441406 14.761719 143.289062 14.742188 142.132812 C 14.5625 128.449219 13.324219 114.203125 23.800781 103.59375 C 26.523438 100.839844 29.699219 98.765625 33.492188 97.84375 C 41.160156 95.976562 53.667969 96.746094 61.828125 96.742188 Z M 99.074219 96.65625 "/>
<path style=" stroke:none;fill-rule:nonzero;fill:rgb(99.215686%,0.392157%,0%);fill-opacity:1;" d="M 41.945312 163.214844 C 49.632812 163.207031 57.320312 163.257812 65.003906 163.363281 C 65.324219 172.707031 64.933594 182.160156 64.90625 191.515625 L 64.992188 241.898438 L 65.046875 418.71875 L 65.007812 479.363281 C 64.984375 488.957031 64.296875 500.832031 65.019531 510.1875 C 65.171875 512.144531 65.761719 513.5 67.097656 514.941406 C 70.085938 518.167969 73.023438 518.949219 77.285156 519.128906 C 82.691406 519.355469 88.183594 519.207031 93.601562 519.199219 L 120.914062 519.171875 L 207.859375 519.132812 L 277.085938 519.164062 L 298.011719 519.183594 C 302.113281 519.195312 306.320312 519.394531 310.410156 519.117188 C 313.082031 518.9375 315.007812 518.691406 317 516.847656 C 319 514.992188 320.480469 513.105469 320.804688 510.34375 C 321.226562 506.765625 321.019531 502.992188 321.035156 499.378906 L 321.078125 479.886719 L 321.027344 416.320312 L 321.058594 248.972656 L 321.003906 197.203125 C 320.960938 185.898438 320.683594 174.519531 321.089844 163.222656 C 332.675781 163.425781 344.28125 163.296875 355.867188 163.363281 C 356.203125 179.183594 355.8125 195.097656 355.804688 210.929688 L 355.796875 421.398438 C 355.785156 448.367188 356.148438 475.382812 355.699219 502.347656 C 355.4375 518.011719 351.347656 532.886719 339.722656 544.050781 C 333.964844 549.578125 326.230469 554.070312 318.289062 555.410156 C 310.664062 556.699219 299.011719 556.050781 291.066406 556.0625 L 242.3125 556.152344 L 126.09375 556.101562 C 110.277344 556.0625 94.429688 556.335938 78.617188 556.046875 C 65.023438 555.796875 54.484375 552.863281 44.835938 542.820312 C 37.347656 535.03125 32.601562 524.40625 31.042969 513.761719 C 30.058594 507.03125 30.195312 500.011719 30.21875 493.222656 L 30.277344 471.480469 L 30.28125 396.292969 L 30.28125 244.941406 L 30.277344 194.972656 C 30.261719 184.40625 30.089844 173.808594 30.320312 163.242188 Z M 41.945312 163.214844 "/>
<path style=" stroke:none;fill-rule:nonzero;fill:rgb(99.215686%,0.392157%,0%);fill-opacity:1;" d="M 79.5625 206.375 C 85.554688 206.257812 91.550781 206.59375 97.542969 206.53125 L 221.058594 206.371094 L 274.992188 206.335938 C 285.347656 206.308594 296.070312 205.753906 306.390625 206.53125 C 306.015625 216.636719 306.179688 226.792969 306.164062 236.902344 L 306.152344 289.402344 L 306.117188 439.089844 L 306.144531 488.707031 C 306.140625 491.960938 306.609375 503.152344 305.972656 505.761719 L 305.460938 505.867188 C 305.230469 505.988281 305.023438 506.089844 304.769531 506.152344 C 301.839844 506.882812 296.097656 506.390625 292.855469 506.382812 L 267.402344 506.320312 L 169.039062 506.359375 L 111.199219 506.394531 C 101.347656 506.414062 90.757812 506.886719 80.980469 506.375 C 80.378906 506.34375 79.953125 506.238281 79.429688 505.925781 C 79.25 496.097656 79.558594 486.207031 79.613281 476.375 L 79.5625 430.761719 Z M 79.5625 206.375 "/>
</g>
</svg>
